<?xml version="1.0" encoding="UTF-8" standalone="no"?>
<svg
   xmlns:dc="http://purl.org/dc/elements/1.1/"
   xmlns:cc="http://creativecommons.org/ns#"
   xmlns:rdf="http://www.w3.org/1999/02/22-rdf-syntax-ns#"
   xmlns:svg="http://www.w3.org/2000/svg"
   xmlns="http://www.w3.org/2000/svg"
   xmlns:xlink="http://www.w3.org/1999/xlink"
   id="svg8"
   version="1.1"
   viewBox="0 0 3914.8875 2234.8831"
   height="2234.8831"
   width="3914.8875">
  <defs
     id="defs2">
    <linearGradient
       id="linearGradient96">
      <stop
         id="stop92"
         offset="0"
         style="stop-color:#ffffff;stop-opacity:1" />
      <stop
         id="stop94"
         offset="1"
         style="stop-color:#ff00ff;stop-opacity:1" />
    </linearGradient>
    <linearGradient
       id="linearGradient838">
      <stop
         style="stop-color:#ff00ff;stop-opacity:1;"
         offset="0"
         id="stop834" />
      <stop
         style="stop-color:#ffaaff;stop-opacity:1"
         offset="1"
         id="stop836" />
    </linearGradient>
    <radialGradient
       spreadMethod="reflect"
       gradientUnits="userSpaceOnUse"
       gradientTransform="matrix(1,0,0,0.88165678,0,16.517509)"
       r="22.357292"
       fy="139.57292"
       fx="57.282288"
       cy="139.57292"
       cx="57.282288"
       id="radialGradient827"
       xlink:href="#linearGradient838" />
    <radialGradient
       xlink:href="#linearGradient838"
       id="radialGradient827-2"
       cx="57.282288"
       cy="139.57292"
       fx="57.282288"
       fy="139.57292"
       r="22.357292"
       gradientTransform="matrix(1,0,0,0.88165678,0,16.517509)"
       gradientUnits="userSpaceOnUse"
       spreadMethod="reflect" />
    <linearGradient
       id="linearGradient965">
      <stop
         style="stop-color:#000000;stop-opacity:1;"
         offset="0"
         id="stop961" />
      <stop
         style="stop-color:#000000;stop-opacity:0;"
         offset="1"
         id="stop963" />
    </linearGradient>
    <linearGradient
       id="linearGradient1071">
      <stop
         style="stop-color:#000000;stop-opacity:1;"
         offset="0"
         id="stop1067" />
      <stop
         style="stop-color:#000000;stop-opacity:0.14117648"
         offset="1"
         id="stop1069" />
    </linearGradient>
    <radialGradient
       xlink:href="#linearGradient838"
       id="radialGradient827-8"
       cx="57.282288"
       cy="139.57292"
       fx="57.282288"
       fy="139.57292"
       r="22.357292"
       gradientTransform="matrix(1,0,0,0.88165678,0,16.517509)"
       gradientUnits="userSpaceOnUse"
       spreadMethod="reflect" />
    <linearGradient
       xlink:href="#linearGradient1071"
       id="linearGradient1226"
       gradientUnits="userSpaceOnUse"
       gradientTransform="matrix(1.1788483,0,0,1.3195357,-65.995486,-75.186574)"
       x1="430.56122"
       y1="280.29828"
       x2="590.97107"
       y2="136.29828" />
    <radialGradient
       xlink:href="#linearGradient965"
       id="radialGradient967"
       cx="538.1922"
       cy="1373.6064"
       fx="538.1922"
       fy="1373.6064"
       r="582.5528"
       gradientTransform="matrix(1,0,0,0.60674305,0,405.58891)"
       gradientUnits="userSpaceOnUse" />
    <radialGradient
       r="268.20428"
       fy="-306.11484"
       fx="1086.3295"
       cy="-306.11484"
       cx="1086.3295"
       gradientTransform="matrix(-6.3108567,7.7137173,-3.4240062,-2.2148521,10982.958,-11977.098)"
       gradientUnits="userSpaceOnUse"
       id="radialGradient905"
       xlink:href="#linearGradient96" />
    <radialGradient
       r="268.20428"
       fy="-306.11484"
       fx="1086.3295"
       cy="-306.11484"
       cx="1086.3295"
       gradientTransform="matrix(-6.3108567,7.7137173,-3.4240062,-2.2148521,10982.958,-11977.098)"
       gradientUnits="userSpaceOnUse"
       id="radialGradient907"
       xlink:href="#linearGradient96" />
    <radialGradient
       r="268.20428"
       fy="-306.11484"
       fx="1086.3295"
       cy="-306.11484"
       cx="1086.3295"
       gradientTransform="matrix(-6.3108567,7.7137173,-3.4240062,-2.2148521,10982.958,-11977.098)"
       gradientUnits="userSpaceOnUse"
       id="radialGradient909"
       xlink:href="#linearGradient96" />
    <radialGradient
       r="268.20428"
       fy="-306.11484"
       fx="1086.3295"
       cy="-306.11484"
       cx="1086.3295"
       gradientTransform="matrix(-6.3108567,7.7137173,-3.4240062,-2.2148521,10982.958,-11977.098)"
       gradientUnits="userSpaceOnUse"
       id="radialGradient911"
       xlink:href="#linearGradient96" />
    <radialGradient
       r="268.20428"
       fy="-306.11484"
       fx="1086.3295"
       cy="-306.11484"
       cx="1086.3295"
       gradientTransform="matrix(-6.3108567,7.7137173,-3.4240062,-2.2148521,10982.958,-11977.098)"
       gradientUnits="userSpaceOnUse"
       id="radialGradient913"
       xlink:href="#linearGradient96" />
    <radialGradient
       r="268.20428"
       fy="-306.11484"
       fx="1086.3295"
       cy="-306.11484"
       cx="1086.3295"
       gradientTransform="matrix(-6.3108567,7.7137173,-3.4240062,-2.2148521,10982.958,-11977.098)"
       gradientUnits="userSpaceOnUse"
       id="radialGradient915"
       xlink:href="#linearGradient96" />
    <radialGradient
       r="268.20428"
       fy="-306.11484"
       fx="1086.3295"
       cy="-306.11484"
       cx="1086.3295"
       gradientTransform="matrix(-6.3108567,7.7137173,-3.4240062,-2.2148521,10982.958,-11977.098)"
       gradientUnits="userSpaceOnUse"
       id="radialGradient917"
       xlink:href="#linearGradient96" />
    <radialGradient
       r="268.20428"
       fy="-306.11484"
       fx="1086.3295"
       cy="-306.11484"
       cx="1086.3295"
       gradientTransform="matrix(-0.85437487,1.0442966,-0.46354797,-0.29985057,1600.7524,-1397.5167)"
       gradientUnits="userSpaceOnUse"
       id="radialGradient921"
       xlink:href="#linearGradient96" />
    <radialGradient
       r="268.20428"
       fy="-306.11484"
       fx="1086.3295"
       cy="-306.11484"
       cx="1086.3295"
       gradientTransform="matrix(-0.85437487,1.0442966,-0.46354797,-0.29985057,1600.7524,-1397.5167)"
       gradientUnits="userSpaceOnUse"
       id="radialGradient923"
       xlink:href="#linearGradient96" />
    <radialGradient
       r="268.20428"
       fy="-306.11484"
       fx="1086.3295"
       cy="-306.11484"
       cx="1086.3295"
       gradientTransform="matrix(-0.85437487,1.0442966,-0.46354797,-0.29985057,1600.7524,-1397.5167)"
       gradientUnits="userSpaceOnUse"
       id="radialGradient925"
       xlink:href="#linearGradient96" />
    <radialGradient
       r="268.20428"
       fy="-306.11484"
       fx="1086.3295"
       cy="-306.11484"
       cx="1086.3295"
       gradientTransform="matrix(-0.85437487,1.0442966,-0.46354797,-0.29985057,1600.7524,-1397.5167)"
       gradientUnits="userSpaceOnUse"
       id="radialGradient927"
       xlink:href="#linearGradient96" />
    <radialGradient
       r="268.20428"
       fy="-306.11484"
       fx="1086.3295"
       cy="-306.11484"
       cx="1086.3295"
       gradientTransform="matrix(-0.85437487,1.0442966,-0.46354797,-0.29985057,1600.7524,-1276.6178)"
       gradientUnits="userSpaceOnUse"
       id="radialGradient929"
       xlink:href="#linearGradient96" />
    <linearGradient
       id="linearGradient888">
      <stop
         style="stop-color:#ff91ff;stop-opacity:1"
         offset="0"
         id="stop884" />
      <stop
         style="stop-color:#ff00ff;stop-opacity:0.97046411"
         offset="1"
         id="stop886" />
    </linearGradient>
    <linearGradient
       id="linearGradient1339">
      <stop
         id="stop1335"
         offset="0"
         style="stop-color:#ffffff;stop-opacity:0" />
      <stop
         id="stop1337"
         offset="1"
         style="stop-color:#000000;stop-opacity:0.99574471" />
    </linearGradient>
    <linearGradient
       xlink:href="#linearGradient1339"
       id="linearGradient2511"
       x1="722.7951"
       y1="319.60855"
       x2="732.28833"
       y2="412.82455"
       gradientUnits="userSpaceOnUse"
       gradientTransform="matrix(1.1050247,0.57595962,0,1.2816598,772.2848,1604.9533)" />
    <filter
       style="color-interpolation-filters:sRGB"
       id="filter1148"
       x="-0.017669426"
       width="1.0353389"
       y="-0.037399396"
       height="1.0747988">
      <feGaussianBlur
         stdDeviation="3.3471108"
         id="feGaussianBlur1150" />
    </filter>
    <filter
       style="color-interpolation-filters:sRGB"
       id="filter1160"
       x="-0.018987533"
       width="1.0379751"
       y="-0.032608129"
       height="1.0652163">
      <feGaussianBlur
         stdDeviation="5.1587883"
         id="feGaussianBlur1162" />
    </filter>
    <filter
       style="color-interpolation-filters:sRGB"
       id="filter1184"
       x="-0.016001964"
       width="1.0320039"
       y="-0.047982335"
       height="1.0959647">
      <feGaussianBlur
         stdDeviation="2.5375078"
         id="feGaussianBlur1186" />
    </filter>
    <filter
       style="color-interpolation-filters:sRGB"
       id="filter1208"
       x="-0.018678889"
       width="1.0373578"
       y="-0.033560473"
       height="1.0671209">
      <feGaussianBlur
         stdDeviation="3.4103913"
         id="feGaussianBlur1210" />
    </filter>
    <filter
       style="color-interpolation-filters:sRGB"
       id="filter1226"
       x="-0.026557958"
       width="1.0531158"
       y="-0.055859502"
       height="1.111719">
      <feGaussianBlur
         stdDeviation="6.267875"
         id="feGaussianBlur1228" />
    </filter>
    <filter
       style="color-interpolation-filters:sRGB"
       id="filter934"
       x="-0.050270285"
       width="1.1005406"
       y="-0.15081082"
       height="1.3016217">
      <feGaussianBlur
         stdDeviation="1.2936365"
         id="feGaussianBlur936" />
    </filter>
    <radialGradient
       xlink:href="#linearGradient888"
       id="radialGradient890"
       cx="1069.4865"
       cy="-469.93112"
       fx="1069.4865"
       fy="-469.93112"
       r="598.0014"
       gradientTransform="matrix(0.34489841,0.17562646,-0.10026431,0.19690087,1614.7874,2462.7432)"
       gradientUnits="userSpaceOnUse" />
    <filter
       style="color-interpolation-filters:sRGB"
       id="filter957"
       x="-0.018108118"
       width="1.0362163"
       y="-0.035575181"
       height="1.0711504">
      <feGaussianBlur
         stdDeviation="3.5859412"
         id="feGaussianBlur959" />
    </filter>
    <filter
       style="color-interpolation-filters:sRGB"
       id="filter1184-0"
       x="-0.016001964"
       width="1.0320039"
       y="-0.047982335"
       height="1.0959647">
      <feGaussianBlur
         stdDeviation="2.5375078"
         id="feGaussianBlur1186-8" />
    </filter>
  </defs>
  <metadata
     id="metadata5">
    <rdf:RDF>
      <cc:Work
         rdf:about="">
        <dc:format>image/svg+xml</dc:format>
        <dc:type
           rdf:resource="http://purl.org/dc/dcmitype/StillImage" />
        <dc:title />
      </cc:Work>
    </rdf:RDF>
  </metadata>
  <g
     style="display:inline"
     transform="translate(-733.03868,-1096.5503)"
     id="layer5">
    <g
       transform="matrix(1.1740572,0,0,1.1740572,-445.08073,-373.84808)"
       style="display:inline"
       id="g1536">
      <g
         id="g1433"
         style="display:inline">
        <path
           style="color:#000000;font-style:normal;font-variant:normal;font-weight:normal;font-stretch:normal;font-size:medium;line-height:normal;font-family:sans-serif;font-variant-ligatures:normal;font-variant-position:normal;font-variant-caps:normal;font-variant-numeric:normal;font-variant-alternates:normal;font-feature-settings:normal;text-indent:0;text-align:start;text-decoration:none;text-decoration-line:none;text-decoration-style:solid;text-decoration-color:#000000;letter-spacing:normal;word-spacing:normal;text-transform:none;writing-mode:lr-tb;direction:ltr;text-orientation:mixed;dominant-baseline:auto;baseline-shift:baseline;text-anchor:start;white-space:normal;shape-padding:0;clip-rule:nonzero;display:inline;overflow:visible;visibility:visible;opacity:1;isolation:auto;mix-blend-mode:normal;color-interpolation:sRGB;color-interpolation-filters:linearRGB;solid-color:#000000;solid-opacity:1;vector-effect:none;fill:url(#radialGradient890);fill-opacity:1;fill-rule:nonzero;stroke:none;stroke-width:30;stroke-linecap:square;stroke-linejoin:miter;stroke-miterlimit:4;stroke-dasharray:none;stroke-dashoffset:0;stroke-opacity:1;paint-order:fill markers stroke;color-rendering:auto;image-rendering:auto;shape-rendering:auto;text-rendering:auto;enable-background:accumulate"
           d="m 1663.2461,2384.4783 c -26.497,0.01 -53.1061,1.0551 -79.6601,3.17 -154.4951,12.3043 -294.7632,59.4465 -391.4649,132.959 -96.6178,73.4486 -142.1895,169.4701 -121.7929,264.8027 10.6944,63.3945 57.4594,116.597 118.9062,161.3223 61.5945,44.8328 138.8629,81.6615 214.6875,111.2129 151.6491,59.1027 298.0488,88.914 298.0488,88.914 l 15.5078,3.1641 8.9043,-59.9297 c 14.0577,-2.7697 81.5473,-16.2246 166.5235,-38.8144 94.2504,-25.0553 198.9665,-57.4383 249.6857,-97.7188 94.1433,-74.7674 136.2977,-171.6932 112.3672,-266.7344 -23.9305,-95.0413 -109.4847,-177.62 -235.0117,-232.7383 -103.9523,-45.6448 -229.0331,-69.6489 -356.7014,-69.6094 z"
           id="path891" />
        <path
           style="display:inline;opacity:1;fill:#fff2f6;fill-opacity:1;stroke:none;stroke-width:1px;stroke-linecap:butt;stroke-linejoin:miter;stroke-opacity:1"
           d="m 1437.4416,2426.2396 24.762,72.3575 123.5389,176.2594 163.6694,-1.5738 114.6924,-180.9805 26.2802,-68.2731 c -143.1405,-34.8439 -311.2861,-39.5803 -452.9429,2.2105 z"
           id="path981" />
      </g>
      <g
         id="g1511">
        <path
           style="display:inline;opacity:0.1;fill:#000000;fill-opacity:1;stroke:#000000;stroke-width:1px;stroke-linecap:butt;stroke-linejoin:miter;stroke-opacity:1;filter:url(#filter1148)"
           d="m 1293.5173,2738.599 46.5426,-0.8696 c 201.7607,205.3506 658.2039,223.1499 686.5219,-7.6241 l 44.2722,8.4937 c -186.8759,232.9686 -573.0133,262.5729 -777.3367,0 z"
           id="path915" />
        <path
           style="display:inline;opacity:0.1;fill:#000000;fill-opacity:1;stroke:none;stroke-width:1px;stroke-linecap:butt;stroke-linejoin:miter;stroke-opacity:1;filter:url(#filter1160)"
           d="m 1074.4325,2758.5894 c 66.8248,170.3273 319.701,305.8842 649.7247,337.0682 l -11.3992,42.6252 c -494.535,-99.0701 -585.3474,-189.9109 -638.3255,-379.6934 z"
           id="path1138" />
        <path
           style="display:inline;opacity:0.1;fill:#000000;fill-opacity:1;stroke:none;stroke-width:1px;stroke-linecap:butt;stroke-linejoin:miter;stroke-opacity:1;filter:url(#filter1184)"
           d="m 1725.3243,3085.341 16.0266,-1.632 c 273.6298,-166.1769 331.1211,-90.825 498.1837,-294.9929 -5.7988,116.6894 -320.3981,311.5262 -514.2103,296.6249 z"
           id="path1166" />
      </g>
      <g
         id="g1506"
         style="display:inline">
        <path
           id="path1261"
           style="display:inline;fill:none;fill-opacity:1;fill-rule:nonzero;stroke:#800080;stroke-width:30;stroke-linecap:square;stroke-linejoin:miter;stroke-miterlimit:4;stroke-dasharray:none;stroke-opacity:1;paint-order:fill markers stroke"
           d="m 1323.1733,2729.6342 -29.656,8.9648 c 110.2443,119.4568 225.5459,182.7235 423.639,186.9089 5.5882,65.3819 8.8469,114.1327 -4.3983,212.7749 -260.7084,-49.329 -589.4115,-124.7472 -627.7232,-355.7781 -19.1494,-89.0028 22.594,-178.8245 116.1635,-249.9559 93.5696,-71.1314 231.4085,-117.8279 383.5784,-129.947 152.1699,-12.1192 306.3813,11.3178 429.1398,65.2204 122.7584,53.9026 204.1496,133.9176 226.4956,222.6658 22.346,88.7482 -16.1578,179.0622 -107.1486,251.3259 -90.9908,72.2638 -256.2387,129.5436 -407.9392,143.5271" />
        <path
           style="display:inline;fill:none;stroke:#800080;stroke-width:30;stroke-linecap:butt;stroke-linejoin:miter;stroke-miterlimit:4;stroke-dasharray:none;stroke-opacity:1"
           d="m 1614.0298,2685.9446 v 226.4455"
           id="path977" />
        <path
           style="display:inline;fill:none;stroke:#800080;stroke-width:30;stroke-linecap:butt;stroke-linejoin:miter;stroke-miterlimit:4;stroke-dasharray:none;stroke-opacity:1"
           d="m 2026.5818,2730.1053 44.2722,8.4937 c -72.2399,93.0579 -204.7932,171.7722 -353.6977,186.9089"
           id="path893" />
        <g
           style="display:inline"
           id="g1381">
          <g
             id="g1373">
            <path
               id="path982"
               d="M 1775.043,2674.4573 H 1548.5975"
               style="fill:none;stroke:#800080;stroke-width:30;stroke-linecap:butt;stroke-linejoin:miter;stroke-miterlimit:4;stroke-dasharray:none;stroke-opacity:1" />
            <path
               style="fill:#800080;fill-opacity:1;stroke:none;stroke-width:1px;stroke-linecap:butt;stroke-linejoin:miter;stroke-opacity:1"
               d="m 1421.306,2431.8037 241.0042,257.3903 -133.0763,22.97 z"
               id="path867" />
            <path
               style="color:#000000;font-style:normal;font-variant:normal;font-weight:normal;font-stretch:normal;font-size:medium;line-height:normal;font-family:sans-serif;font-variant-ligatures:normal;font-variant-position:normal;font-variant-caps:normal;font-variant-numeric:normal;font-variant-alternates:normal;font-feature-settings:normal;text-indent:0;text-align:start;text-decoration:none;text-decoration-line:none;text-decoration-style:solid;text-decoration-color:#000000;letter-spacing:normal;word-spacing:normal;text-transform:none;writing-mode:lr-tb;direction:ltr;text-orientation:mixed;dominant-baseline:auto;baseline-shift:baseline;text-anchor:start;white-space:normal;shape-padding:0;clip-rule:nonzero;display:inline;overflow:visible;visibility:visible;opacity:1;isolation:auto;mix-blend-mode:normal;color-interpolation:sRGB;color-interpolation-filters:linearRGB;solid-color:#000000;solid-opacity:1;vector-effect:none;fill:#800080;fill-opacity:1;fill-rule:nonzero;stroke:none;stroke-width:30;stroke-linecap:butt;stroke-linejoin:miter;stroke-miterlimit:4;stroke-dasharray:none;stroke-dashoffset:0;stroke-opacity:1;color-rendering:auto;image-rendering:auto;shape-rendering:auto;text-rendering:auto;enable-background:accumulate"
               d="m 1448.7025,2419.578 -28.0009,10.7681 81.28,211.3553 28.0009,-10.7682 z"
               id="path904" />
            <path
               id="path918"
               d="m 1903.3145,2431.8037 -241.0042,257.3903 133.0763,22.97 z"
               style="fill:#800080;fill-opacity:1;stroke:none;stroke-width:1px;stroke-linecap:butt;stroke-linejoin:miter;stroke-opacity:1" />
            <path
               id="path920"
               d="m 1875.918,2419.578 28.0009,10.7681 -81.28,211.3553 -28.0008,-10.7682 z"
               style="color:#000000;font-style:normal;font-variant:normal;font-weight:normal;font-stretch:normal;font-size:medium;line-height:normal;font-family:sans-serif;font-variant-ligatures:normal;font-variant-position:normal;font-variant-caps:normal;font-variant-numeric:normal;font-variant-alternates:normal;font-feature-settings:normal;text-indent:0;text-align:start;text-decoration:none;text-decoration-line:none;text-decoration-style:solid;text-decoration-color:#000000;letter-spacing:normal;word-spacing:normal;text-transform:none;writing-mode:lr-tb;direction:ltr;text-orientation:mixed;dominant-baseline:auto;baseline-shift:baseline;text-anchor:start;white-space:normal;shape-padding:0;clip-rule:nonzero;display:inline;overflow:visible;visibility:visible;opacity:1;isolation:auto;mix-blend-mode:normal;color-interpolation:sRGB;color-interpolation-filters:linearRGB;solid-color:#000000;solid-opacity:1;vector-effect:none;fill:#800080;fill-opacity:1;fill-rule:nonzero;stroke:none;stroke-width:30;stroke-linecap:butt;stroke-linejoin:miter;stroke-miterlimit:4;stroke-dasharray:none;stroke-dashoffset:0;stroke-opacity:1;color-rendering:auto;image-rendering:auto;shape-rendering:auto;text-rendering:auto;enable-background:accumulate" />
          </g>
        </g>
        <g
           style="display:inline"
           id="g1389">
          <ellipse
             style="display:inline;opacity:1;fill:#800080;fill-opacity:1;fill-rule:nonzero;stroke:#800080;stroke-width:1.62963188;stroke-linecap:square;stroke-linejoin:round;stroke-miterlimit:4;stroke-dasharray:none;stroke-opacity:1;paint-order:stroke markers fill"
             id="ellipse2524"
             cx="1664.7596"
             cy="2797.8"
             rx="18.157455"
             ry="16.662048" />
          <ellipse
             ry="16.662048"
             rx="18.157455"
             cy="2725.5562"
             cx="1663.5509"
             id="ellipse2526"
             style="display:inline;opacity:1;fill:#800080;fill-opacity:1;fill-rule:nonzero;stroke:#800080;stroke-width:1.62963188;stroke-linecap:square;stroke-linejoin:round;stroke-miterlimit:4;stroke-dasharray:none;stroke-opacity:1;paint-order:stroke markers fill" />
          <ellipse
             ry="16.662048"
             rx="18.157455"
             cy="2870.0442"
             cx="1664.7596"
             id="ellipse898"
             style="display:inline;opacity:1;fill:#800080;fill-opacity:1;fill-rule:nonzero;stroke:#800080;stroke-width:1.62963188;stroke-linecap:square;stroke-linejoin:round;stroke-miterlimit:4;stroke-dasharray:none;stroke-opacity:1;paint-order:stroke markers fill" />
          <ellipse
             style="display:inline;opacity:1;fill:#800080;fill-opacity:1;fill-rule:nonzero;stroke:#800080;stroke-width:1.62963188;stroke-linecap:square;stroke-linejoin:round;stroke-miterlimit:4;stroke-dasharray:none;stroke-opacity:1;paint-order:stroke markers fill"
             id="ellipse1383"
             cx="1662.3422"
             cy="3074.3196"
             rx="18.157455"
             ry="16.662048" />
        </g>
      </g>
    </g>
    <g
       transform="matrix(1.1740572,0,0,1.1740572,-445.08073,-373.84808)"
       style="display:inline"
       id="g1347">
      <ellipse
         style="display:inline;fill:#fff2f6;fill-opacity:1;fill-rule:nonzero;stroke:none;stroke-width:30.26459312;stroke-linecap:butt;stroke-linejoin:miter;stroke-miterlimit:4;stroke-dasharray:none;stroke-opacity:1;paint-order:markers fill stroke"
         id="ellipse1103"
         cx="-1664.4524"
         cy="2299.0251"
         rx="290.60321"
         ry="291.20898"
         transform="scale(-1,1)" />
      <g
         style="display:inline"
         id="g1359">
        <path
           id="path1230"
           d="m 1375.8046,2379.317 c 98.2358,218.8576 276.9585,257.6309 475.2707,152.6532 -63.0737,47.8012 -145.2902,113.421 -315.5357,80.261 -103.3164,-61.0551 -154.7687,-161.3963 -159.735,-232.9142 z"
           style="display:inline;opacity:0.1;fill:#000000;fill-opacity:0.99607843;stroke:#000000;stroke-width:1px;stroke-linecap:butt;stroke-linejoin:miter;stroke-opacity:1;filter:url(#filter957)" />
        <path
           style="display:inline;opacity:0.1;fill:#000000;fill-opacity:0.99607843;stroke:none;stroke-width:1px;stroke-linecap:butt;stroke-linejoin:miter;stroke-opacity:1;filter:url(#filter1226)"
           d="m 1377.6668,2269.5924 c 74.9648,-139.3501 161.7681,-192.5265 282.6525,-202.5305 141.9522,4.2563 205.0707,102.8059 283.7655,199.1921 l -16.6921,-161.3567 -259.2837,-104.6037 -280.4269,111.2805 z"
           id="path1212-0" />
        <path
           style="display:inline;opacity:0.1;fill:url(#linearGradient2511);fill-opacity:1;fill-rule:nonzero;stroke:none;stroke-width:1.76275754;stroke-linecap:butt;stroke-linejoin:miter;stroke-miterlimit:4;stroke-dasharray:none;stroke-opacity:1;paint-order:stroke fill markers;filter:url(#filter1208)"
           d="m 1925.3331,2444.5777 c -165.2927,209.3541 -466.0963,202.328 -552.3093,-103.3391 233.9102,311.6665 369.7886,201.2358 552.3093,103.3391 z"
           id="ellipse1079" />
      </g>
      <g
         style="display:inline"
         id="g1317">
        <g
           id="g1307">
          <path
             style="display:inline;fill:none;stroke:#800080;stroke-width:30.2648201;stroke-linecap:butt;stroke-linejoin:miter;stroke-miterlimit:4;stroke-dasharray:none;stroke-opacity:1"
             d="m 1730.6825,2422.8142 c -60.1913,29.6394 -133.7785,11.9537 -182.1602,-30.6866"
             id="path1047" />
          <path
             id="path1049"
             d="m 1561.9091,2350.7834 c -11.1866,20.3014 -29.029,46.4717 -45.9231,65.9767"
             style="display:inline;fill:none;stroke:#800080;stroke-width:30.2648201;stroke-linecap:butt;stroke-linejoin:miter;stroke-miterlimit:4;stroke-dasharray:none;stroke-opacity:1" />
        </g>
        <g
           id="g1303">
          <path
             style="display:inline;fill:none;stroke:#800080;stroke-width:30.2648201;stroke-linecap:butt;stroke-linejoin:miter;stroke-miterlimit:4;stroke-dasharray:none;stroke-opacity:1"
             d="m 1868.6086,2241.9557 c -20.7271,-56.4374 -51.519,-112.7978 -163.3934,-74.9616"
             id="path1041" />
          <path
             id="path1043"
             d="m 1460.296,2244.0786 c 20.7272,-56.4374 51.519,-112.7978 163.3933,-74.9617"
             style="display:inline;fill:none;stroke:#800080;stroke-width:30.2648201;stroke-linecap:butt;stroke-linejoin:miter;stroke-miterlimit:4;stroke-dasharray:none;stroke-opacity:1" />
        </g>
        <path
           style="display:inline;fill:#800080;stroke:none;stroke-width:32.99402237;stroke-linecap:butt;stroke-linejoin:miter;stroke-miterlimit:4;stroke-dasharray:none;stroke-opacity:1;paint-order:stroke markers fill"
           d="m 1611.5485,1953.4793 c -6.4474,-0.079 -12.9682,0.1979 -19.4454,0.6297 -29.3634,1.9575 -68.1444,24.2785 -97.108,35.582 -46.053,17.9728 -61.8305,66.1975 -130.5369,91.7777 -22.7292,8.4623 -42.1848,89.5857 -39.4383,89.5857 43.9854,-14.3266 -11.9195,113.4755 -20.1285,112.102 37.8962,70.425 101.8341,-13.2583 101.3676,-29.0613 -2.7786,-94.1373 61.9349,-146.9245 41.8616,-98.0995 -4.1512,10.0972 61.2101,-38.5345 61.2065,-60.6106 12.9937,9.7351 35.7394,19.0505 59.3633,1.9489 -25.5123,15.4617 -6.2884,-67.7543 95.7629,-40.6575 102.0514,-27.0968 121.2729,56.1192 95.7606,40.6575 23.6239,17.1016 46.3696,7.7862 59.3633,-1.9489 0,22.0761 65.3577,70.7078 61.2065,60.6106 -20.0732,-48.825 44.6403,3.9622 41.8616,98.0995 -0.4664,15.803 63.4714,99.4863 101.3676,29.0613 -8.209,1.3735 -64.1139,-126.4286 -20.1285,-112.102 2.7465,0 -16.709,-81.1234 -39.4383,-89.5857 -68.7064,-25.5802 -84.4839,-73.8049 -130.5369,-91.7777 -28.9636,-11.3035 -67.7445,-33.6245 -97.1079,-35.582 -25.9089,-1.7271 -52.5092,-0.998 -72.348,15.2245 -14.879,-12.1669 -33.5626,-15.6173 -52.9048,-15.8542 z"
           id="path843" />
        <ellipse
           transform="scale(-1,1)"
           ry="291.20898"
           rx="290.60321"
           cy="2299.0251"
           cx="-1664.4523"
           id="ellipse1039"
           style="display:inline;fill:none;fill-opacity:1;fill-rule:nonzero;stroke:#800080;stroke-width:30.2648201;stroke-linecap:butt;stroke-linejoin:miter;stroke-miterlimit:4;stroke-dasharray:none;stroke-opacity:1;paint-order:markers fill stroke" />
      </g>
    </g>
    <g
       transform="matrix(1.1740572,0,0,1.1740572,-445.08073,-380.89242)"
       style="display:inline"
       id="g1395">
      <path
         id="path70"
         d="m 1745.2247,2952.2666 c -25.0217,36.7821 -13.6165,89.7871 -4.7212,133.3748 2.2876,11.2094 5.1187,24.6161 14.5571,31.0814 23.7504,16.2689 60.7751,14.4705 89.5009,12.5784 30.3094,-1.9965 60.9338,-15.7635 85.9716,-24.7749 37.4285,-13.471 24.2685,-78.0813 20.0653,-117.6374 -4.4598,-41.9709 -43.1052,-31.169 -76.373,-35.6628 -7.1191,-39.7155 -54.4587,-28.1009 -85.7227,-17.8445 -14.9554,4.9063 -34.425,5.8711 -43.278,18.885 z"
         style="display:inline;fill:#fff2f6;fill-opacity:1;stroke:#800080;stroke-width:30;stroke-linecap:butt;stroke-linejoin:miter;stroke-miterlimit:4;stroke-dasharray:none;stroke-opacity:1" />
      <g
         id="g1541">
        <path
           style="display:inline;opacity:0.1;fill:#000000;fill-opacity:1;stroke:none;stroke-width:1px;stroke-linecap:butt;stroke-linejoin:miter;stroke-opacity:1;filter:url(#filter934)"
           d="m 898.96488,1229.1973 c 4.75958,-0.025 34.93913,20.6707 31.44778,12.795 -11.46856,-25.8704 63.49319,-19.569 59.98394,-26.4665 -29.4472,-1.478 -61.93331,4.8697 -91.43172,13.6715 z"
           id="path892"
           transform="matrix(-1.0032524,0,0,-0.93331317,2796.5737,4112.6166)" />
        <path
           transform="matrix(-1.8930295,0.22886884,-0.10286903,-0.8508546,3828.0397,3831.3375)"
           id="path946"
           d="m 932.24211,1212.3509 c -7.98821,8.2712 -24.16803,34.104 0.91997,43.036 -5.03887,-40.2186 57.04113,-25.2044 65.78827,-36.6355 -28.10451,-17.1909 -64.9856,12.0875 -66.70824,-6.4005 z"
           style="display:inline;opacity:0.1;fill:#000000;fill-opacity:1;stroke:none;stroke-width:1px;stroke-linecap:butt;stroke-linejoin:miter;stroke-opacity:1;filter:url(#filter934)" />
        <path
           transform="matrix(1,0,0,1.2141567,12.666138,-666.58776)"
           id="path1543"
           d="m 1735.8608,3125.294 5.3555,-142.5834 c 65.4752,-31.5387 98.8541,-50.5452 145.3082,-20.3585 235.4456,5.2957 -53.5409,185.8642 -150.6637,162.9419 z"
           style="display:inline;opacity:0.1;fill:#000000;fill-opacity:1;stroke:none;stroke-width:1px;stroke-linecap:butt;stroke-linejoin:miter;stroke-opacity:1;filter:url(#filter1184-0)" />
        <path
           style="display:inline;opacity:0.1;fill:#000000;fill-opacity:1;stroke:none;stroke-width:1px;stroke-linecap:butt;stroke-linejoin:miter;stroke-opacity:1;filter:url(#filter934)"
           d="m 933.20044,1213.4314 c -4.70561,4.0116 -8.85172,29.5843 -1.91317,62.8447 -10.6475,-63.1817 57.45028,-38.7231 67.66308,-57.5247 -29.26579,-12.2977 -67.5305,15.845 -65.74991,-5.32 z"
           id="path948"
           transform="matrix(-1.8930295,0.22886884,-0.10286903,-0.8508546,3832.2403,3882.7953)" />
      </g>
    </g>
  </g>
  <g
     style="display:inline"
     transform="translate(-2164.4898,2453.243)"
     id="layer1">
    <g
       id="g1022"
       style="display:inline;fill:url(#radialGradient929);fill-opacity:1"
       transform="matrix(7.3865196,0,0,9.0499447,-978.84535,-1660.4548)">
      <path
         d="m 774.196,86.367889 c -1.97476,6.89664 -6.69857,10.3449 -14.17158,10.34491 l -13.35839,10e-6 -10.91905,33.620911 h -20.79263 l 10.91904,-33.620911 h -17.83061 c -19.51486,26.207091 -38.5844,39.310681 -57.20879,39.310681 -5.4208,0 -9.98972,-1.12075 -13.70685,-3.36216 -4.68512,-2.84479 -7.02768,-7.02591 -7.02768,-12.54316 0,-4.6983 1.74243,-9.28885 5.22723,-13.77166 5.61436,-7.198341 14.1134,-12.521641 25.49711,-15.969921 8.90559,-2.67246 18.74042,-4.00869 29.50458,-4.00869 h 11.26757 l 42.33236,-67.60481 h 27.99456 l -22.1205,67.60481 z m -25.85366,-56.87201 -32.57488,56.87202 h 12.95184 z m -54.5872,67.21693 c -14.51995,0 -24.70333,2.32762 -30.5501,6.982861 -4.84001,3.87932 -7.26002,7.99568 -7.26002,12.34921 0,3.70691 1.74243,5.56032 5.22723,5.56032 4.80125,0 10.80292,-3.01722 18.00483,-9.05175 6.31136,-5.21556 11.17072,-10.4958 14.57806,-15.840641 z"
         style="font-style:normal;font-variant:normal;font-weight:bold;font-stretch:semi-expanded;font-size:15.43614483px;line-height:1.15000629em;font-family:Magneto;-inkscape-font-specification:'Magneto, Bold Semi-Expanded';font-variant-ligatures:normal;font-variant-caps:normal;font-variant-numeric:normal;font-feature-settings:normal;text-align:center;letter-spacing:0px;word-spacing:-0.16933332px;writing-mode:lr-tb;text-anchor:middle;fill:url(#radialGradient921);fill-opacity:1;stroke:#800080;stroke-width:3.53253627;stroke-miterlimit:4;stroke-dasharray:none;stroke-opacity:1;paint-order:fill markers stroke"
         id="path1210" />
      <path
         d="m 819.29404,86.367889 q -1.45201,5.68977 -6.67915,8.4053 -3.65911,1.93962 -7.84081,1.93962 h -22.36085 q -8.59582,0 -8.59582,-6.53018 0,-1.68107 0.63881,-3.81474 l 21.54765,-67.62977 h 20.56031 l -21.66378,67.62977 z"
         style="font-style:normal;font-variant:normal;font-weight:bold;font-stretch:semi-expanded;font-size:15.43614483px;line-height:1.15000629em;font-family:Magneto;-inkscape-font-specification:'Magneto, Bold Semi-Expanded';font-variant-ligatures:normal;font-variant-caps:normal;font-variant-numeric:normal;font-feature-settings:normal;text-align:center;letter-spacing:0px;word-spacing:-0.16933332px;writing-mode:lr-tb;text-anchor:middle;fill:url(#radialGradient923);fill-opacity:1;stroke:#800080;stroke-width:3.53253627;stroke-miterlimit:4;stroke-dasharray:none;stroke-opacity:1;paint-order:fill markers stroke"
         id="path1212" />
      <path
         d="m 863.89945,86.367889 q -1.452,5.68977 -6.67915,8.4053 -3.65902,1.93962 -7.84081,1.93962 h -22.36077 q -8.5959,0 -8.5959,-6.53018 0,-1.68107 0.63881,-3.81474 l 21.54774,-67.62977 h 20.56031 l -21.66387,67.62977 z"
         style="font-style:normal;font-variant:normal;font-weight:bold;font-stretch:semi-expanded;font-size:15.43614483px;line-height:1.15000629em;font-family:Magneto;-inkscape-font-specification:'Magneto, Bold Semi-Expanded';font-variant-ligatures:normal;font-variant-caps:normal;font-variant-numeric:normal;font-feature-settings:normal;text-align:center;letter-spacing:0px;word-spacing:-0.16933332px;writing-mode:lr-tb;text-anchor:middle;fill:url(#radialGradient925);fill-opacity:1;stroke:#800080;stroke-width:3.53253627;stroke-miterlimit:4;stroke-dasharray:none;stroke-opacity:1;paint-order:fill markers stroke"
         id="path1214" />
      <path
         d="m 940.85551,86.367889 c -2.28445,6.89665 -6.56302,10.34492 -12.8357,10.34492 H 913.8483 c -3.36859,10.172491 -6.91148,19.613261 -10.62861,24.527121 -5.18855,6.81035 -11.63537,10.21556 -19.34063,10.21556 -4.84002,0 -8.57648,-1.57324 -11.20948,-4.71982 -2.28446,-2.75867 -3.42669,-6.3147 -3.42669,-10.66824 0,-3.44827 0.65808,-8.6864 1.97469,-11.91919 1.35521,-3.23278 3.11692,-5.711301 5.28525,-7.435431 h -4.41404 c -2.55555,0 -4.68512,-0.86202 -6.3888,-2.58617 -1.66499,-1.76729 -2.49745,-3.96562 -2.49745,-6.59494 0,-1.20686 0.19341,-2.43536 0.58102,-3.68538 l 10.10593,-31.09933 h 21.08307 l -10.86102,33.6209 h 11.79026 l 10.68671,-33.6209 h 20.96687 l -10.68672,33.6209 z m -48.61296,12.09067 c -2.55548,0 -4.9368,1.594871 -7.14382,4.784511 -2.16833,3.23279 -3.25255,8.34164 -3.25255,11.53129 0,2.8448 1.12289,5.12934 3.36867,6.85349 z"
         style="font-style:normal;font-variant:normal;font-weight:bold;font-stretch:semi-expanded;font-size:15.43614483px;line-height:1.15000629em;font-family:Magneto;-inkscape-font-specification:'Magneto, Bold Semi-Expanded';font-variant-ligatures:normal;font-variant-caps:normal;font-variant-numeric:normal;font-feature-settings:normal;text-align:center;letter-spacing:0px;word-spacing:-0.16933332px;writing-mode:lr-tb;text-anchor:middle;fill:url(#radialGradient927);fill-opacity:1;stroke:#800080;stroke-width:3.53253627;stroke-miterlimit:4;stroke-dasharray:none;stroke-opacity:1;paint-order:fill markers stroke"
         id="path1216" />
    </g>
    <g
       transform="matrix(1,0,0,1.2030809,2.4734884e-5,287.10209)"
       id="g1056">
      <path
         id="path1219"
         style="font-style:normal;font-variant:normal;font-weight:normal;font-stretch:normal;font-size:15.43614483px;line-height:1.15000629em;font-family:'Snap ITC';-inkscape-font-specification:'Snap ITC, Normal';font-variant-ligatures:normal;font-variant-caps:normal;font-variant-numeric:normal;font-feature-settings:normal;text-align:center;letter-spacing:0px;word-spacing:-0.16933332px;writing-mode:lr-tb;text-anchor:middle;fill:url(#radialGradient905);fill-opacity:1;stroke:#800080;stroke-width:26.09314919;stroke-miterlimit:4;stroke-dasharray:none;stroke-opacity:1;paint-order:fill markers stroke"
         d="m 2697.8061,-1981.6262 -59.6324,-150.205 -57.9163,185.2152 z m 346.2101,216.0843 -374.0959,101.6425 95.6689,-112.5597 -27.0274,-83.1961 -138.9992,9.4113 -40.3265,97.125 60.4901,41.4098 -406.7008,25.5989 99.1012,-64.75 131.7061,-449.4855 -74.6476,-42.5392 504.5145,14.6816 -117.5487,36.8925 206.3538,404.311 z" />
      <path
         id="path1221"
         style="font-style:normal;font-variant:normal;font-weight:normal;font-stretch:normal;font-size:15.43614483px;line-height:1.15000629em;font-family:'Snap ITC';-inkscape-font-specification:'Snap ITC, Normal';font-variant-ligatures:normal;font-variant-caps:normal;font-variant-numeric:normal;font-feature-settings:normal;text-align:center;letter-spacing:0px;word-spacing:-0.16933332px;writing-mode:lr-tb;text-anchor:middle;fill:url(#radialGradient907);fill-opacity:1;stroke:#800080;stroke-width:26.09314919;stroke-miterlimit:4;stroke-dasharray:none;stroke-opacity:1;paint-order:fill markers stroke"
         d="m 3548.9598,-2248.1553 -100.8166,150.205 q -10.7253,-16.1875 -26.5989,-24.0931 -15.4444,-8.2819 -36.0366,-8.2819 -30.8888,0 -44.6171,21.4578 -13.2991,21.4579 -13.2991,70.3968 0,8.6584 0,14.3053 0.455,5.6468 1.2863,10.9171 l 116.2617,-3.7644 87.9468,-65.5029 -36.0366,212.6962 -74.6476,-64.75 -83.2282,9.4113 q 9.0091,55.3387 21.4505,106.1599 12.4414,50.4448 28.315,96.7486 l 86.2306,33.8808 -382.2472,14.6817 98.672,-63.2443 q -19.3053,-70.0202 -28.7436,-106.1598 -9.4383,-36.516 -15.4444,-61.3619 l -49.3357,6.3997 -60.4902,73.032 -31.7471,-239.048 62.6354,57.2209 56.2002,-1.5059 q -4.2918,-26.3517 -6.864,-51.1977 -2.1457,-24.8459 -2.1457,-47.4331 0,-69.6439 45.4748,-105.407 45.4749,-35.7631 132.9931,-35.7631 42.0427,0 82.3699,10.5407 40.7557,10.1643 78.5084,30.1163 z" />
      <path
         id="path1223"
         style="font-style:normal;font-variant:normal;font-weight:normal;font-stretch:normal;font-size:15.43614483px;line-height:1.15000629em;font-family:'Snap ITC';-inkscape-font-specification:'Snap ITC, Normal';font-variant-ligatures:normal;font-variant-caps:normal;font-variant-numeric:normal;font-feature-settings:normal;text-align:center;letter-spacing:0px;word-spacing:-0.16933332px;writing-mode:lr-tb;text-anchor:middle;fill:url(#radialGradient909);fill-opacity:1;stroke:#800080;stroke-width:26.09314919;stroke-miterlimit:4;stroke-dasharray:none;stroke-opacity:1;paint-order:fill markers stroke"
         d="m 4093.3723,-2248.1553 -100.8167,150.205 q -10.7253,-16.1875 -26.5988,-24.0931 -15.4444,-8.2819 -36.0366,-8.2819 -30.8888,0 -44.6171,21.4578 -13.2991,21.4579 -13.2991,70.3968 0,8.6584 0,14.3053 0.455,5.6468 1.2863,10.9171 l 116.2617,-3.7644 87.9468,-65.5029 -36.0366,212.6962 -74.6476,-64.75 -83.2282,9.4113 q 9.0091,55.3387 21.4505,106.1599 12.4413,50.4448 28.315,96.7486 l 86.2306,33.8808 -382.2472,14.6817 98.672,-63.2443 q -19.3053,-70.0202 -28.7436,-106.1598 -9.4383,-36.516 -15.4444,-61.3619 l -49.3357,6.3997 -60.4902,73.032 -31.7472,-239.048 62.6355,57.2209 56.2002,-1.5059 q -4.2918,-26.3517 -6.864,-51.1977 -2.1458,-24.8459 -2.1458,-47.4331 0,-69.6439 45.4749,-105.407 45.4755,-35.7631 132.9931,-35.7631 42.0427,0 82.3699,10.5407 40.7557,10.1643 78.5084,30.1163 z" />
      <path
         id="path1225"
         style="font-style:normal;font-variant:normal;font-weight:normal;font-stretch:normal;font-size:15.43614483px;line-height:1.15000629em;font-family:'Snap ITC';-inkscape-font-specification:'Snap ITC, Normal';font-variant-ligatures:normal;font-variant-caps:normal;font-variant-numeric:normal;font-feature-settings:normal;text-align:center;letter-spacing:0px;word-spacing:-0.16933332px;writing-mode:lr-tb;text-anchor:middle;fill:url(#radialGradient911);fill-opacity:1;stroke:#800080;stroke-width:26.09314919;stroke-miterlimit:4;stroke-dasharray:none;stroke-opacity:1;paint-order:fill markers stroke"
         d="m 4321.1767,-1992.9198 q -11.1545,11.2936 -16.3022,24.093 -5.1512,12.7995 -5.1512,29.7399 0,33.1278 24.4535,55.7151 24.8828,22.2107 60.9193,22.2107 12.87,0 26.5983,-4.5176 13.7284,-4.8937 27.8858,-13.9288 -27.4566,-44.4215 -57.4871,-72.6555 -29.6019,-28.6105 -60.9193,-40.657 z m 300.3065,-78.6788 -63.0645,25.2224 12.8699,315.468 49.3363,33.128 -188.7641,20.7049 32.1758,-114.8183 q -39.4688,56.8445 -91.379,85.8314 -51.4809,28.9869 -112.4003,28.9869 -72.9315,0 -123.1256,-52.3271 -49.7649,-52.7034 -49.7649,-130.2528 0,-99.0073 53.6258,-162.628 53.6262,-63.9971 135.1383,-63.9971 61.7771,0 108.539,28.6105 47.1909,28.234 79.3667,84.702 l -27.0274,-116.3241 z" />
      <path
         id="path1227"
         style="font-style:normal;font-variant:normal;font-weight:normal;font-stretch:normal;font-size:15.43614483px;line-height:1.15000629em;font-family:'Snap ITC';-inkscape-font-specification:'Snap ITC, Normal';font-variant-ligatures:normal;font-variant-caps:normal;font-variant-numeric:normal;font-feature-settings:normal;text-align:center;letter-spacing:0px;word-spacing:-0.16933332px;writing-mode:lr-tb;text-anchor:middle;fill:url(#radialGradient913);fill-opacity:1;stroke:#800080;stroke-width:26.09314919;stroke-miterlimit:4;stroke-dasharray:none;stroke-opacity:1;paint-order:fill markers stroke"
         d="m 4796.0898,-1882.6189 q 7.7222,11.67 20.5922,17.3168 13.2991,5.6469 32.1757,5.6469 33.4628,0 58.7741,-25.2224 25.7405,-25.2224 25.7405,-57.9739 0,-12.7994 -5.5781,-24.4695 -5.1454,-11.67 -17.5891,-24.8459 -39.898,18.4462 -68.6415,45.9273 -28.7436,27.4811 -45.4749,63.6207 z m 53.6257,-336.173 -68.6409,234.1541 q 47.191,-49.3154 93.9528,-73.032 47.191,-24.093 97.8143,-24.093 78.0793,0 133.4217,51.5741 55.3418,51.1977 55.3418,124.2296 0,90.7254 -78.5085,149.4521 -78.5084,58.3503 -214.0754,68.1381 l -241.532,16.9404 68.641,-54.9622 -14.1569,-476.9666 -51.0524,-25.5989 279.2852,-17.6932 z" />
      <path
         id="path1229"
         style="font-style:normal;font-variant:normal;font-weight:normal;font-stretch:normal;font-size:15.43614483px;line-height:1.15000629em;font-family:'Snap ITC';-inkscape-font-specification:'Snap ITC, Normal';font-variant-ligatures:normal;font-variant-caps:normal;font-variant-numeric:normal;font-feature-settings:normal;text-align:center;letter-spacing:0px;word-spacing:-0.16933332px;writing-mode:lr-tb;text-anchor:middle;fill:url(#radialGradient915);fill-opacity:1;stroke:#800080;stroke-width:26.09314919;stroke-miterlimit:4;stroke-dasharray:none;stroke-opacity:1;paint-order:fill markers stroke"
         d="m 5518.5411,-1686.8631 -356.9359,15.4346 98.2434,-49.3154 -7.7222,-432.5451 -88.8051,-13.9288 336.7723,-83.1962 -78.5089,532.6818 z" />
      <path
         id="path1231"
         style="font-style:normal;font-variant:normal;font-weight:normal;font-stretch:normal;font-size:15.43614483px;line-height:1.15000629em;font-family:'Snap ITC';-inkscape-font-specification:'Snap ITC, Normal';font-variant-ligatures:normal;font-variant-caps:normal;font-variant-numeric:normal;font-feature-settings:normal;text-align:center;letter-spacing:0px;word-spacing:-0.16933332px;writing-mode:lr-tb;text-anchor:middle;fill:url(#radialGradient917);fill-opacity:1;stroke:#800080;stroke-width:26.09314919;stroke-miterlimit:4;stroke-dasharray:none;stroke-opacity:1;paint-order:fill markers stroke"
         d="m 5639.5214,-1943.6044 q 13.7283,9.7878 32.1758,15.4346 18.4474,5.2703 37.7527,5.2703 33.8919,0 55.3424,-17.3168 21.4505,-17.3169 21.4505,-44.4215 0,-13.1759 -4.2917,-23.7166 -4.2917,-10.5407 -13.2997,-19.952 -45.9036,6.0232 -78.5085,27.4811 -32.1757,21.0814 -50.6232,57.2209 z m 426.8644,268.4113 -38.611,-62.4912 q -57.0579,31.6221 -114.1164,47.0567 -57.058,15.4345 -117.9773,15.4345 -118.8356,0 -190.4802,-51.574 -71.2153,-51.9507 -71.2153,-137.4056 0,-45.1744 19.3051,-86.9608 19.7345,-42.1627 55.3424,-73.4084 34.3205,-30.1163 79.3669,-45.5509 45.4748,-15.4345 99.9589,-15.4345 104.2489,0 172.0327,39.5275 67.7832,39.5277 67.7832,99.3838 0,60.2326 -62.6354,100.8895 -62.2063,40.657 -156.1592,40.657 -23.1666,0 -43.3302,-3.0118 -20.163,-3.3878 -38.6104,-9.7877 40.3265,24.093 78.9376,35.7631 39.0396,11.2935 80.2246,11.2935 50.194,0 92.2373,-19.5755 42.0427,-19.5756 72.0731,-56.8445 z" />
    </g>
  </g>
  <g
     transform="translate(-42.556283,-882.55843)"
     id="layer3">
    <rect
       y="-2543.5139"
       x="2124.4595"
       height="2415.425"
       width="3994.9482"
       id="rect1567"
       style="display:none;opacity:1;vector-effect:none;fill:#000000;fill-opacity:0;fill-rule:nonzero;stroke:#ff0000;stroke-width:5.05179596;stroke-linecap:round;stroke-linejoin:round;stroke-miterlimit:4;stroke-dasharray:none;stroke-dashoffset:0;stroke-opacity:1;paint-order:markers fill stroke"
       transform="translate(-2121.9335,3335.8014)" />
  </g>
</svg>
