<?xml version="1.0" encoding="UTF-8" standalone="no"?>
<!-- Created with Inkscape (http://www.inkscape.org/) -->

<svg
   xmlns:dc="http://purl.org/dc/elements/1.1/"
   xmlns:cc="http://creativecommons.org/ns#"
   xmlns:rdf="http://www.w3.org/1999/02/22-rdf-syntax-ns#"
   xmlns:svg="http://www.w3.org/2000/svg"
   xmlns="http://www.w3.org/2000/svg"
   xmlns:xlink="http://www.w3.org/1999/xlink"
   xmlns:sodipodi="http://sodipodi.sourceforge.net/DTD/sodipodi-0.dtd"
   xmlns:inkscape="http://www.inkscape.org/namespaces/inkscape"
   width="4000"
   height="2402"
   viewBox="0 0 4000 2402"
   version="1.1"
   id="svg8"
   inkscape:version="0.92.4 (5da689c313, 2019-01-14)"
   sodipodi:docname="logo.svg"
   inkscape:export-filename="C:\Users\Matt\Workspace\affableally.com\source\images\logo.png"
   inkscape:export-xdpi="19.200001"
   inkscape:export-ydpi="19.200001">
  <defs
     id="defs2">
    <linearGradient
       id="linearGradient838"
       inkscape:collect="always">
      <stop
         id="stop834"
         offset="0"
         style="stop-color:#ff00ff;stop-opacity:1;" />
      <stop
         id="stop836"
         offset="1"
         style="stop-color:#ffaaff;stop-opacity:1" />
    </linearGradient>
    <radialGradient
       inkscape:collect="always"
       xlink:href="#linearGradient838"
       id="radialGradient827"
       cx="57.282288"
       cy="139.57292"
       fx="57.282288"
       fy="139.57292"
       r="22.357292"
       gradientTransform="matrix(1,0,0,0.88165678,0,16.517509)"
       gradientUnits="userSpaceOnUse"
       spreadMethod="reflect" />
    <linearGradient
       inkscape:collect="always"
       xlink:href="#linearGradient855"
       id="linearGradient857"
       x1="656.02112"
       y1="5.126708"
       x2="1119.3142"
       y2="-280.5444"
       gradientUnits="userSpaceOnUse"
       gradientTransform="matrix(1.0026941,0,0,1.0787101,-11.720855,-41.651881)" />
    <linearGradient
       inkscape:collect="always"
       id="linearGradient855">
      <stop
         style="stop-color:#ffffff;stop-opacity:1;"
         offset="0"
         id="stop851" />
      <stop
         style="stop-color:#ffffff;stop-opacity:0.52688169"
         offset="1"
         id="stop853" />
    </linearGradient>
    <linearGradient
       inkscape:collect="always"
       xlink:href="#linearGradient1071"
       id="linearGradient1077"
       x1="430.56122"
       y1="280.29828"
       x2="590.97107"
       y2="136.29828"
       gradientUnits="userSpaceOnUse"
       gradientTransform="matrix(1.0026941,0,0,1.0787101,-1.6940134,-45.966689)" />
    <linearGradient
       inkscape:collect="always"
       id="linearGradient1071">
      <stop
         style="stop-color:#000000;stop-opacity:1;"
         offset="0"
         id="stop1067" />
      <stop
         style="stop-color:#000000;stop-opacity:0.14117648"
         offset="1"
         id="stop1069" />
    </linearGradient>
    <linearGradient
       inkscape:collect="always"
       xlink:href="#linearGradient1071"
       id="linearGradient1049"
       gradientUnits="userSpaceOnUse"
       gradientTransform="matrix(0.45981717,0,0,0.56510986,409.21019,-146.42449)"
       x1="430.56122"
       y1="280.29828"
       x2="590.97107"
       y2="136.29828" />
    <linearGradient
       inkscape:collect="always"
       xlink:href="#linearGradient1071"
       id="linearGradient1081"
       gradientUnits="userSpaceOnUse"
       gradientTransform="matrix(0.49905804,0,0,0.89815325,24.230375,-686.85509)"
       x1="430.56122"
       y1="280.29828"
       x2="476.01208"
       y2="188.9028" />
  </defs>
  <sodipodi:namedview
     id="base"
     pagecolor="#ffffff"
     bordercolor="#666666"
     borderopacity="1.0"
     inkscape:pageopacity="0.0"
     inkscape:pageshadow="2"
     inkscape:zoom="0.33638634"
     inkscape:cx="2000"
     inkscape:cy="1201"
     inkscape:document-units="px"
     inkscape:current-layer="g2091"
     showgrid="false"
     inkscape:window-width="1920"
     inkscape:window-height="1001"
     inkscape:window-x="-9"
     inkscape:window-y="-9"
     inkscape:window-maximized="1"
     showguides="true"
     inkscape:guide-bbox="true"
     fit-margin-top="200"
     fit-margin-left="200"
     fit-margin-right="200"
     fit-margin-bottom="200"
     units="px"
     inkscape:pagecheckerboard="true" />
  <metadata
     id="metadata5">
    <rdf:RDF>
      <cc:Work
         rdf:about="">
        <dc:format>image/svg+xml</dc:format>
        <dc:type
           rdf:resource="http://purl.org/dc/dcmitype/StillImage" />
        <dc:title />
      </cc:Work>
    </rdf:RDF>
  </metadata>
  <g
     inkscape:label="Layer 1"
     inkscape:groupmode="layer"
     id="layer1"
     transform="translate(-2121.9335,1737.8014)">
    <g
       id="g2091"
       transform="matrix(6.6734471,0,0,7.5051013,-384.37876,-1801.3846)">
      <g
         id="g968"
         transform="translate(1.6258782,-1.4485247)">
        <g
           style="stroke-width:3.65177679;stroke-miterlimit:4;stroke-dasharray:none;paint-order:fill markers stroke"
           transform="matrix(1.025854,0,0,0.91217724,282.06925,-6.4271039)"
           id="g998">
          <g
             aria-label="Affable"
             style="font-style:normal;font-variant:normal;font-weight:normal;font-stretch:normal;font-size:15.43622875px;line-height:1.14999998em;font-family:Forte;-inkscape-font-specification:'Forte, Normal';font-variant-ligatures:normal;font-variant-caps:normal;font-variant-numeric:normal;font-feature-settings:normal;text-align:center;letter-spacing:0px;word-spacing:-0.16933332px;writing-mode:lr-tb;text-anchor:middle;fill:#ff00ff;fill-opacity:1;stroke:#800080;stroke-width:0.48938024;stroke-miterlimit:4;stroke-dasharray:none;stroke-opacity:1;paint-order:fill markers stroke"
             id="text876"
             transform="matrix(7.5115961,0,0,7.4128187,-695.4827,-576.67566)">
            <path
               inkscape:connector-curvature="0"
               d="m 117.94524,90.285481 -1.04767,-3.007335 -1.01752,3.708293 z m 6.0825,4.326342 -6.57242,2.035038 1.68079,-2.253617 -0.47484,-1.665716 -2.44205,0.188429 -0.70849,1.944593 1.06274,0.829089 -7.14525,0.512529 1.74109,-1.296395 2.31392,-8.999393 -1.31147,-0.851702 8.86372,0.29395 -2.06519,0.738644 3.62539,8.094931 z"
               style="font-style:normal;font-variant:normal;font-weight:normal;font-stretch:normal;font-size:15.43614483px;font-family:'Snap ITC';-inkscape-font-specification:'Snap ITC, Normal';font-variant-ligatures:normal;font-variant-caps:normal;font-variant-numeric:normal;font-feature-settings:normal;text-align:center;writing-mode:lr-tb;text-anchor:middle;fill:#ff00ff;fill-opacity:1;stroke:#800080;stroke-width:0.48938024;stroke-miterlimit:4;stroke-dasharray:none;stroke-opacity:1;paint-order:fill markers stroke"
               id="path1219" />
            <path
               inkscape:connector-curvature="0"
               d="m 132.899,84.949158 -1.77123,3.007335 q -0.18843,-0.324099 -0.46731,-0.48238 -0.27134,-0.165818 -0.63312,-0.165818 -0.54268,0 -0.78387,0.429619 -0.23365,0.42962 -0.23365,1.409453 0,0.173355 0,0.286413 0.008,0.113058 0.0226,0.218578 l 2.04258,-0.07537 1.54512,-1.311469 -0.63312,4.258507 -1.31147,-1.296395 -1.46222,0.188429 q 0.15828,1.107966 0.37686,2.125485 0.21858,1.009982 0.49746,1.937055 l 1.51497,0.678347 -6.71563,0.29395 1.73355,-1.266247 q -0.33917,-1.401915 -0.50499,-2.125484 -0.16582,-0.731107 -0.27134,-1.228561 l -0.86677,0.128132 -1.06274,1.462213 -0.55776,-4.786109 1.10043,1.145651 0.98737,-0.03015 q -0.0754,-0.527603 -0.12059,-1.025057 -0.0377,-0.497454 -0.0377,-0.949685 0,-1.394378 0.79894,-2.11041 0.79894,-0.716032 2.33653,-0.716032 0.73864,0 1.44714,0.211041 0.71603,0.203504 1.3793,0.602974 z"
               style="font-style:normal;font-variant:normal;font-weight:normal;font-stretch:normal;font-size:15.43614483px;font-family:'Snap ITC';-inkscape-font-specification:'Snap ITC, Normal';font-variant-ligatures:normal;font-variant-caps:normal;font-variant-numeric:normal;font-feature-settings:normal;text-align:center;writing-mode:lr-tb;text-anchor:middle;fill:#ff00ff;fill-opacity:1;stroke:#800080;stroke-width:0.48938024;stroke-miterlimit:4;stroke-dasharray:none;stroke-opacity:1;paint-order:fill markers stroke"
               id="path1221" />
            <path
               inkscape:connector-curvature="0"
               d="m 142.46368,84.949158 -1.77123,3.007335 q -0.18843,-0.324099 -0.46731,-0.48238 -0.27134,-0.165818 -0.63312,-0.165818 -0.54268,0 -0.78387,0.429619 -0.23365,0.42962 -0.23365,1.409453 0,0.173355 0,0.286413 0.008,0.113058 0.0226,0.218578 l 2.04258,-0.07537 1.54512,-1.311469 -0.63312,4.258507 -1.31147,-1.296395 -1.46222,0.188429 q 0.15828,1.107966 0.37686,2.125485 0.21858,1.009982 0.49746,1.937055 l 1.51497,0.678347 -6.71563,0.29395 1.73355,-1.266247 q -0.33917,-1.401915 -0.50499,-2.125484 -0.16582,-0.731107 -0.27134,-1.228561 l -0.86677,0.128132 -1.06274,1.462213 -0.55776,-4.786109 1.10043,1.145651 0.98737,-0.03015 q -0.0754,-0.527603 -0.12059,-1.025057 -0.0377,-0.497454 -0.0377,-0.949685 0,-1.394378 0.79894,-2.11041 0.79895,-0.716032 2.33653,-0.716032 0.73864,0 1.44714,0.211041 0.71603,0.203504 1.3793,0.602974 z"
               style="font-style:normal;font-variant:normal;font-weight:normal;font-stretch:normal;font-size:15.43614483px;font-family:'Snap ITC';-inkscape-font-specification:'Snap ITC, Normal';font-variant-ligatures:normal;font-variant-caps:normal;font-variant-numeric:normal;font-feature-settings:normal;text-align:center;writing-mode:lr-tb;text-anchor:middle;fill:#ff00ff;fill-opacity:1;stroke:#800080;stroke-width:0.48938024;stroke-miterlimit:4;stroke-dasharray:none;stroke-opacity:1;paint-order:fill markers stroke"
               id="path1223" />
            <path
               inkscape:connector-curvature="0"
               d="m 146.46593,90.059366 q -0.19597,0.226115 -0.28641,0.482379 -0.0905,0.256265 -0.0905,0.595438 0,0.663271 0.42962,1.115502 0.43716,0.444694 1.07028,0.444694 0.22611,0 0.4673,-0.09045 0.24119,-0.09798 0.48992,-0.278876 -0.48238,-0.889387 -1.00998,-1.454676 -0.52007,-0.572825 -1.07028,-0.814015 z m 5.27603,-1.575271 -1.10797,0.504991 0.22611,6.316157 0.86678,0.663272 -3.31636,0.414545 0.56529,-2.29884 q -0.69342,1.138114 -1.60542,1.718477 -0.90446,0.580363 -1.97474,0.580363 -1.28132,0 -2.16317,-1.047668 -0.87431,-1.055205 -0.87431,-2.607864 0,-1.982279 0.94214,-3.256062 0.94215,-1.281321 2.37422,-1.281321 1.08535,0 1.9069,0.572826 0.82909,0.565288 1.39438,1.695865 l -0.47484,-2.328988 z"
               style="font-style:normal;font-variant:normal;font-weight:normal;font-stretch:normal;font-size:15.43614483px;font-family:'Snap ITC';-inkscape-font-specification:'Snap ITC, Normal';font-variant-ligatures:normal;font-variant-caps:normal;font-variant-numeric:normal;font-feature-settings:normal;text-align:center;writing-mode:lr-tb;text-anchor:middle;fill:#ff00ff;fill-opacity:1;stroke:#800080;stroke-width:0.48938024;stroke-miterlimit:4;stroke-dasharray:none;stroke-opacity:1;paint-order:fill markers stroke"
               id="path1225" />
            <path
               inkscape:connector-curvature="0"
               d="m 154.80959,92.26776 q 0.13567,0.233652 0.36178,0.34671 0.23365,0.113058 0.56529,0.113058 0.5879,0 1.03259,-0.504991 0.45223,-0.504991 0.45223,-1.160726 0,-0.256264 -0.098,-0.489917 -0.0904,-0.233652 -0.30902,-0.497454 -0.70096,0.369322 -1.20595,0.919536 -0.50499,0.550214 -0.79894,1.273784 z m 0.94214,-6.730702 -1.20594,4.688126 q 0.82909,-0.987371 1.65064,-1.462213 0.82909,-0.48238 1.71848,-0.48238 1.37176,0 2.34406,1.032594 0.97229,1.025057 0.97229,2.487269 0,1.816461 -1.3793,2.992261 -1.3793,1.168263 -3.76105,1.36423 l -4.24343,0.339173 1.20594,-1.100429 -0.24872,-9.549607 -0.89693,-0.512528 4.90671,-0.354247 z"
               style="font-style:normal;font-variant:normal;font-weight:normal;font-stretch:normal;font-size:15.43614483px;font-family:'Snap ITC';-inkscape-font-specification:'Snap ITC, Normal';font-variant-ligatures:normal;font-variant-caps:normal;font-variant-numeric:normal;font-feature-settings:normal;text-align:center;writing-mode:lr-tb;text-anchor:middle;fill:#ff00ff;fill-opacity:1;stroke:#800080;stroke-width:0.48938024;stroke-miterlimit:4;stroke-dasharray:none;stroke-opacity:1;paint-order:fill markers stroke"
               id="path1227" />
            <path
               inkscape:connector-curvature="0"
               d="m 167.5022,96.187093 -6.27094,0.309025 1.72602,-0.987371 -0.13567,-8.66022 -1.5602,-0.278875 5.91669,-1.665717 -1.37931,10.66511 z"
               style="font-style:normal;font-variant:normal;font-weight:normal;font-stretch:normal;font-size:15.43614483px;font-family:'Snap ITC';-inkscape-font-specification:'Snap ITC, Normal';font-variant-ligatures:normal;font-variant-caps:normal;font-variant-numeric:normal;font-feature-settings:normal;text-align:center;writing-mode:lr-tb;text-anchor:middle;fill:#ff00ff;fill-opacity:1;stroke:#800080;stroke-width:0.48938024;stroke-miterlimit:4;stroke-dasharray:none;stroke-opacity:1;paint-order:fill markers stroke"
               id="path1229" />
            <path
               inkscape:connector-curvature="0"
               d="m 169.62768,91.046736 q 0.24119,0.195967 0.56529,0.309025 0.3241,0.10552 0.66327,0.10552 0.59544,0 0.9723,-0.34671 0.37686,-0.34671 0.37686,-0.889387 0,-0.263801 -0.0754,-0.474842 -0.0754,-0.211042 -0.23366,-0.399471 -0.80647,0.120595 -1.3793,0.550214 -0.56529,0.422082 -0.88939,1.145651 z m 7.4995,5.37401 -0.67835,-1.251172 q -1.00244,0.633123 -2.00489,0.942148 -1.00244,0.309024 -2.07272,0.309024 -2.0878,0 -3.34651,-1.032594 -1.25117,-1.040131 -1.25117,-2.751071 0,-0.904461 0.33917,-1.741088 0.34671,-0.844164 0.9723,-1.46975 0.60297,-0.602975 1.39438,-0.911999 0.79894,-0.309024 1.75616,-0.309024 1.83153,0 3.02241,0.791403 1.19087,0.791404 1.19087,1.989816 0,1.205949 -1.10043,2.019964 -1.09289,0.814016 -2.74353,0.814016 -0.40701,0 -0.76126,-0.0603 -0.35424,-0.06783 -0.67834,-0.195966 0.70849,0.482379 1.38684,0.716032 0.68588,0.226115 1.40945,0.226115 0.88185,0 1.6205,-0.391933 0.73864,-0.391934 1.26624,-1.138114 z"
               style="font-style:normal;font-variant:normal;font-weight:normal;font-stretch:normal;font-size:15.43614483px;font-family:'Snap ITC';-inkscape-font-specification:'Snap ITC, Normal';font-variant-ligatures:normal;font-variant-caps:normal;font-variant-numeric:normal;font-feature-settings:normal;text-align:center;writing-mode:lr-tb;text-anchor:middle;fill:#ff00ff;fill-opacity:1;stroke:#800080;stroke-width:0.48938024;stroke-miterlimit:4;stroke-dasharray:none;stroke-opacity:1;paint-order:fill markers stroke"
               id="path1231" />
          </g>
          <g
             style="stroke-width:3.65177679;stroke-miterlimit:4;stroke-dasharray:none;paint-order:fill markers stroke"
             id="g1370"
             transform="translate(-41.209158,-0.00481521)">
            <path
               sodipodi:nodetypes="cscccccscsccscccccccccccsscc"
               inkscape:connector-curvature="0"
               d="m 519.34822,235.8607 c -1.92499,7.56063 -6.52975,11.34089 -13.81442,11.3409 l -13.02173,10e-6 -10.64386,36.85787 H 461.5996 l 10.64386,-36.85787 h -17.38124 c -19.02304,28.73026 -37.61198,43.09544 -55.76699,43.09544 -5.28418,0 -9.73795,-1.22865 -13.3614,-3.68586 -4.56705,-3.11869 -6.85057,-7.70235 -6.85057,-13.7508 0,-5.15064 1.69852,-10.18316 5.09549,-15.09757 5.47287,-7.89138 13.75771,-13.7272 24.85452,-17.50747 8.68115,-2.92976 18.26812,-4.39464 28.761,-4.39464 h 10.9836 l 41.26548,-74.11368 h 27.28903 l -21.56301,74.11368 z m -25.20208,-62.34755 -31.75392,62.34756 h 12.62542 z m -53.21147,73.68846 c -14.15402,0 -24.08075,2.55172 -29.78017,7.65515 -4.71803,4.25282 -7.07705,8.76549 -7.07705,13.53817 0,4.06381 1.69852,6.09566 5.09549,6.09566 4.68025,0 10.53066,-3.30771 17.55107,-9.92323 6.1523,-5.71771 10.88919,-11.50632 14.21066,-17.36575 z"
               style="font-style:normal;font-variant:normal;font-weight:bold;font-stretch:semi-expanded;font-size:15.43614483px;line-height:1.15000629em;font-family:Magneto;-inkscape-font-specification:'Magneto, Bold Semi-Expanded';font-variant-ligatures:normal;font-variant-caps:normal;font-variant-numeric:normal;font-feature-settings:normal;text-align:center;letter-spacing:0px;word-spacing:-0.16933332px;writing-mode:lr-tb;text-anchor:middle;fill:#ff00ff;fill-opacity:1;stroke:#800080;stroke-width:3.65177679;stroke-miterlimit:4;stroke-dasharray:none;stroke-opacity:1;paint-order:fill markers stroke"
               id="path1210" />
            <path
               inkscape:connector-curvature="0"
               d="m 563.30968,235.8607 q -1.41541,6.23757 -6.51082,9.21454 -3.56689,2.12637 -7.6432,2.12637 h -21.7973 q -8.37919,0 -8.37919,-7.15889 0,-1.84293 0.62271,-4.18202 l 21.0046,-74.14104 h 20.04214 l -21.1178,74.14104 z"
               style="font-style:normal;font-variant:normal;font-weight:bold;font-stretch:semi-expanded;font-size:15.43614483px;line-height:1.15000629em;font-family:Magneto;-inkscape-font-specification:'Magneto, Bold Semi-Expanded';font-variant-ligatures:normal;font-variant-caps:normal;font-variant-numeric:normal;font-feature-settings:normal;text-align:center;letter-spacing:0px;word-spacing:-0.16933332px;writing-mode:lr-tb;text-anchor:middle;fill:#ff00ff;fill-opacity:1;stroke:#800080;stroke-width:3.65177679;stroke-miterlimit:4;stroke-dasharray:none;stroke-opacity:1;paint-order:fill markers stroke"
               id="path1212" />
            <path
               inkscape:connector-curvature="0"
               d="m 606.79093,235.8607 q -1.41541,6.23757 -6.51082,9.21454 -3.56681,2.12637 -7.6432,2.12637 h -21.79723 q -8.37926,0 -8.37926,-7.15889 0,-1.84293 0.62271,-4.18202 l 21.00468,-74.14104 h 20.04214 l -21.11788,74.14104 z"
               style="font-style:normal;font-variant:normal;font-weight:bold;font-stretch:semi-expanded;font-size:15.43614483px;line-height:1.15000629em;font-family:Magneto;-inkscape-font-specification:'Magneto, Bold Semi-Expanded';font-variant-ligatures:normal;font-variant-caps:normal;font-variant-numeric:normal;font-feature-settings:normal;text-align:center;letter-spacing:0px;word-spacing:-0.16933332px;writing-mode:lr-tb;text-anchor:middle;fill:#ff00ff;fill-opacity:1;stroke:#800080;stroke-width:3.65177679;stroke-miterlimit:4;stroke-dasharray:none;stroke-opacity:1;paint-order:fill markers stroke"
               id="path1214" />
            <path
               inkscape:connector-curvature="0"
               d="m 681.80751,235.8607 c -2.22688,7.56064 -6.39762,11.34091 -12.51221,11.34091 h -13.81435 c -3.2837,11.15188 -6.7373,21.50159 -10.36075,26.88855 -5.05778,7.46603 -11.34213,11.19909 -18.8532,11.19909 -4.71804,0 -8.36033,-1.72471 -10.92697,-5.17424 -2.22689,-3.02427 -3.34033,-6.92266 -3.34033,-11.69535 0,-3.78027 0.64149,-9.52271 1.92492,-13.06675 1.32106,-3.54403 3.03837,-6.26117 5.15205,-8.1513 h -4.30279 c -2.49115,0 -4.56705,-0.94502 -6.22779,-2.83516 -1.62303,-1.93744 -2.43451,-4.34743 -2.43451,-7.22989 0,-1.32306 0.18854,-2.66983 0.56638,-4.0402 l 9.85123,-34.09352 h 20.55173 l -10.5873,36.85786 h 11.49312 l 10.41738,-36.85786 h 20.43845 l -10.41738,36.85786 z m -47.3878,13.25474 c -2.49107,0 -4.81238,1.74842 -6.96378,5.24515 -2.11368,3.54404 -3.17057,9.14476 -3.17057,12.6415 0,3.11869 1.09459,5.62319 3.28377,7.51333 z"
               style="font-style:normal;font-variant:normal;font-weight:bold;font-stretch:semi-expanded;font-size:15.43614483px;line-height:1.15000629em;font-family:Magneto;-inkscape-font-specification:'Magneto, Bold Semi-Expanded';font-variant-ligatures:normal;font-variant-caps:normal;font-variant-numeric:normal;font-feature-settings:normal;text-align:center;letter-spacing:0px;word-spacing:-0.16933332px;writing-mode:lr-tb;text-anchor:middle;fill:#ff00ff;fill-opacity:1;stroke:#800080;stroke-width:3.65177679;stroke-miterlimit:4;stroke-dasharray:none;stroke-opacity:1;paint-order:fill markers stroke"
               id="path1216"
               sodipodi:nodetypes="csccscsccscscccccccccccscc" />
          </g>
        </g>
        <g
           style="stroke-width:19.82390213;stroke-miterlimit:4;stroke-dasharray:none"
           transform="matrix(0.18897338,0,0,0.16803289,397.41823,255.36232)"
           id="g1146">
          <ellipse
             id="path958"
             style="opacity:1;fill:#ff00ff;fill-opacity:0.91707321;fill-rule:nonzero;stroke:none;stroke-width:19.82390213;stroke-linecap:butt;stroke-linejoin:miter;stroke-miterlimit:4;stroke-dasharray:none;stroke-opacity:1;paint-order:fill markers stroke"
             cx="628.76617"
             cy="-39.172691"
             rx="487.51483"
             ry="309.14783" />
          <ellipse
             id="ellipse849"
             style="opacity:0.11499999;fill:url(#linearGradient857);fill-opacity:1;fill-rule:evenodd;stroke:none;stroke-width:19.82390213;stroke-linecap:butt;stroke-linejoin:miter;stroke-miterlimit:4;stroke-dasharray:none;stroke-opacity:1;paint-order:fill markers stroke"
             cx="628.76617"
             cy="-39.172691"
             rx="487.51483"
             ry="309.14783" />
          <ellipse
             ry="309.14783"
             rx="487.51483"
             cy="-39.172691"
             cx="628.76617"
             style="opacity:0.11499999;fill:url(#linearGradient1077);fill-opacity:1;fill-rule:evenodd;stroke:none;stroke-width:19.82390213;stroke-linecap:butt;stroke-linejoin:miter;stroke-miterlimit:4;stroke-dasharray:none;stroke-opacity:1;paint-order:fill markers stroke"
             id="ellipse1029" />
          <path
             style="fill:#fff5ff;fill-opacity:1;fill-rule:nonzero;stroke:none;stroke-width:19.82390213;stroke-linecap:butt;stroke-linejoin:miter;stroke-miterlimit:4;stroke-dasharray:none;stroke-opacity:1;paint-order:fill markers stroke"
             id="path957"
             sodipodi:type="arc"
             sodipodi:cx="628.76617"
             sodipodi:cy="-39.172691"
             sodipodi:rx="557.28009"
             sodipodi:ry="353.38809"
             sodipodi:start="4.3633231"
             sodipodi:end="5.0614548"
             d="m 438.16514,-371.24887 a 557.28009,353.38809 0 0 1 381.20203,-10e-6 l -190.601,332.076189 z" />
          <ellipse
             id="ellipse1047"
             style="opacity:0.11499999;fill:url(#linearGradient1049);fill-opacity:1;fill-rule:evenodd;stroke:none;stroke-width:19.89727402;stroke-linecap:butt;stroke-linejoin:miter;stroke-miterlimit:4;stroke-dasharray:none;stroke-opacity:1;paint-order:fill markers stroke"
             cx="698.3277"
             cy="-142.8653"
             rx="223.56537"
             ry="161.95499"
             transform="matrix(0.97210533,-0.23454473,0.35055342,0.93654274,0,0)" />
          <g
             style="stroke-width:19.06130219;stroke-miterlimit:4;stroke-dasharray:none"
             id="g993"
             transform="matrix(1.0026941,0,0,1.0787101,-11.621376,-19.886165)">
            <path
               style="fill:none;fill-opacity:1;fill-rule:nonzero;stroke:#800080;stroke-width:19.06130219;stroke-linecap:butt;stroke-linejoin:miter;stroke-miterlimit:4;stroke-dasharray:none;stroke-opacity:1;paint-order:fill markers stroke"
               id="path1033"
               sodipodi:type="arc"
               sodipodi:cx="638.66693"
               sodipodi:cy="-21.0907"
               sodipodi:rx="486.20496"
               sodipodi:ry="286.59027"
               sodipodi:start="5.0614548"
               sodipodi:end="4.3633231"
               d="M 804.95881,-290.39747 A 486.20496,286.59027 0 0 1 1117.4853,28.67517 486.20496,286.59027 0 0 1 638.66695,265.49957 486.20496,286.59027 0 0 1 159.84852,28.675187 486.20496,286.59027 0 0 1 472.37503,-290.39746 l 166.2919,269.30676 z" />
            <path
               sodipodi:nodetypes="ccc"
               inkscape:connector-curvature="0"
               id="path1035"
               d="m 303.97259,-45.591021 c 168.51031,148.569911 317.56588,134.2639 467.07676,123.76689 4.65344,53.574701 11.6244,83.223211 0.59482,164.051801"
               style="fill:none;stroke:#800080;stroke-width:19.06130219;stroke-linecap:butt;stroke-linejoin:miter;stroke-miterlimit:4;stroke-dasharray:none;stroke-opacity:1;paint-order:fill markers stroke" />
            <path
               style="fill:#800080;stroke:#800080;stroke-width:19.06130219;stroke-linecap:butt;stroke-linejoin:miter;stroke-miterlimit:4;stroke-dasharray:none;stroke-opacity:1"
               d="M 807.68912,-289.80624 573.31909,85.409089"
               id="path1037"
               inkscape:connector-curvature="0"
               sodipodi:nodetypes="cc" />
          </g>
          <g
             style="stroke-width:19.82390213;stroke-miterlimit:4;stroke-dasharray:none"
             id="g1125"
             transform="translate(-236.29319,290.89393)">
            <g
               style="stroke-width:19.82390213;stroke-miterlimit:4;stroke-dasharray:none"
               transform="translate(527.03826,-42.658573)"
               id="g1107">
              <ellipse
                 style="fill:#fff5ff;fill-opacity:1;fill-rule:nonzero;stroke:none;stroke-width:19.82390213;stroke-linecap:butt;stroke-linejoin:miter;stroke-miterlimit:4;stroke-dasharray:none;stroke-opacity:1;paint-order:markers fill stroke"
                 id="ellipse1103"
                 cx="-338.02112"
                 cy="-681.19836"
                 rx="242.64435"
                 ry="257.40204"
                 transform="scale(-1,1)" />
              <ellipse
                 id="ellipse1079"
                 style="opacity:0.11499999;fill:url(#linearGradient1081);fill-opacity:1;fill-rule:evenodd;stroke:none;stroke-width:19.82390213;stroke-linecap:butt;stroke-linejoin:miter;stroke-miterlimit:4;stroke-dasharray:none;stroke-opacity:1;paint-order:fill markers stroke"
                 cx="338.02112"
                 cy="-681.19836"
                 rx="242.6445"
                 ry="257.40201" />
            </g>
            <g
               style="stroke-width:19.82390213;stroke-miterlimit:4;stroke-dasharray:none"
               transform="translate(89.26348,-3.9465984)"
               id="g1114">
              <ellipse
                 transform="scale(-1,1)"
                 ry="257.40204"
                 rx="242.64435"
                 cy="-719.91034"
                 cx="-775.7959"
                 id="ellipse1039"
                 style="fill:none;fill-opacity:1;fill-rule:nonzero;stroke:#800080;stroke-width:19.82390213;stroke-linecap:butt;stroke-linejoin:miter;stroke-miterlimit:4;stroke-dasharray:none;stroke-opacity:1;paint-order:markers fill stroke" />
              <path
                 sodipodi:nodetypes="cc"
                 inkscape:connector-curvature="0"
                 id="path1041"
                 d="m 946.25985,-770.35456 c -17.3065,-49.88549 -43.01678,-99.70299 -136.42826,-66.25922"
                 style="fill:none;stroke:#800080;stroke-width:19.82390213;stroke-linecap:butt;stroke-linejoin:miter;stroke-miterlimit:4;stroke-dasharray:none;stroke-opacity:1" />
              <path
                 style="fill:none;stroke:#800080;stroke-width:19.82390213;stroke-linecap:butt;stroke-linejoin:miter;stroke-miterlimit:4;stroke-dasharray:none;stroke-opacity:1"
                 d="m 605.33192,-768.47819 c 17.3065,-49.88548 43.01668,-99.70291 136.42817,-66.25921"
                 id="path1043"
                 inkscape:connector-curvature="0"
                 sodipodi:nodetypes="cc" />
              <path
                 sodipodi:nodetypes="cc"
                 inkscape:connector-curvature="0"
                 id="path1047"
                 d="m 831.09592,-610.49228 c -50.25774,26.19849 -111.70073,10.56599 -152.09787,-27.12411"
                 style="fill:none;stroke:#800080;stroke-width:19.82390213;stroke-linecap:butt;stroke-linejoin:miter;stroke-miterlimit:4;stroke-dasharray:none;stroke-opacity:1" />
              <path
                 style="fill:none;stroke:#800080;stroke-width:19.82390213;stroke-linecap:butt;stroke-linejoin:miter;stroke-miterlimit:4;stroke-dasharray:none;stroke-opacity:1"
                 d="m 690.17559,-674.16086 c -9.3405,17.94455 -24.23833,41.07671 -38.34433,58.31735"
                 id="path1049"
                 inkscape:connector-curvature="0"
                 sodipodi:nodetypes="cc" />
            </g>
          </g>
        </g>
      </g>
    </g>
  </g>
</svg>
