<?xml version="1.0" encoding="UTF-8" standalone="no"?>
<!-- Created with Inkscape (http://www.inkscape.org/) -->

<svg
   xmlns:dc="http://purl.org/dc/elements/1.1/"
   xmlns:cc="http://creativecommons.org/ns#"
   xmlns:rdf="http://www.w3.org/1999/02/22-rdf-syntax-ns#"
   xmlns:svg="http://www.w3.org/2000/svg"
   xmlns="http://www.w3.org/2000/svg"
   xmlns:xlink="http://www.w3.org/1999/xlink"
   xmlns:sodipodi="http://sodipodi.sourceforge.net/DTD/sodipodi-0.dtd"
   xmlns:inkscape="http://www.inkscape.org/namespaces/inkscape"
   width="4000"
   height="2402"
   viewBox="0 0 4000 2402"
   version="1.1"
   id="svg8"
   inkscape:version="0.92.4 (5da689c313, 2019-01-14)"
   sodipodi:docname="logo.svg"
   inkscape:export-filename="C:\Users\Matt\Workspace\affableally.com\source\images\logo.png"
   inkscape:export-xdpi="48"
   inkscape:export-ydpi="48">
  <defs
     id="defs2">
    <linearGradient
       inkscape:collect="always"
       id="linearGradient96">
      <stop
         style="stop-color:#ffffff;stop-opacity:1"
         offset="0"
         id="stop92" />
      <stop
         style="stop-color:#ff00ff;stop-opacity:1"
         offset="1"
         id="stop94" />
    </linearGradient>
    <linearGradient
       id="linearGradient838"
       inkscape:collect="always">
      <stop
         id="stop834"
         offset="0"
         style="stop-color:#ff00ff;stop-opacity:1;" />
      <stop
         id="stop836"
         offset="1"
         style="stop-color:#ffaaff;stop-opacity:1" />
    </linearGradient>
    <radialGradient
       inkscape:collect="always"
       xlink:href="#linearGradient838"
       id="radialGradient827"
       cx="57.282288"
       cy="139.57292"
       fx="57.282288"
       fy="139.57292"
       r="22.357292"
       gradientTransform="matrix(1,0,0,0.88165678,0,16.517509)"
       gradientUnits="userSpaceOnUse"
       spreadMethod="reflect" />
    <inkscape:perspective
       id="perspective2572"
       inkscape:persp3d-origin="700 : 466.66667 : 1"
       inkscape:vp_z="1400 : 700 : 1"
       inkscape:vp_y="0 : 1000 : 0"
       inkscape:vp_x="0 : 700 : 1"
       sodipodi:type="inkscape:persp3d" />
    <radialGradient
       spreadMethod="reflect"
       gradientUnits="userSpaceOnUse"
       gradientTransform="matrix(1,0,0,0.88165678,0,16.517509)"
       r="22.357292"
       fy="139.57292"
       fx="57.282288"
       cy="139.57292"
       cx="57.282288"
       id="radialGradient827-2"
       xlink:href="#linearGradient838"
       inkscape:collect="always" />
    <linearGradient
       id="linearGradient965"
       inkscape:collect="always">
      <stop
         id="stop961"
         offset="0"
         style="stop-color:#000000;stop-opacity:1;" />
      <stop
         id="stop963"
         offset="1"
         style="stop-color:#000000;stop-opacity:0;" />
    </linearGradient>
    <inkscape:perspective
       id="perspective2572-9"
       inkscape:persp3d-origin="700 : 466.66667 : 1"
       inkscape:vp_z="1400 : 700 : 1"
       inkscape:vp_y="0 : 1000 : 0"
       inkscape:vp_x="0 : 700 : 1"
       sodipodi:type="inkscape:persp3d" />
    <linearGradient
       id="linearGradient1071"
       inkscape:collect="always">
      <stop
         id="stop1067"
         offset="0"
         style="stop-color:#000000;stop-opacity:1;" />
      <stop
         id="stop1069"
         offset="1"
         style="stop-color:#000000;stop-opacity:0.14117648" />
    </linearGradient>
    <radialGradient
       spreadMethod="reflect"
       gradientUnits="userSpaceOnUse"
       gradientTransform="matrix(1,0,0,0.88165678,0,16.517509)"
       r="22.357292"
       fy="139.57292"
       fx="57.282288"
       cy="139.57292"
       cx="57.282288"
       id="radialGradient827-8"
       xlink:href="#linearGradient838"
       inkscape:collect="always" />
    <linearGradient
       y2="136.29828"
       x2="590.97107"
       y1="280.29828"
       x1="430.56122"
       gradientTransform="matrix(1.1788483,0,0,1.3195357,-65.995486,-75.186574)"
       gradientUnits="userSpaceOnUse"
       id="linearGradient1226"
       xlink:href="#linearGradient1071"
       inkscape:collect="always" />
    <radialGradient
       gradientUnits="userSpaceOnUse"
       gradientTransform="matrix(1,0,0,0.60674305,0,405.58891)"
       r="582.5528"
       fy="1373.6064"
       fx="538.1922"
       cy="1373.6064"
       cx="538.1922"
       id="radialGradient967"
       xlink:href="#linearGradient965"
       inkscape:collect="always" />
    <radialGradient
       inkscape:collect="always"
       xlink:href="#linearGradient96"
       id="radialGradient98"
       cx="1086.3295"
       cy="-306.11484"
       fx="1086.3295"
       fy="-306.11484"
       r="268.20428"
       gradientTransform="matrix(-0.85437487,1.0442966,-0.46354797,-0.29985057,1600.7524,-1276.6178)"
       gradientUnits="userSpaceOnUse" />
    <radialGradient
       inkscape:collect="always"
       xlink:href="#linearGradient96"
       id="radialGradient905"
       gradientUnits="userSpaceOnUse"
       gradientTransform="matrix(-0.85437487,1.0442966,-0.46354797,-0.29985057,1600.7524,-1276.6178)"
       cx="1086.3295"
       cy="-306.11484"
       fx="1086.3295"
       fy="-306.11484"
       r="268.20428" />
    <radialGradient
       inkscape:collect="always"
       xlink:href="#linearGradient96"
       id="radialGradient907"
       gradientUnits="userSpaceOnUse"
       gradientTransform="matrix(-0.85437487,1.0442966,-0.46354797,-0.29985057,1600.7524,-1276.6178)"
       cx="1086.3295"
       cy="-306.11484"
       fx="1086.3295"
       fy="-306.11484"
       r="268.20428" />
    <radialGradient
       inkscape:collect="always"
       xlink:href="#linearGradient96"
       id="radialGradient909"
       gradientUnits="userSpaceOnUse"
       gradientTransform="matrix(-0.85437487,1.0442966,-0.46354797,-0.29985057,1600.7524,-1276.6178)"
       cx="1086.3295"
       cy="-306.11484"
       fx="1086.3295"
       fy="-306.11484"
       r="268.20428" />
    <radialGradient
       inkscape:collect="always"
       xlink:href="#linearGradient96"
       id="radialGradient911"
       gradientUnits="userSpaceOnUse"
       gradientTransform="matrix(-0.85437487,1.0442966,-0.46354797,-0.29985057,1600.7524,-1276.6178)"
       cx="1086.3295"
       cy="-306.11484"
       fx="1086.3295"
       fy="-306.11484"
       r="268.20428" />
    <radialGradient
       inkscape:collect="always"
       xlink:href="#linearGradient96"
       id="radialGradient913"
       gradientUnits="userSpaceOnUse"
       gradientTransform="matrix(-0.85437487,1.0442966,-0.46354797,-0.29985057,1600.7524,-1276.6178)"
       cx="1086.3295"
       cy="-306.11484"
       fx="1086.3295"
       fy="-306.11484"
       r="268.20428" />
    <radialGradient
       inkscape:collect="always"
       xlink:href="#linearGradient96"
       id="radialGradient915"
       gradientUnits="userSpaceOnUse"
       gradientTransform="matrix(-0.85437487,1.0442966,-0.46354797,-0.29985057,1600.7524,-1276.6178)"
       cx="1086.3295"
       cy="-306.11484"
       fx="1086.3295"
       fy="-306.11484"
       r="268.20428" />
    <radialGradient
       inkscape:collect="always"
       xlink:href="#linearGradient96"
       id="radialGradient917"
       gradientUnits="userSpaceOnUse"
       gradientTransform="matrix(-0.85437487,1.0442966,-0.46354797,-0.29985057,1600.7524,-1276.6178)"
       cx="1086.3295"
       cy="-306.11484"
       fx="1086.3295"
       fy="-306.11484"
       r="268.20428" />
    <radialGradient
       inkscape:collect="always"
       xlink:href="#linearGradient96"
       id="radialGradient919"
       gradientUnits="userSpaceOnUse"
       gradientTransform="matrix(-0.85437487,1.0442966,-0.46354797,-0.29985057,1600.7524,-1276.6178)"
       cx="1086.3295"
       cy="-306.11484"
       fx="1086.3295"
       fy="-306.11484"
       r="268.20428" />
    <radialGradient
       inkscape:collect="always"
       xlink:href="#linearGradient96"
       id="radialGradient921"
       gradientUnits="userSpaceOnUse"
       gradientTransform="matrix(-0.85437487,1.0442966,-0.46354797,-0.29985057,1600.7524,-1276.6178)"
       cx="1086.3295"
       cy="-306.11484"
       fx="1086.3295"
       fy="-306.11484"
       r="268.20428" />
    <radialGradient
       inkscape:collect="always"
       xlink:href="#linearGradient96"
       id="radialGradient923"
       gradientUnits="userSpaceOnUse"
       gradientTransform="matrix(-0.85437487,1.0442966,-0.46354797,-0.29985057,1600.7524,-1276.6178)"
       cx="1086.3295"
       cy="-306.11484"
       fx="1086.3295"
       fy="-306.11484"
       r="268.20428" />
    <radialGradient
       inkscape:collect="always"
       xlink:href="#linearGradient96"
       id="radialGradient925"
       gradientUnits="userSpaceOnUse"
       gradientTransform="matrix(-0.85437487,1.0442966,-0.46354797,-0.29985057,1600.7524,-1276.6178)"
       cx="1086.3295"
       cy="-306.11484"
       fx="1086.3295"
       fy="-306.11484"
       r="268.20428" />
    <radialGradient
       inkscape:collect="always"
       xlink:href="#linearGradient96"
       id="radialGradient927"
       gradientUnits="userSpaceOnUse"
       gradientTransform="matrix(-0.85437487,1.0442966,-0.46354797,-0.29985057,1600.7524,-1276.6178)"
       cx="1086.3295"
       cy="-306.11484"
       fx="1086.3295"
       fy="-306.11484"
       r="268.20428" />
    <radialGradient
       inkscape:collect="always"
       xlink:href="#linearGradient96"
       id="radialGradient929"
       gradientUnits="userSpaceOnUse"
       gradientTransform="matrix(-0.85437487,1.0442966,-0.46354797,-0.29985057,1600.7524,-1276.6178)"
       cx="1086.3295"
       cy="-306.11484"
       fx="1086.3295"
       fy="-306.11484"
       r="268.20428" />
    <linearGradient
       inkscape:collect="always"
       id="linearGradient1339">
      <stop
         style="stop-color:#ffffff;stop-opacity:0"
         offset="0"
         id="stop1335" />
      <stop
         style="stop-color:#000000;stop-opacity:0.99574471"
         offset="1"
         id="stop1337" />
    </linearGradient>
    <linearGradient
       gradientTransform="matrix(1.1050247,0.57595962,0,1.2816598,776.27773,2321.3321)"
       gradientUnits="userSpaceOnUse"
       y2="434.51581"
       x2="696.17511"
       y1="343.43909"
       x1="697.04724"
       id="linearGradient2511"
       xlink:href="#linearGradient1339"
       inkscape:collect="always" />
    <filter
       height="3.3460785"
       y="-1.1730392"
       width="2.3184897"
       x="-0.65924483"
       id="filter1130"
       style="color-interpolation-filters:sRGB"
       inkscape:collect="always">
      <feGaussianBlur
         id="feGaussianBlur1132"
         stdDeviation="53.488548"
         inkscape:collect="always" />
    </filter>
    <filter
       height="1.0747988"
       y="-0.037399396"
       width="1.0353389"
       x="-0.017669426"
       id="filter1148"
       style="color-interpolation-filters:sRGB"
       inkscape:collect="always">
      <feGaussianBlur
         id="feGaussianBlur1150"
         stdDeviation="3.3471108"
         inkscape:collect="always" />
    </filter>
    <filter
       height="1.0652163"
       y="-0.03260813"
       width="1.0379751"
       x="-0.018987533"
       id="filter1160"
       style="color-interpolation-filters:sRGB"
       inkscape:collect="always">
      <feGaussianBlur
         id="feGaussianBlur1162"
         stdDeviation="5.1587883"
         inkscape:collect="always" />
    </filter>
    <filter
       height="1.0959647"
       y="-0.047982335"
       width="1.0320039"
       x="-0.016001964"
       id="filter1184"
       style="color-interpolation-filters:sRGB"
       inkscape:collect="always">
      <feGaussianBlur
         id="feGaussianBlur1186"
         stdDeviation="2.5375078"
         inkscape:collect="always" />
    </filter>
    <filter
       height="1.0671209"
       y="-0.033560472"
       width="1.0373578"
       x="-0.018678889"
       id="filter1208"
       style="color-interpolation-filters:sRGB"
       inkscape:collect="always">
      <feGaussianBlur
         id="feGaussianBlur1210"
         stdDeviation="3.4103913"
         inkscape:collect="always" />
    </filter>
    <filter
       height="1.111719"
       y="-0.055859503"
       width="1.0531159"
       x="-0.026557957"
       id="filter1226"
       style="color-interpolation-filters:sRGB"
       inkscape:collect="always">
      <feGaussianBlur
         id="feGaussianBlur1228"
         stdDeviation="6.267875"
         inkscape:collect="always" />
    </filter>
    <filter
       height="1.0808478"
       y="-0.040423922"
       width="1.0341323"
       x="-0.017066155"
       id="filter1240"
       style="color-interpolation-filters:sRGB"
       inkscape:collect="always">
      <feGaussianBlur
         id="feGaussianBlur1242"
         stdDeviation="3.2397175"
         inkscape:collect="always" />
    </filter>
    <filter
       height="1.3016217"
       y="-0.15081083"
       width="1.1005406"
       x="-0.050270285"
       id="filter934"
       style="color-interpolation-filters:sRGB"
       inkscape:collect="always">
      <feGaussianBlur
         id="feGaussianBlur936"
         stdDeviation="1.2936365"
         inkscape:collect="always" />
    </filter>
  </defs>
  <sodipodi:namedview
     id="base"
     pagecolor="#ffffff"
     bordercolor="#666666"
     borderopacity="1.0"
     inkscape:pageopacity="0.0"
     inkscape:pageshadow="2"
     inkscape:zoom="0.16819317"
     inkscape:cx="485.73116"
     inkscape:cy="2256.9774"
     inkscape:document-units="px"
     inkscape:current-layer="layer1-8"
     showgrid="false"
     inkscape:window-width="1920"
     inkscape:window-height="1001"
     inkscape:window-x="-9"
     inkscape:window-y="-9"
     inkscape:window-maximized="1"
     showguides="true"
     inkscape:guide-bbox="true"
     fit-margin-top="200"
     fit-margin-left="200"
     fit-margin-right="200"
     fit-margin-bottom="200"
     units="px"
     inkscape:pagecheckerboard="true">
    <sodipodi:guide
       position="390,580.9365"
       orientation="1,0"
       id="guide423"
       inkscape:locked="false"
       inkscape:label=""
       inkscape:color="rgb(0,0,255)" />
    <sodipodi:guide
       position="1590,600.50001"
       orientation="1,0"
       id="guide425"
       inkscape:locked="false"
       inkscape:label=""
       inkscape:color="rgb(0,0,255)" />
    <sodipodi:guide
       position="980.02076,1370.1923"
       orientation="0,1"
       id="guide427"
       inkscape:locked="false" />
  </sodipodi:namedview>
  <metadata
     id="metadata5">
    <rdf:RDF>
      <cc:Work
         rdf:about="">
        <dc:format>image/svg+xml</dc:format>
        <dc:type
           rdf:resource="http://purl.org/dc/dcmitype/StillImage" />
        <dc:title />
      </cc:Work>
    </rdf:RDF>
  </metadata>
  <g
     inkscape:label="Text"
     inkscape:groupmode="layer"
     id="layer1"
     transform="translate(-2121.9335,1737.8014)"
     style="display:inline"
     sodipodi:insensitive="true">
    <g
       id="g2091"
       transform="matrix(6.6734471,0,0,7.5051013,-383.29021,-1769.7296)"
       style="fill:url(#radialGradient98);fill-opacity:1">
      <g
         id="g965"
         style="fill:url(#radialGradient919);fill-opacity:1">
        <path
           inkscape:connector-curvature="0"
           d="m 479.09396,76.586732 -8.07314,-20.335012 -7.84081,25.074753 z m 46.87053,29.253878 -50.64576,13.76053 12.95183,-15.23852 -3.65902,-11.263244 -18.81795,1.27412 -5.45948,13.148954 8.18926,5.60614 -55.05987,3.46562 13.41649,-8.76597 17.83061,-60.852133 -10.10593,-5.759043 68.30206,1.987633 -15.91394,4.994566 27.93653,54.736337 z"
           style="font-style:normal;font-variant:normal;font-weight:normal;font-stretch:normal;font-size:15.43614483px;line-height:1.15000629em;font-family:'Snap ITC';-inkscape-font-specification:'Snap ITC, Normal';font-variant-ligatures:normal;font-variant-caps:normal;font-variant-numeric:normal;font-feature-settings:normal;text-align:center;letter-spacing:0px;word-spacing:-0.16933332px;writing-mode:lr-tb;text-anchor:middle;fill:url(#radialGradient905);fill-opacity:1;stroke:#800080;stroke-width:3.53253627;stroke-miterlimit:4;stroke-dasharray:none;stroke-opacity:1;paint-order:fill markers stroke"
           id="path1219" />
        <path
           inkscape:connector-curvature="0"
           d="M 594.32465,40.503559 580.67591,60.83857 q -1.45201,-2.191494 -3.601,-3.261759 -2.09089,-1.121229 -4.8787,-1.121229 -4.18178,0 -6.04034,2.905 -1.80046,2.905006 -1.80046,9.530445 0,1.172193 0,1.936669 0.0616,0.764476 0.17415,1.477982 l 15.73971,-0.509637 11.90639,-8.867897 -4.8787,28.795191 -10.10592,-8.765969 -11.26758,1.27412 q 1.21967,7.491849 2.90401,14.372114 1.68433,6.8293 3.83333,13.09799 l 11.67405,4.58685 -51.7493,1.98763 13.35839,-8.56212 q -2.61358,-9.47947 -3.89136,-14.372103 -1.27777,-4.943602 -2.09089,-8.307289 l -6.67915,0.866404 -8.18927,9.887198 -4.29798,-32.362733 8.47969,7.746668 7.60848,-0.203869 q -0.58102,-3.567548 -0.92925,-6.931235 -0.2905,-3.363686 -0.2905,-6.421584 0,-9.428511 6.15647,-14.27018 6.15647,-4.841668 18.00483,-4.841668 5.69182,0 11.15138,1.427018 5.51758,1.376054 10.62861,4.077192 z"
           style="font-style:normal;font-variant:normal;font-weight:normal;font-stretch:normal;font-size:15.43614483px;line-height:1.15000629em;font-family:'Snap ITC';-inkscape-font-specification:'Snap ITC, Normal';font-variant-ligatures:normal;font-variant-caps:normal;font-variant-numeric:normal;font-feature-settings:normal;text-align:center;letter-spacing:0px;word-spacing:-0.16933332px;writing-mode:lr-tb;text-anchor:middle;fill:url(#radialGradient907);fill-opacity:1;stroke:#800080;stroke-width:3.53253627;stroke-miterlimit:4;stroke-dasharray:none;stroke-opacity:1;paint-order:fill markers stroke"
           id="path1221" />
        <path
           inkscape:connector-curvature="0"
           d="M 668.02817,40.503559 654.37943,60.83857 q -1.45201,-2.191494 -3.601,-3.261759 -2.09089,-1.121229 -4.8787,-1.121229 -4.18178,0 -6.04034,2.905 -1.80046,2.905006 -1.80046,9.530445 0,1.172193 0,1.936669 0.0616,0.764476 0.17415,1.477982 l 15.73971,-0.509637 11.90639,-8.867897 -4.8787,28.795191 -10.10592,-8.765969 -11.26758,1.27412 q 1.21967,7.491849 2.90401,14.372114 1.68433,6.8293 3.83333,13.09799 l 11.67405,4.58685 -51.7493,1.98763 13.35839,-8.56212 q -2.61358,-9.47947 -3.89136,-14.372103 -1.27777,-4.943602 -2.09089,-8.307289 l -6.67915,0.866404 -8.18927,9.887198 -4.29799,-32.362733 8.4797,7.746668 7.60848,-0.203869 q -0.58102,-3.567548 -0.92925,-6.931235 -0.29051,-3.363686 -0.29051,-6.421584 0,-9.428511 6.15648,-14.27018 6.15655,-4.841668 18.00483,-4.841668 5.69182,0 11.15138,1.427018 5.51758,1.376054 10.62861,4.077192 z"
           style="font-style:normal;font-variant:normal;font-weight:normal;font-stretch:normal;font-size:15.43614483px;line-height:1.15000629em;font-family:'Snap ITC';-inkscape-font-specification:'Snap ITC, Normal';font-variant-ligatures:normal;font-variant-caps:normal;font-variant-numeric:normal;font-feature-settings:normal;text-align:center;letter-spacing:0px;word-spacing:-0.16933332px;writing-mode:lr-tb;text-anchor:middle;fill:url(#radialGradient909);fill-opacity:1;stroke:#800080;stroke-width:3.53253627;stroke-miterlimit:4;stroke-dasharray:none;stroke-opacity:1;paint-order:fill markers stroke"
           id="path1223" />
        <path
           inkscape:connector-curvature="0"
           d="m 698.86872,75.057786 q -1.51011,1.528946 -2.20702,3.261753 -0.69738,1.732814 -0.69738,4.026235 0,4.484909 3.31057,7.542807 3.36867,3.006933 8.24736,3.006933 1.74236,0 3.60092,-0.611605 1.85857,-0.662521 3.77523,-1.885705 -3.71712,-6.013861 -7.78271,-9.836234 -4.00755,-3.873331 -8.24736,-5.504211 z m 40.65603,-10.651674 -8.53779,3.41465 1.74235,42.708618 6.67924,4.48492 -25.55521,2.80307 4.35601,-15.54431 q -5.34336,7.69571 -12.37105,11.62001 -6.96958,3.9243 -15.21695,3.9243 -9.8736,0 -16.66896,-7.08413 -6.73726,-7.13509 -6.73726,-17.633864 0,-13.403783 7.25995,-22.016855 7.26002,-8.664042 18.29526,-8.664042 8.3635,0 14.6942,3.873338 6.3888,3.822367 10.74481,11.467107 l -3.65902,-15.748161 z"
           style="font-style:normal;font-variant:normal;font-weight:normal;font-stretch:normal;font-size:15.43614483px;line-height:1.15000629em;font-family:'Snap ITC';-inkscape-font-specification:'Snap ITC, Normal';font-variant-ligatures:normal;font-variant-caps:normal;font-variant-numeric:normal;font-feature-settings:normal;text-align:center;letter-spacing:0px;word-spacing:-0.16933332px;writing-mode:lr-tb;text-anchor:middle;fill:url(#radialGradient911);fill-opacity:1;stroke:#800080;stroke-width:3.53253627;stroke-miterlimit:4;stroke-dasharray:none;stroke-opacity:1;paint-order:fill markers stroke"
           id="path1225" />
        <path
           inkscape:connector-curvature="0"
           d="m 763.1633,89.990515 q 1.04544,1.579909 2.7878,2.344385 1.80046,0.764476 4.35601,0.764476 4.53025,0 7.95694,-3.41465 3.48479,-3.414651 3.48479,-7.848603 0,-1.732807 -0.75517,-3.312723 -0.6966,-1.579909 -2.38124,-3.363686 -5.40146,2.497283 -9.29281,6.217722 -3.89136,3.72044 -6.15648,8.613079 z m 7.25994,-45.511691 -9.29273,31.700191 q 6.3888,-6.676409 12.7195,-9.887198 6.3888,-3.26176 13.24227,-3.26176 10.57051,0 18.06286,6.982199 7.49227,6.931235 7.49227,16.818427 0,12.282554 -10.62861,20.233087 -10.62861,7.89956 -28.98191,9.22465 l -32.69902,2.29342 9.29273,-7.44088 -1.91659,-64.572576 -6.91156,-3.465615 37.81013,-2.395349 z"
           style="font-style:normal;font-variant:normal;font-weight:normal;font-stretch:normal;font-size:15.43614483px;line-height:1.15000629em;font-family:'Snap ITC';-inkscape-font-specification:'Snap ITC, Normal';font-variant-ligatures:normal;font-variant-caps:normal;font-variant-numeric:normal;font-feature-settings:normal;text-align:center;letter-spacing:0px;word-spacing:-0.16933332px;writing-mode:lr-tb;text-anchor:middle;fill:url(#radialGradient913);fill-opacity:1;stroke:#800080;stroke-width:3.53253627;stroke-miterlimit:4;stroke-dasharray:none;stroke-opacity:1;paint-order:fill markers stroke"
           id="path1227" />
        <path
           inkscape:connector-curvature="0"
           d="m 860.97002,116.49228 -48.32261,2.08956 13.30036,-6.6764 -1.04544,-58.558719 -12.02259,-1.885699 45.59283,-11.263252 -10.62868,72.11539 z"
           style="font-style:normal;font-variant:normal;font-weight:normal;font-stretch:normal;font-size:15.43614483px;line-height:1.15000629em;font-family:'Snap ITC';-inkscape-font-specification:'Snap ITC, Normal';font-variant-ligatures:normal;font-variant-caps:normal;font-variant-numeric:normal;font-feature-settings:normal;text-align:center;letter-spacing:0px;word-spacing:-0.16933332px;writing-mode:lr-tb;text-anchor:middle;fill:url(#radialGradient915);fill-opacity:1;stroke:#800080;stroke-width:3.53253627;stroke-miterlimit:4;stroke-dasharray:none;stroke-opacity:1;paint-order:fill markers stroke"
           id="path1229" />
        <path
           inkscape:connector-curvature="0"
           d="m 877.34855,81.734189 q 1.85856,1.325091 4.35601,2.089567 2.49745,0.713505 5.11103,0.713505 4.58834,0 7.49235,-2.344385 2.90401,-2.344385 2.90401,-6.013861 0,-1.783771 -0.58102,-3.210789 -0.58102,-1.427024 -1.80054,-2.701144 -6.2145,0.815439 -10.62861,3.720439 -4.35601,2.854036 -6.85346,7.746668 z m 57.78965,36.338001 -5.22723,-8.46018 q -7.7246,4.28106 -15.44928,6.37062 -7.7246,2.08956 -15.97197,2.08956 -16.08817,0 -25.78754,-6.98219 -9.64126,-7.03317 -9.64126,-18.602209 0,-6.115788 2.61357,-11.772897 2.67168,-5.708071 7.49235,-9.938162 4.64637,-4.077199 10.74482,-6.166759 6.15647,-2.089559 13.53262,-2.089559 14.1134,0 23.29009,5.351312 9.1766,5.351319 9.1766,13.454747 0,8.154391 -8.47969,13.658601 -8.42159,5.504216 -21.1411,5.504216 -3.13634,0 -5.86612,-0.40774 -2.7297,-0.458649 -5.22715,-1.325079 5.45948,3.261749 10.68671,4.841669 5.28526,1.52894 10.86095,1.52894 6.79536,0 12.48725,-2.65017 5.69181,-2.650181 9.75739,-7.695704 z"
           style="font-style:normal;font-variant:normal;font-weight:normal;font-stretch:normal;font-size:15.43614483px;line-height:1.15000629em;font-family:'Snap ITC';-inkscape-font-specification:'Snap ITC, Normal';font-variant-ligatures:normal;font-variant-caps:normal;font-variant-numeric:normal;font-feature-settings:normal;text-align:center;letter-spacing:0px;word-spacing:-0.16933332px;writing-mode:lr-tb;text-anchor:middle;fill:url(#radialGradient917);fill-opacity:1;stroke:#800080;stroke-width:3.53253627;stroke-miterlimit:4;stroke-dasharray:none;stroke-opacity:1;paint-order:fill markers stroke"
           id="path1231" />
      </g>
      <g
         id="g971"
         style="fill:url(#radialGradient929);fill-opacity:1">
        <path
           sodipodi:nodetypes="cscccccscsccscccccccccccsscc"
           inkscape:connector-curvature="0"
           d="m 774.196,207.26674 c -1.97476,6.89664 -6.69857,10.3449 -14.17158,10.34491 l -13.35839,1e-5 -10.91905,33.62091 h -20.79263 l 10.91904,-33.62091 h -17.83061 c -19.51486,26.20709 -38.5844,39.31068 -57.20879,39.31068 -5.4208,0 -9.98972,-1.12075 -13.70685,-3.36216 -4.68512,-2.84479 -7.02768,-7.02591 -7.02768,-12.54316 0,-4.6983 1.74243,-9.28885 5.22723,-13.77166 5.61436,-7.19834 14.1134,-12.52164 25.49711,-15.96992 8.90559,-2.67246 18.74042,-4.00869 29.50458,-4.00869 h 11.26757 l 42.33236,-67.60481 h 27.99456 l -22.1205,67.60481 z m -25.85366,-56.87201 -32.57488,56.87202 h 12.95184 z m -54.5872,67.21693 c -14.51995,0 -24.70333,2.32762 -30.5501,6.98286 -4.84001,3.87932 -7.26002,7.99568 -7.26002,12.34921 0,3.70691 1.74243,5.56032 5.22723,5.56032 4.80125,0 10.80292,-3.01722 18.00483,-9.05175 6.31136,-5.21556 11.17072,-10.4958 14.57806,-15.84064 z"
           style="font-style:normal;font-variant:normal;font-weight:bold;font-stretch:semi-expanded;font-size:15.43614483px;line-height:1.15000629em;font-family:Magneto;-inkscape-font-specification:'Magneto, Bold Semi-Expanded';font-variant-ligatures:normal;font-variant-caps:normal;font-variant-numeric:normal;font-feature-settings:normal;text-align:center;letter-spacing:0px;word-spacing:-0.16933332px;writing-mode:lr-tb;text-anchor:middle;fill:url(#radialGradient921);fill-opacity:1;stroke:#800080;stroke-width:3.53253627;stroke-miterlimit:4;stroke-dasharray:none;stroke-opacity:1;paint-order:fill markers stroke"
           id="path1210" />
        <path
           inkscape:connector-curvature="0"
           d="m 819.29404,207.26674 q -1.45201,5.68977 -6.67915,8.4053 -3.65911,1.93962 -7.84081,1.93962 h -22.36085 q -8.59582,0 -8.59582,-6.53018 0,-1.68107 0.63881,-3.81474 l 21.54765,-67.62977 h 20.56031 l -21.66378,67.62977 z"
           style="font-style:normal;font-variant:normal;font-weight:bold;font-stretch:semi-expanded;font-size:15.43614483px;line-height:1.15000629em;font-family:Magneto;-inkscape-font-specification:'Magneto, Bold Semi-Expanded';font-variant-ligatures:normal;font-variant-caps:normal;font-variant-numeric:normal;font-feature-settings:normal;text-align:center;letter-spacing:0px;word-spacing:-0.16933332px;writing-mode:lr-tb;text-anchor:middle;fill:url(#radialGradient923);fill-opacity:1;stroke:#800080;stroke-width:3.53253627;stroke-miterlimit:4;stroke-dasharray:none;stroke-opacity:1;paint-order:fill markers stroke"
           id="path1212" />
        <path
           inkscape:connector-curvature="0"
           d="m 863.89945,207.26674 q -1.452,5.68977 -6.67915,8.4053 -3.65902,1.93962 -7.84081,1.93962 h -22.36077 q -8.5959,0 -8.5959,-6.53018 0,-1.68107 0.63881,-3.81474 l 21.54774,-67.62977 h 20.56031 l -21.66387,67.62977 z"
           style="font-style:normal;font-variant:normal;font-weight:bold;font-stretch:semi-expanded;font-size:15.43614483px;line-height:1.15000629em;font-family:Magneto;-inkscape-font-specification:'Magneto, Bold Semi-Expanded';font-variant-ligatures:normal;font-variant-caps:normal;font-variant-numeric:normal;font-feature-settings:normal;text-align:center;letter-spacing:0px;word-spacing:-0.16933332px;writing-mode:lr-tb;text-anchor:middle;fill:url(#radialGradient925);fill-opacity:1;stroke:#800080;stroke-width:3.53253627;stroke-miterlimit:4;stroke-dasharray:none;stroke-opacity:1;paint-order:fill markers stroke"
           id="path1214" />
        <path
           inkscape:connector-curvature="0"
           d="m 940.85551,207.26674 c -2.28445,6.89665 -6.56302,10.34492 -12.8357,10.34492 H 913.8483 c -3.36859,10.17249 -6.91148,19.61326 -10.62861,24.52712 -5.18855,6.81035 -11.63537,10.21556 -19.34063,10.21556 -4.84002,0 -8.57648,-1.57324 -11.20948,-4.71982 -2.28446,-2.75867 -3.42669,-6.3147 -3.42669,-10.66824 0,-3.44827 0.65808,-8.6864 1.97469,-11.91919 1.35521,-3.23278 3.11692,-5.7113 5.28525,-7.43543 h -4.41404 c -2.55555,0 -4.68512,-0.86202 -6.3888,-2.58617 -1.66499,-1.76729 -2.49745,-3.96562 -2.49745,-6.59494 0,-1.20686 0.19341,-2.43536 0.58102,-3.68538 l 10.10593,-31.09933 h 21.08307 l -10.86102,33.6209 h 11.79026 l 10.68671,-33.6209 h 20.96687 l -10.68672,33.6209 z m -48.61296,12.09067 c -2.55548,0 -4.9368,1.59487 -7.14382,4.78451 -2.16833,3.23279 -3.25255,8.34164 -3.25255,11.53129 0,2.8448 1.12289,5.12934 3.36867,6.85349 z"
           style="font-style:normal;font-variant:normal;font-weight:bold;font-stretch:semi-expanded;font-size:15.43614483px;line-height:1.15000629em;font-family:Magneto;-inkscape-font-specification:'Magneto, Bold Semi-Expanded';font-variant-ligatures:normal;font-variant-caps:normal;font-variant-numeric:normal;font-feature-settings:normal;text-align:center;letter-spacing:0px;word-spacing:-0.16933332px;writing-mode:lr-tb;text-anchor:middle;fill:url(#radialGradient927);fill-opacity:1;stroke:#800080;stroke-width:3.53253627;stroke-miterlimit:4;stroke-dasharray:none;stroke-opacity:1;paint-order:fill markers stroke"
           id="path1216"
           sodipodi:nodetypes="csccscsccscscccccccccccscc" />
      </g>
    </g>
    <g
       style="enable-background:new"
       id="g315"
       transform="translate(1431.4511,-3549.7933)" />
  </g>
  <g
     inkscape:label="Icon"
     id="layer5"
     transform="translate(-690.4824,-1811.9919)">
    <g
       transform="translate(2.0568981,158.0872)"
       style="display:inline"
       inkscape:label="Body"
       id="layer7"
       inkscape:groupmode="layer">
      <g
         style="display:inline;opacity:1"
         transform="translate(71.234948,903.3248)"
         id="layer1-8"
         inkscape:groupmode="layer"
         inkscape:label="Color">
        <path
           inkscape:connector-curvature="0"
           id="path891"
           d="m 1596.0042,2197.5324 c -26.497,0.01 -53.1062,1.0551 -79.6602,3.1699 -154.495,12.3043 -294.7632,59.4466 -391.4648,132.959 -96.6178,73.4487 -142.18955,169.4702 -121.793,264.8027 10.6945,63.3945 57.4595,116.597 118.9063,161.3223 61.5945,44.8328 138.8629,81.6615 214.6875,111.2129 151.6491,59.1027 298.0488,88.914 298.0488,88.914 l 15.5078,3.1641 8.9043,-59.9297 c 14.0577,-2.7697 81.5472,-16.2246 166.5235,-38.8144 94.2503,-25.0553 198.9663,-57.4383 249.6855,-97.7188 94.1433,-74.7674 136.2977,-171.6932 112.3672,-266.7343 -23.9305,-95.0413 -109.4847,-177.62 -235.0117,-232.7383 -103.9521,-45.6449 -229.0329,-69.649 -356.7012,-69.6094 z"
           style="color:#000000;font-style:normal;font-variant:normal;font-weight:normal;font-stretch:normal;font-size:medium;line-height:normal;font-family:sans-serif;font-variant-ligatures:normal;font-variant-position:normal;font-variant-caps:normal;font-variant-numeric:normal;font-variant-alternates:normal;font-feature-settings:normal;text-indent:0;text-align:start;text-decoration:none;text-decoration-line:none;text-decoration-style:solid;text-decoration-color:#000000;letter-spacing:normal;word-spacing:normal;text-transform:none;writing-mode:lr-tb;direction:ltr;text-orientation:mixed;dominant-baseline:auto;baseline-shift:baseline;text-anchor:start;white-space:normal;shape-padding:0;clip-rule:nonzero;display:inline;overflow:visible;visibility:visible;opacity:1;isolation:auto;mix-blend-mode:normal;color-interpolation:sRGB;color-interpolation-filters:linearRGB;solid-color:#000000;solid-opacity:1;vector-effect:none;fill:#ff00ff;fill-opacity:1;fill-rule:nonzero;stroke:none;stroke-width:30;stroke-linecap:square;stroke-linejoin:miter;stroke-miterlimit:4;stroke-dasharray:none;stroke-dashoffset:0;stroke-opacity:1;paint-order:fill markers stroke;color-rendering:auto;image-rendering:auto;shape-rendering:auto;text-rendering:auto;enable-background:accumulate" />
        <path
           d="m 1299.1049,2181.0001 a 667.42694,357.65659 0 0 1 598.4168,0.5928 l -300.3114,319.4059 z"
           sodipodi:end="5.1791028"
           sodipodi:start="4.2493728"
           sodipodi:ry="357.65659"
           sodipodi:rx="667.42694"
           sodipodi:cy="2500.9988"
           sodipodi:cx="1597.2103"
           sodipodi:type="arc"
           id="path957"
           style="display:inline;fill:#fff2f6;fill-opacity:1;fill-rule:nonzero;stroke:none;stroke-width:32.72160339;stroke-linecap:butt;stroke-linejoin:miter;stroke-miterlimit:4;stroke-dasharray:none;stroke-opacity:1;paint-order:fill markers stroke" />
      </g>
      <g
         inkscape:label="Shadows"
         inkscape:groupmode="layer"
         id="g1184"
         transform="translate(71.234948,903.3248)"
         style="display:inline;opacity:1">
        <ellipse
           transform="matrix(1.7408905,0.44571439,0.02725236,1.2299456,418.13864,2694.7654)"
           ry="39.343605"
           rx="96.785263"
           cy="-573.1601"
           cx="885.22675"
           id="path945"
           style="display:inline;opacity:1;fill:#ffffff;fill-opacity:1;fill-rule:nonzero;stroke:none;stroke-width:30;stroke-linecap:square;stroke-linejoin:round;stroke-miterlimit:4;stroke-dasharray:none;stroke-opacity:1;paint-order:stroke fill markers;filter:url(#filter1130)" />
        <path
           sodipodi:nodetypes="ccccc"
           inkscape:connector-curvature="0"
           id="path915"
           d="m 1195.2835,2523.7706 c 140.2378,88.766 228.8641,167.04 451.7052,185.6776 l 2.9257,29.1137 -259.3676,-52.775 z"
           style="display:inline;opacity:0.1;fill:#000000;fill-opacity:1;stroke:#000000;stroke-width:1px;stroke-linecap:butt;stroke-linejoin:miter;stroke-opacity:1;filter:url(#filter1148)" />
        <path
           sodipodi:nodetypes="cccc"
           inkscape:connector-curvature="0"
           id="path1138"
           d="m 1007.1906,2571.6434 c 66.8248,170.3274 321.9266,300.3202 651.9503,331.5042 l -13.6248,48.1892 c -494.5483,-99.0795 -643.17,-230.9953 -638.3255,-379.6934 z"
           style="opacity:0.1;fill:#000000;fill-opacity:1;stroke:none;stroke-width:1px;stroke-linecap:butt;stroke-linejoin:miter;stroke-opacity:1;filter:url(#filter1160)" />
        <path
           sodipodi:nodetypes="cccc"
           inkscape:connector-curvature="0"
           id="path1166"
           d="m 1658.0824,2898.395 -2.6879,-43.4617 c 106.1712,14.8508 248.0114,-37.5105 380.5794,-83.4604 -111.362,60.803 -223.0516,121.191 -377.8915,126.9221 z"
           style="opacity:0.1;fill:#000000;fill-opacity:1;stroke:none;stroke-width:1px;stroke-linecap:butt;stroke-linejoin:miter;stroke-opacity:1;filter:url(#filter1184)" />
      </g>
      <g
         style="display:inline"
         inkscape:label="Lines"
         inkscape:groupmode="layer"
         id="g1055"
         transform="translate(71.234948,903.3248)">
        <ellipse
           ry="349.75104"
           rx="583.8725"
           cy="2557.5896"
           cx="1597.2103"
           style="opacity:0.11499999;fill:none;fill-opacity:1;fill-rule:evenodd;stroke:none;stroke-width:30.2648201;stroke-linecap:butt;stroke-linejoin:miter;stroke-miterlimit:4;stroke-dasharray:none;stroke-opacity:1;paint-order:fill markers stroke"
           id="ellipse849" />
        <ellipse
           style="display:inline;opacity:1;fill:#800080;fill-opacity:1;fill-rule:nonzero;stroke:#800080;stroke-width:1.62963188;stroke-linecap:square;stroke-linejoin:round;stroke-miterlimit:4;stroke-dasharray:none;stroke-opacity:1;paint-order:stroke markers fill"
           id="ellipse2524"
           cx="1596.3088"
           cy="2610.854"
           rx="18.157455"
           ry="16.662048"
           inkscape:transform-center-x="158.74801"
           inkscape:transform-center-y="-82.330124" />
        <ellipse
           inkscape:transform-center-y="-82.330119"
           inkscape:transform-center-x="158.74801"
           ry="16.662048"
           rx="18.157455"
           cy="2538.6101"
           cx="1596.3088"
           id="ellipse2526"
           style="display:inline;opacity:1;fill:#800080;fill-opacity:1;fill-rule:nonzero;stroke:#800080;stroke-width:1.62963188;stroke-linecap:square;stroke-linejoin:round;stroke-miterlimit:4;stroke-dasharray:none;stroke-opacity:1;paint-order:stroke markers fill" />
        <ellipse
           inkscape:transform-center-y="-82.330124"
           inkscape:transform-center-x="158.74801"
           ry="16.662048"
           rx="18.157455"
           cy="2683.0981"
           cx="1596.3088"
           id="ellipse898"
           style="display:inline;opacity:1;fill:#800080;fill-opacity:1;fill-rule:nonzero;stroke:#800080;stroke-width:1.62963188;stroke-linecap:square;stroke-linejoin:round;stroke-miterlimit:4;stroke-dasharray:none;stroke-opacity:1;paint-order:stroke markers fill" />
        <path
           sodipodi:nodetypes="ccccsssssc"
           inkscape:connector-curvature="0"
           d="m 1195.2835,2523.7706 c 116.0523,135.3128 243.0567,210.3211 454.6309,214.7913 5.5882,65.3819 8.8468,114.1328 -4.3983,212.7749 -260.7084,-49.329 -589.4115,-124.7472 -627.7232,-355.7781 -19.14945,-89.0028 22.5939,-178.8244 116.1635,-249.9559 93.5696,-71.1314 231.4085,-117.8278 383.5784,-129.947 152.1699,-12.1191 306.3812,11.3179 429.1396,65.2205 122.7584,53.9026 204.1496,133.9175 226.4956,222.6657 22.346,88.7482 -16.1578,179.0623 -107.1486,251.326 -90.9908,72.2637 -256.2385,129.5436 -407.939,143.527"
           style="display:inline;fill:none;fill-opacity:1;fill-rule:nonzero;stroke:#800080;stroke-width:30;stroke-linecap:square;stroke-linejoin:miter;stroke-miterlimit:4;stroke-dasharray:none;stroke-opacity:1;paint-order:fill markers stroke"
           id="path1261" />
        <ellipse
           inkscape:transform-center-y="-82.330121"
           inkscape:transform-center-x="158.74801"
           ry="16.662048"
           rx="18.157455"
           cy="2884.3542"
           cx="1597.209"
           id="path2513"
           style="display:inline;opacity:1;fill:#800080;fill-opacity:1;fill-rule:nonzero;stroke:#800080;stroke-width:1.62963188;stroke-linecap:square;stroke-linejoin:round;stroke-miterlimit:4;stroke-dasharray:none;stroke-opacity:1;paint-order:stroke markers fill" />
        <path
           inkscape:connector-curvature="0"
           id="path977"
           d="m 1546.7879,2498.9987 v 226.4454"
           style="fill:none;stroke:#800080;stroke-width:30;stroke-linecap:butt;stroke-linejoin:miter;stroke-miterlimit:4;stroke-dasharray:none;stroke-opacity:1" />
        <g
           id="g987"
           transform="translate(869.60068,2627.9307)">
          <path
             sodipodi:nodetypes="cccc"
             style="fill:#800080;fill-opacity:1;stroke:none;stroke-width:1px;stroke-linecap:butt;stroke-linejoin:miter;stroke-opacity:1"
             d="m 486.95145,-383.51332 240.24669,256.58128 -134.80691,24.2193 z"
             id="path867"
             inkscape:connector-curvature="0" />
          <path
             sodipodi:nodetypes="cccc"
             inkscape:connector-curvature="0"
             id="path873"
             d="m 967.85634,-383.07307 -240.24669,256.58128 134.80691,23.77905 z"
             style="fill:#800080;fill-opacity:1;stroke:none;stroke-width:1px;stroke-linecap:butt;stroke-linejoin:miter;stroke-opacity:1" />
          <path
             inkscape:connector-curvature="0"
             id="path982"
             d="M 846.32222,-141.67137 H 619.87678"
             style="fill:none;stroke:#800080;stroke-width:30;stroke-linecap:butt;stroke-linejoin:miter;stroke-miterlimit:4;stroke-dasharray:none;stroke-opacity:1" />
        </g>
      </g>
    </g>
    <g
       transform="translate(2.0568981,158.0872)"
       style="display:inline"
       inkscape:label="Face"
       id="layer6"
       inkscape:groupmode="layer">
      <g
         style="display:inline"
         inkscape:label="Colors"
         id="layer2"
         inkscape:groupmode="layer">
        <ellipse
           transform="scale(-1,1)"
           ry="291.20898"
           rx="290.60321"
           cy="3015.4041"
           cx="-1668.4453"
           id="ellipse1103"
           style="fill:#fff2f6;fill-opacity:1;fill-rule:nonzero;stroke:none;stroke-width:30.26459312;stroke-linecap:butt;stroke-linejoin:miter;stroke-miterlimit:4;stroke-dasharray:none;stroke-opacity:1;paint-order:markers fill stroke" />
      </g>
      <g
         style="display:inline"
         inkscape:label="Shadows"
         id="layer4"
         inkscape:groupmode="layer">
        <path
           sodipodi:nodetypes="ccc"
           inkscape:connector-curvature="0"
           id="ellipse1079"
           d="m 1815.2087,3258.2712 c -178.9332,95.6827 -360.4827,34.1486 -438.1919,-200.6537 110.5456,130.6926 229.8938,218.1911 438.1919,200.6537 z"
           style="display:inline;opacity:0.1;fill:url(#linearGradient2511);fill-opacity:1;fill-rule:nonzero;stroke:none;stroke-width:1.76275754;stroke-linecap:butt;stroke-linejoin:miter;stroke-miterlimit:4;stroke-dasharray:none;stroke-opacity:1;paint-order:stroke fill markers;filter:url(#filter1208)" />
        <path
           sodipodi:nodetypes="ccccccc"
           inkscape:connector-curvature="0"
           id="path1212-0"
           d="m 1381.6598,2985.9713 c 74.9648,-139.3502 161.7681,-192.5266 282.6525,-202.5305 141.9522,4.2563 205.0706,102.8058 283.7653,199.1921 l -16.6921,-161.3568 -259.2835,-104.6037 -280.4269,111.2806 z"
           style="opacity:0.1;fill:#000000;fill-opacity:0.99607843;stroke:none;stroke-width:1px;stroke-linecap:butt;stroke-linejoin:miter;stroke-opacity:1;filter:url(#filter1226)" />
        <path
           sodipodi:nodetypes="cccc"
           inkscape:connector-curvature="0"
           id="path1230"
           d="m 1379.7976,3095.6959 c 98.2358,218.8575 276.9585,257.6309 475.2707,152.6532 -63.0737,47.8012 -145.2903,113.4209 -315.5357,80.2609 -103.3165,-61.0551 -154.7687,-161.3962 -159.735,-232.9141 z"
           style="opacity:0.1;fill:#000000;fill-opacity:0.99607843;stroke:#000000;stroke-width:1px;stroke-linecap:butt;stroke-linejoin:miter;stroke-opacity:1;filter:url(#filter1240)" />
      </g>
      <g
         style="display:inline"
         inkscape:label="Lines"
         id="layer3"
         inkscape:groupmode="layer">
        <g
           transform="matrix(1.1976508,0,0,1.1313391,830.08837,2464.3942)"
           id="g887">
          <path
             sodipodi:nodetypes="cc"
             inkscape:connector-curvature="0"
             id="path1041"
             d="M 870.46509,436.59805 C 853.15859,386.71256 827.44831,336.89506 734.03683,370.33883"
             style="display:inline;fill:none;stroke:#800080;stroke-width:26.00019455;stroke-linecap:butt;stroke-linejoin:miter;stroke-miterlimit:4;stroke-dasharray:none;stroke-opacity:1" />
          <path
             style="display:inline;fill:none;stroke:#800080;stroke-width:26.00019455;stroke-linecap:butt;stroke-linejoin:miter;stroke-miterlimit:4;stroke-dasharray:none;stroke-opacity:1"
             d="m 529.53716,438.47442 c 17.3065,-49.88548 43.01668,-99.70291 136.42817,-66.25921"
             id="path1043"
             inkscape:connector-curvature="0"
             sodipodi:nodetypes="cc" />
          <path
             sodipodi:nodetypes="cc"
             inkscape:connector-curvature="0"
             id="path1047"
             d="M 755.30116,596.46033 C 705.04342,622.65882 643.60043,607.02632 603.20329,569.33622"
             style="display:inline;fill:none;stroke:#800080;stroke-width:26.00019455;stroke-linecap:butt;stroke-linejoin:miter;stroke-miterlimit:4;stroke-dasharray:none;stroke-opacity:1" />
          <path
             style="display:inline;fill:none;stroke:#800080;stroke-width:26.00019455;stroke-linecap:butt;stroke-linejoin:miter;stroke-miterlimit:4;stroke-dasharray:none;stroke-opacity:1"
             d="m 614.38083,532.79175 c -9.3405,17.94455 -24.23833,41.07671 -38.34433,58.31735"
             id="path1049"
             inkscape:connector-curvature="0"
             sodipodi:nodetypes="cc" />
          <path
             style="display:inline;fill:#800080;stroke:none;stroke-width:28.34482384;stroke-linecap:butt;stroke-linejoin:miter;stroke-miterlimit:4;stroke-dasharray:none;stroke-opacity:1;paint-order:stroke markers fill"
             d="m 655.82812,181.61133 c -5.38336,-0.0698 -10.82806,0.17497 -16.23632,0.55664 -24.5175,1.7302 -56.89832,21.45994 -81.08203,31.45117 -38.45274,15.88632 -51.62645,58.51253 -108.99415,81.12305 -18.97816,7.47993 -35.22293,79.18554 -32.92968,79.18554 36.72642,-12.66341 -9.95238,100.30195 -16.80664,99.08789 31.64209,62.24926 85.02815,-11.71906 84.63867,-25.6875 -2.32008,-83.20869 51.71362,-129.86775 34.95312,-86.71093 -3.46613,8.92498 51.10846,-34.06103 51.10547,-53.57422 10.84931,8.60494 29.84121,16.8389 49.56641,1.72265 -21.30191,13.66675 -5.25064,-59.88859 79.95898,-35.9375 85.20962,-23.95109 101.25894,49.60425 79.95703,35.9375 19.7252,15.11625 38.7171,6.88229 49.56641,-1.72265 -0.003,19.51319 54.5716,62.4992 51.10547,53.57422 -16.7605,-43.15682 37.2732,3.50224 34.95312,86.71093 -0.38948,13.96844 52.99659,87.93676 84.63872,25.6875 -6.8543,1.21406 -53.5331,-111.7513 -16.80668,-99.08789 2.29325,0 -13.95152,-71.70561 -32.92969,-79.18554 -57.36769,-22.61052 -70.5414,-65.23673 -108.99414,-81.12305 -24.18371,-9.99123 -56.56453,-29.72097 -81.08203,-31.45117 -21.63305,-1.52666 -43.84349,-0.88219 -60.40821,13.45703 -12.42354,-10.75441 -28.02374,-13.80423 -44.17383,-14.01367 z"
             id="path843"
             inkscape:connector-curvature="0" />
          <ellipse
             transform="scale(-1,1)"
             ry="257.40204"
             rx="242.64435"
             cy="487.04227"
             cx="-700.0011"
             id="ellipse1039"
             style="display:inline;fill:none;fill-opacity:1;fill-rule:nonzero;stroke:#800080;stroke-width:26.00019455;stroke-linecap:butt;stroke-linejoin:miter;stroke-miterlimit:4;stroke-dasharray:none;stroke-opacity:1;paint-order:markers fill stroke" />
        </g>
      </g>
    </g>
    <g
       inkscape:label="Hands"
       id="layer8"
       inkscape:groupmode="layer">
      <path
         sodipodi:nodetypes="sssssscss"
         inkscape:connector-curvature="0"
         id="path70"
         d="m 1741.192,3832.9862 c -25.0217,36.7821 -13.6165,89.7871 -4.7212,133.3748 2.2876,11.2094 5.1187,24.6161 14.5571,31.0814 23.7504,16.2689 60.7751,14.4705 89.5009,12.5784 30.3094,-1.9965 60.9338,-15.7635 85.9716,-24.7749 37.4284,-13.471 24.2684,-78.0813 20.0652,-117.6374 -4.4598,-41.9709 -43.1051,-31.169 -76.3729,-35.6628 -7.1191,-39.7155 -54.4588,-28.1009 -85.7227,-17.8445 -14.9554,4.9063 -34.425,5.8711 -43.278,18.885 z"
         style="fill:#fff2f6;fill-opacity:1;stroke:#800080;stroke-width:30;stroke-linecap:butt;stroke-linejoin:miter;stroke-miterlimit:4;stroke-dasharray:none;stroke-opacity:1" />
      <path
         sodipodi:nodetypes="cscc"
         transform="matrix(-1.0032524,0,0,-0.93331317,2792.5409,4993.3362)"
         inkscape:connector-curvature="0"
         id="path892"
         d="m 928.63591,1232.7743 c 4.75958,-0.025 -1.43362,17.2306 1.77675,9.218 9.0516,-22.5915 63.49319,-19.569 59.98394,-26.4665 -29.4472,-1.478 -38.91746,0.9947 -61.76069,17.2485 z"
         style="opacity:0.1;fill:#000000;fill-opacity:1;stroke:none;stroke-width:1px;stroke-linecap:butt;stroke-linejoin:miter;stroke-opacity:1;filter:url(#filter934)" />
      <path
         style="opacity:0.1;fill:#000000;fill-opacity:1;stroke:none;stroke-width:1px;stroke-linecap:butt;stroke-linejoin:miter;stroke-opacity:1;filter:url(#filter934)"
         d="m 932.24211,1212.3509 c -7.98821,8.2712 -24.16803,34.104 0.91997,43.036 -5.03887,-40.2186 57.04113,-25.2044 65.78827,-36.6355 -28.10451,-17.1909 -64.9856,12.0875 -66.70824,-6.4005 z"
         id="path946"
         inkscape:connector-curvature="0"
         transform="matrix(-1.8930295,0.22886884,-0.10286903,-0.8508546,3824.0069,4712.0571)"
         sodipodi:nodetypes="cccc" />
      <path
         sodipodi:nodetypes="cccc"
         transform="matrix(-1.8930295,0.22886884,-0.10286903,-0.8508546,3828.2075,4763.5149)"
         inkscape:connector-curvature="0"
         id="path948"
         d="m 933.20044,1213.4314 c -4.70561,4.0116 -8.85172,29.5843 -1.91317,62.8447 -10.6475,-63.1817 57.45028,-38.7231 67.66308,-57.5247 -29.26579,-12.2977 -67.5305,15.845 -65.74991,-5.32 z"
         style="opacity:0.1;fill:#000000;fill-opacity:1;stroke:none;stroke-width:1px;stroke-linecap:butt;stroke-linejoin:miter;stroke-opacity:1;filter:url(#filter934)" />
    </g>
  </g>
</svg>
