<?xml version="1.0" encoding="UTF-8" standalone="no"?>
<!-- Created with Inkscape (http://www.inkscape.org/) -->

<svg
   xmlns:dc="http://purl.org/dc/elements/1.1/"
   xmlns:cc="http://creativecommons.org/ns#"
   xmlns:rdf="http://www.w3.org/1999/02/22-rdf-syntax-ns#"
   xmlns:svg="http://www.w3.org/2000/svg"
   xmlns="http://www.w3.org/2000/svg"
   xmlns:xlink="http://www.w3.org/1999/xlink"
   xmlns:sodipodi="http://sodipodi.sourceforge.net/DTD/sodipodi-0.dtd"
   xmlns:inkscape="http://www.inkscape.org/namespaces/inkscape"
   width="8000"
   height="2400"
   viewBox="0 0 8000 2400"
   version="1.1"
   id="svg8"
   inkscape:version="0.92.4 (5da689c313, 2019-01-14)"
   sodipodi:docname="logo-wide-url-no-icon.svg"
   inkscape:export-filename="C:\Users\Matt\Workspace\affableally.com\source\images\logo-wide-url-no-icon.png"
   inkscape:export-xdpi="19.200001"
   inkscape:export-ydpi="19.200001">
  <defs
     id="defs2">
    <linearGradient
       id="linearGradient838"
       inkscape:collect="always">
      <stop
         id="stop834"
         offset="0"
         style="stop-color:#ff00ff;stop-opacity:1;" />
      <stop
         id="stop836"
         offset="1"
         style="stop-color:#ffaaff;stop-opacity:1" />
    </linearGradient>
    <radialGradient
       inkscape:collect="always"
       xlink:href="#linearGradient838"
       id="radialGradient827"
       cx="57.282288"
       cy="139.57292"
       fx="57.282288"
       fy="139.57292"
       r="22.357292"
       gradientTransform="matrix(1,0,0,0.88165678,0,16.517509)"
       gradientUnits="userSpaceOnUse"
       spreadMethod="reflect" />
  </defs>
  <sodipodi:namedview
     id="base"
     pagecolor="#ffffff"
     bordercolor="#666666"
     borderopacity="1.0"
     inkscape:pageopacity="0.0"
     inkscape:pageshadow="2"
     inkscape:zoom="0.1767767"
     inkscape:cx="4731.9917"
     inkscape:cy="1637.5878"
     inkscape:document-units="px"
     inkscape:current-layer="g2091"
     showgrid="false"
     inkscape:window-width="1920"
     inkscape:window-height="1001"
     inkscape:window-x="-9"
     inkscape:window-y="-9"
     inkscape:window-maximized="1"
     showguides="true"
     inkscape:guide-bbox="true"
     fit-margin-top="200"
     fit-margin-left="200"
     fit-margin-right="200"
     fit-margin-bottom="200"
     units="px"
     inkscape:pagecheckerboard="true">
    <inkscape:grid
       type="xygrid"
       id="grid1014" />
  </sodipodi:namedview>
  <metadata
     id="metadata5">
    <rdf:RDF>
      <cc:Work
         rdf:about="">
        <dc:format>image/svg+xml</dc:format>
        <dc:type
           rdf:resource="http://purl.org/dc/dcmitype/StillImage" />
        <dc:title />
      </cc:Work>
    </rdf:RDF>
  </metadata>
  <g
     inkscape:label="Layer 1"
     inkscape:groupmode="layer"
     id="layer1"
     transform="translate(-106.01294,1740.1318)">
    <g
       id="g2091"
       transform="matrix(6.6734471,0,0,7.5051013,-384.37876,-1801.3846)">
      <g
         id="g957"
         transform="translate(14.98476,-2.6648541)">
        <path
           sodipodi:nodetypes="ccssscccccscscscccscccscscccccsccccccccccscsccccccssccc"
           id="path969"
           d="m 796.99863,121.17714 -32.84355,67.64566 h -8.83721 c -4.02871,0 -7.89416,0.29007 -11.58773,0.91396 -3.05156,0.51545 -3.30394,0.53166 -6.24413,1.36001 -1.80955,0.50981 -3.5837,1.07562 -5.30877,1.73581 -1.45926,0.56373 -2.85706,1.1783 -4.19544,1.84224 -3.90087,1.03595 -7.79315,-0.78286 -9.54049,-1.46644 -2.62314,-1.04417 -5.30437,-2.64417 -8.04406,-4.79985 1.25328,0.57261 2.56484,1.01055 3.93467,1.31368 1.36986,0.26948 2.84163,0.40415 4.41553,0.40415 6.38295,0 11.68754,-1.81871 15.91369,-5.45644 4.25531,-3.63774 6.38286,-8.15129 6.38286,-13.54053 0,-5.35555 -2.30258,-9.80163 -6.90762,-13.33832 -4.60508,-3.53669 -10.44885,-5.30499 -17.53129,-5.30499 -3.70152,0 -7.09695,0.69052 -10.18642,2.07151 -3.06035,1.38099 -5.75632,3.41867 -8.08796,6.11328 -2.41912,2.79567 -4.29907,6.07969 -5.63977,9.85215 -1.31155,3.73879 -1.96733,7.62931 -1.96733,11.67124 0,7.64597 2.41914,13.79289 7.25736,18.4411 3.97992,3.77318 9.03223,6.00281 15.15567,6.69077 -0.32959,0.48452 -0.64951,0.97715 -0.95703,1.47998 -2.73314,4.48385 -4.09974,9.07558 -4.09974,13.775 0,5.51858 1.83731,9.70064 5.51187,12.54616 2.91538,2.24192 6.49884,3.36282 10.7504,3.36282 14.60719,0 29.56376,-13.10662 44.86941,-39.31988 h 13.9844 l -8.56385,33.62895 h 16.30793 l 8.56385,-33.62895 h 10.14954 c 5.86111,0 9.56599,-3.44915 11.11478,-10.34739 h -18.80442 l 16.99103,-67.64566 z m 3.462,10.73541 -15.03247,56.91025 h -10.15832 z m -85.82287,28.25318 c 0.61197,0.84207 1.06349,1.73449 1.35507,2.6776 0.29156,0.94312 0.43754,2.00411 0.43754,3.183 0,2.42515 -0.72867,4.41242 -2.18596,5.96182 -1.4573,1.54942 -3.33723,2.32421 -5.63977,2.32421 -1.31156,0 -2.59388,-0.23577 -3.84716,-0.70733 -1.25328,-0.50525 -2.34643,-1.19576 -3.2791,-2.07151 1.25328,-3.23354 2.97268,-5.79344 5.15862,-7.67967 2.21511,-1.91991 4.88217,-3.14919 8.00076,-3.68812 z m 43.3677,39.00446 c -2.67241,5.34612 -6.48344,10.62765 -11.43349,15.84443 -5.6485,6.03595 -10.3557,9.05374 -14.12138,9.05374 -2.73313,0 -4.09973,-1.85378 -4.09973,-5.56158 0,-4.3545 1.89787,-8.47177 5.69391,-12.35201 3.51109,-3.07052 6.19297,-4.24532 10.44924,-5.5163 3.79026,-0.9779 8.29258,-1.46828 13.51145,-1.46828 z"
           style="font-style:normal;font-variant:normal;font-weight:normal;font-stretch:normal;font-size:128.67851257px;line-height:0px;font-family:'Fira Code';-inkscape-font-specification:'Fira Code';letter-spacing:0px;word-spacing:0px;fill:#ff00ff;fill-opacity:1;stroke:#800080;stroke-width:3.89272261;stroke-miterlimit:4;stroke-dasharray:none"
           inkscape:connector-curvature="0" />
        <path
           d="m 891.92997,188.82285 q -1.13881,5.69103 -5.23854,8.40721 -2.86981,1.94012 -6.1496,1.94012 H 863.0041 q -6.74176,0 -6.74176,-6.53175 0,-1.68144 0.50107,-3.81558 l 16.89999,-67.64574 h 16.1256 l -16.9911,67.64574 z"
           style="font-style:normal;font-variant:normal;font-weight:bold;font-stretch:semi-expanded;font-size:128.67851257px;line-height:0px;font-family:Magneto;-inkscape-font-specification:'Magneto, Bold Semi-Expanded';font-variant-ligatures:normal;font-variant-caps:normal;font-variant-numeric:normal;font-feature-settings:normal;text-align:start;letter-spacing:0px;word-spacing:0px;writing-mode:lr-tb;text-anchor:start;fill:#ff00ff;fill-opacity:1;stroke:#800080;stroke-width:3.89272237;stroke-miterlimit:4;stroke-dasharray:none"
           id="path971"
           inkscape:connector-curvature="0" />
        <path
           d="m 856.08012,188.82285 q -1.13881,5.69103 -5.23854,8.40721 -2.86981,1.94012 -6.1496,1.94012 h -17.53772 q -6.74177,0 -6.74177,-6.53175 0,-1.68144 0.50107,-3.81558 l 16.89999,-67.64574 h 16.1256 l -16.9911,67.64574 z"
           style="font-style:normal;font-variant:normal;font-weight:bold;font-stretch:semi-expanded;font-size:128.67851257px;line-height:0px;font-family:Magneto;-inkscape-font-specification:'Magneto, Bold Semi-Expanded';font-variant-ligatures:normal;font-variant-caps:normal;font-variant-numeric:normal;font-feature-settings:normal;text-align:start;letter-spacing:0px;word-spacing:0px;writing-mode:lr-tb;text-anchor:start;fill:#ff00ff;fill-opacity:1;stroke:#800080;stroke-width:3.89272237;stroke-miterlimit:4;stroke-dasharray:none"
           id="path973"
           inkscape:connector-curvature="0" />
        <path
           d="m 952.28707,188.82285 q -2.6876,10.34733 -10.06711,10.34733 h -11.11482 q -3.96306,15.26234 -8.33611,22.63482 -6.10404,10.21799 -15.16899,10.21799 -5.69407,0 -8.79164,-4.72097 -2.6876,-4.13894 -2.6876,-10.67069 0,-5.17368 1.54878,-10.02399 1.59434,-4.85032 4.14529,-7.43716 h -3.462 q -3.00646,0 -5.01078,-2.58683 -1.95876,-2.6515 -1.95876,-6.59643 0,-1.81078 0.45554,-3.68624 l 7.92612,-31.10669 h 16.53558 l -8.51833,33.62886 h 9.24718 l 8.38166,-33.62886 h 16.44446 l -8.38167,33.62886 z M 914.1596,200.9163 q -3.00647,0 -5.60296,4.78565 -2.55094,4.8503 -2.55094,9.63596 0,4.26828 2.64205,6.85511 z"
           style="font-style:normal;font-variant:normal;font-weight:bold;font-stretch:semi-expanded;font-size:128.67851257px;line-height:0px;font-family:Magneto;-inkscape-font-specification:'Magneto, Bold Semi-Expanded';font-variant-ligatures:normal;font-variant-caps:normal;font-variant-numeric:normal;font-feature-settings:normal;text-align:start;letter-spacing:0px;word-spacing:0px;writing-mode:lr-tb;text-anchor:start;fill:#ff00ff;fill-opacity:1;stroke:#800080;stroke-width:3.89272237;stroke-miterlimit:4;stroke-dasharray:none"
           id="path975"
           inkscape:connector-curvature="0" />
        <path
           d="m 974.03515,190.82765 q 0,4.26826 -2.3232,7.3078 -2.3232,3.03953 -5.603,3.03953 -3.3254,0 -5.64851,-3.03953 -2.27761,-3.03954 -2.27761,-7.3078 0,-4.26829 2.27761,-7.30781 2.32311,-3.03953 5.64851,-3.03953 3.2798,0 5.603,3.03953 2.3232,3.03952 2.3232,7.30781 z"
           style="font-style:normal;font-variant:normal;font-weight:bold;font-stretch:semi-expanded;font-size:128.67851257px;line-height:0px;font-family:Magneto;-inkscape-font-specification:'Magneto, Bold Semi-Expanded';font-variant-ligatures:normal;font-variant-caps:normal;font-variant-numeric:normal;font-feature-settings:normal;text-align:start;letter-spacing:0px;word-spacing:0px;writing-mode:lr-tb;text-anchor:start;fill:none;fill-opacity:1;stroke:#800080;stroke-width:3.89272237;stroke-miterlimit:4;stroke-dasharray:none"
           id="path977"
           inkscape:connector-curvature="0" />
        <path
           d="m 1037.5614,188.82285 q -1.0022,5.04433 -4.1909,7.82517 -2.9153,2.52216 -6.7873,2.52216 h -27.42255 q -7.8351,0 -13.1647,-3.75091 -6.7418,-4.72097 -6.7418,-14.22759 0,-1.03473 0.091,-2.13414 0.9111,-11.57609 8.4728,-18.10784 6.6507,-5.75571 15.71555,-5.75571 h 11.4793 q 3.872,0 6.6051,3.49223 2.7332,3.49223 2.7332,8.53655 0,5.109 -2.7788,8.66589 -2.7331,3.55692 -6.5595,3.55692 -3.872,0 -6.6051,-3.55692 -2.6877,-3.62156 -2.6421,-8.79523 0,0 0,-1.5521 h -5.5119 l -3.55305,14.29226 q -0.4555,1.81079 -0.4555,3.29822 0,5.69104 6.33175,5.69104 z"
           style="font-style:normal;font-variant:normal;font-weight:bold;font-stretch:semi-expanded;font-size:128.67851257px;line-height:0px;font-family:Magneto;-inkscape-font-specification:'Magneto, Bold Semi-Expanded';font-variant-ligatures:normal;font-variant-caps:normal;font-variant-numeric:normal;font-feature-settings:normal;text-align:start;letter-spacing:0px;word-spacing:0px;writing-mode:lr-tb;text-anchor:start;fill:none;fill-opacity:1;stroke:#800080;stroke-width:3.89272237;stroke-miterlimit:4;stroke-dasharray:none"
           id="path979"
           inkscape:connector-curvature="0" />
        <path
           style="font-style:normal;font-variant:normal;font-weight:bold;font-stretch:semi-expanded;font-size:128.67851257px;line-height:0px;font-family:Magneto;-inkscape-font-specification:'Magneto, Bold Semi-Expanded';font-variant-ligatures:normal;font-variant-caps:normal;font-variant-numeric:normal;font-feature-settings:normal;text-align:start;letter-spacing:0px;word-spacing:0px;writing-mode:lr-tb;text-anchor:start;fill:none;fill-opacity:1;stroke:#800080;stroke-width:3.89272237;stroke-miterlimit:4;stroke-dasharray:none"
           d="m 1136.4104,153.44788 c -4.3426,0 -8.2602,2.04791 -11.7525,6.14373 l -13.9847,16.29713 5.1474,-20.69479 h -1.4121 -15.0324 -41.4983 c -6.6809,0 -12.0259,1.96161 -16.0346,5.88497 -3.7657,3.7078 -6.0432,8.8169 -6.8327,15.3271 -0.1518,1.16407 -0.2278,2.32806 -0.2278,3.49214 0,5.90659 1.7158,10.67073 5.1474,14.29229 3.8568,4.09584 9.3687,6.10071 16.5356,6.01448 6.1648,-0.0431 11.1756,-2.02636 15.0324,-5.94972 4.039,-4.09582 6.271,-9.74389 6.6961,-16.94391 0.1215,-1.85389 -0.1366,-4.03113 -0.7743,-6.53174 -0.6378,-2.54373 -1.4578,-4.28971 -2.4599,-5.23821 h 21.8544 l -8.3254,33.6288 h 9.2927 c 2.308,0 4.2366,-0.92697 5.7854,-2.78086 l 18.1299,-21.47057 -3.6443,13.90402 c -0.4555,1.68144 -0.6833,3.23369 -0.6833,4.65644 0,4.39762 2.065,6.5965 6.1952,6.5965 2.7634,0 6.0888,-2.28518 9.976,-6.85526 l 15.3968,-18.3017 c -1.3363,6.07906 -2.3384,10.7136 -3.0065,13.90402 -0.1215,0.6467 -0.1822,1.315 -0.1822,2.00484 0,2.15569 0.6073,4.09592 1.8221,5.82047 1.2451,1.68144 2.5964,2.5221 4.0541,2.5221 h 18.4945 c 6.0129,0 9.4597,-3.44919 10.3404,-10.34741 h -18.6768 l 5.8764,-23.28139 c 0.486,-1.89701 0.7288,-3.6216 0.7288,-5.1737 0,-4.61319 -1.9131,-6.91977 -5.7396,-6.91977 -4.0389,0 -7.7136,2.00488 -11.0237,6.01449 l -13.6201,16.42637 3.2797,-12.86948 c 0.334,-1.33654 0.5011,-2.56544 0.5011,-3.68639 0,-3.92338 -1.7917,-5.88499 -5.3752,-5.88499 z m -82.0856,12.09347 h 10.4316 l -6.0586,24.5102 c -0.4252,0.0431 -0.9263,0.0647 -1.5034,0.0647 -4.8589,0 -7.2883,-1.85393 -7.2883,-5.56172 0,-0.77605 0.1063,-1.59532 0.3188,-2.45761 z"
           id="path981"
           inkscape:connector-curvature="0" />
        <path
           inkscape:connector-curvature="0"
           d="m 401.69812,166.4306 -6.07694,-20.15911 -5.90206,24.85785 z m 35.2811,29.00082 -38.12285,13.64149 9.7493,-15.1067 -2.75428,-11.16581 -14.16493,1.2631 -4.10955,13.03521 6.16435,5.55764 -41.44551,3.43564 10.09907,-8.69014 13.42173,-60.32574 -7.60709,-5.70922 51.41337,1.97044 -11.97899,4.95136 21.02882,54.26285 z"
           style="font-style:normal;font-variant:normal;font-weight:normal;font-stretch:normal;font-size:15.43614483px;line-height:1.15000629em;font-family:'Snap ITC';-inkscape-font-specification:'Snap ITC, Normal';font-variant-ligatures:normal;font-variant-caps:normal;font-variant-numeric:normal;font-feature-settings:normal;text-align:center;letter-spacing:0px;word-spacing:-0.16933332px;writing-mode:lr-tb;text-anchor:middle;fill:#ff00ff;fill-opacity:1;stroke:#800080;stroke-width:4.27217674;stroke-miterlimit:4;stroke-dasharray:none;stroke-opacity:1;paint-order:fill markers stroke"
           id="path1219" />
        <path
           inkscape:connector-curvature="0"
           d="m 488.43633,130.65956 -10.27389,20.1591 q -1.09298,-2.17254 -2.7106,-3.23354 -1.57389,-1.11153 -3.67237,-1.11153 -3.14778,0 -4.54678,2.87987 -1.35527,2.87988 -1.35527,9.448 0,1.16205 0,1.91992 0.0464,0.75786 0.13109,1.46519 l 11.84783,-0.50522 8.96236,-8.79119 -3.67237,28.5461 -7.60708,-8.69014 -8.4815,1.2631 q 0.91809,7.42704 2.18595,14.24779 1.26785,6.77022 2.88548,12.98469 l 8.78747,4.54717 -38.95353,1.97044 10.05534,-8.48806 q -1.96734,-9.39747 -2.92917,-14.24778 -0.96182,-4.90084 -1.57388,-8.23543 l -5.02764,0.85891 -6.16435,9.80167 -3.23524,-32.08278 6.38296,7.67966 5.72717,-0.20211 q -0.43735,-3.53669 -0.69948,-6.87128 -0.21867,-3.33458 -0.21867,-6.36603 0,-9.34695 4.6342,-14.14674 4.63419,-4.79978 13.55287,-4.79978 4.28443,0 8.39404,1.41467 4.15327,1.36415 8.00053,4.04192 z"
           style="font-style:normal;font-variant:normal;font-weight:normal;font-stretch:normal;font-size:15.43614483px;line-height:1.15000629em;font-family:'Snap ITC';-inkscape-font-specification:'Snap ITC, Normal';font-variant-ligatures:normal;font-variant-caps:normal;font-variant-numeric:normal;font-feature-settings:normal;text-align:center;letter-spacing:0px;word-spacing:-0.16933332px;writing-mode:lr-tb;text-anchor:middle;fill:#ff00ff;fill-opacity:1;stroke:#800080;stroke-width:4.27217674;stroke-miterlimit:4;stroke-dasharray:none;stroke-opacity:1;paint-order:fill markers stroke"
           id="path1221" />
        <path
           inkscape:connector-curvature="0"
           d="m 543.91557,130.65956 -10.27389,20.1591 q -1.09298,-2.17254 -2.7106,-3.23354 -1.57389,-1.11153 -3.67237,-1.11153 -3.14777,0 -4.54678,2.87987 -1.35527,2.87988 -1.35527,9.448 0,1.16205 0,1.91992 0.0464,0.75786 0.13109,1.46519 l 11.84784,-0.50522 8.96236,-8.79119 -3.67237,28.5461 -7.60709,-8.69014 -8.4815,1.2631 q 0.91809,7.42704 2.18595,14.24779 1.26785,6.77022 2.88548,12.98469 l 8.78747,4.54717 -38.95352,1.97044 10.05533,-8.48806 q -1.96734,-9.39747 -2.92917,-14.24778 -0.96182,-4.90084 -1.57388,-8.23543 l -5.02763,0.85891 -6.16436,9.80167 -3.23525,-32.08278 6.38297,7.67966 5.72718,-0.20211 q -0.43736,-3.53669 -0.69948,-6.87128 -0.21868,-3.33458 -0.21868,-6.36603 0,-9.34695 4.6342,-14.14674 4.63425,-4.79978 13.55287,-4.79978 4.28443,0 8.39404,1.41467 4.15327,1.36415 8.00053,4.04192 z"
           style="font-style:normal;font-variant:normal;font-weight:normal;font-stretch:normal;font-size:15.43614483px;line-height:1.15000629em;font-family:'Snap ITC';-inkscape-font-specification:'Snap ITC, Normal';font-variant-ligatures:normal;font-variant-caps:normal;font-variant-numeric:normal;font-feature-settings:normal;text-align:center;letter-spacing:0px;word-spacing:-0.16933332px;writing-mode:lr-tb;text-anchor:middle;fill:#ff00ff;fill-opacity:1;stroke:#800080;stroke-width:4.27217674;stroke-miterlimit:4;stroke-dasharray:none;stroke-opacity:1;paint-order:fill markers stroke"
           id="path1223" />
        <path
           inkscape:connector-curvature="0"
           d="m 567.13034,164.91488 q -1.13671,1.51572 -1.6613,3.23353 -0.52495,1.71783 -0.52495,3.99141 0,4.44611 2.49199,7.47756 2.53571,2.98092 6.20808,2.98092 1.31153,0 2.71054,-0.60631 1.39901,-0.65679 2.84174,-1.8694 -2.798,-5.96184 -5.85832,-9.75114 -3.01662,-3.83983 -6.20808,-5.4566 z m 30.60323,-10.55954 -6.4267,3.38512 1.31153,42.33917 5.0277,4.44612 -19.23631,2.77882 3.27892,-15.40984 q -4.02213,7.62914 -9.31212,11.51949 -5.24625,3.89035 -11.45434,3.89035 -7.43221,0 -12.54731,-7.02285 -5.07138,-7.07336 -5.07138,-17.48132 0,-13.28784 5.46482,-21.8264 5.46488,-8.5891 13.77149,-8.5891 6.2955,0 11.06085,3.83984 4.80907,3.7893 8.08799,11.36791 l -2.75427,-15.61194 z"
           style="font-style:normal;font-variant:normal;font-weight:normal;font-stretch:normal;font-size:15.43614483px;line-height:1.15000629em;font-family:'Snap ITC';-inkscape-font-specification:'Snap ITC, Normal';font-variant-ligatures:normal;font-variant-caps:normal;font-variant-numeric:normal;font-feature-settings:normal;text-align:center;letter-spacing:0px;word-spacing:-0.16933332px;writing-mode:lr-tb;text-anchor:middle;fill:#ff00ff;fill-opacity:1;stroke:#800080;stroke-width:4.27217674;stroke-miterlimit:4;stroke-dasharray:none;stroke-opacity:1;paint-order:fill markers stroke"
           id="path1225" />
        <path
           inkscape:connector-curvature="0"
           d="m 615.52714,179.71843 q 0.78694,1.56624 2.09847,2.32411 1.35527,0.75786 3.27893,0.75786 3.41008,0 5.98947,-3.38511 2.62312,-3.38512 2.62312,-7.78071 0,-1.71782 -0.56844,-3.28407 -0.52436,-1.56624 -1.79245,-3.33459 -4.06587,2.47568 -6.99502,6.16394 -2.92917,3.68826 -4.6342,8.53857 z m 5.46481,-45.118 -6.99496,31.42598 q 4.80907,-6.61866 9.57441,-9.80167 4.80908,-3.23355 9.96793,-3.23355 7.95679,0 13.59655,6.9218 5.6397,6.87128 5.6397,16.67294 0,12.17631 -8.00053,20.05807 -8.00053,7.83122 -21.81571,9.14485 l -24.61371,2.27358 6.99497,-7.37651 -1.44269,-64.014 -5.20257,-3.43564 28.46102,-2.37463 z"
           style="font-style:normal;font-variant:normal;font-weight:normal;font-stretch:normal;font-size:15.43614483px;line-height:1.15000629em;font-family:'Snap ITC';-inkscape-font-specification:'Snap ITC, Normal';font-variant-ligatures:normal;font-variant-caps:normal;font-variant-numeric:normal;font-feature-settings:normal;text-align:center;letter-spacing:0px;word-spacing:-0.16933332px;writing-mode:lr-tb;text-anchor:middle;fill:#ff00ff;fill-opacity:1;stroke:#800080;stroke-width:4.27217674;stroke-miterlimit:4;stroke-dasharray:none;stroke-opacity:1;paint-order:fill markers stroke"
           id="path1227" />
        <path
           inkscape:connector-curvature="0"
           d="m 689.14971,205.99095 -36.37413,2.07148 10.01165,-6.61865 -0.78694,-58.05216 -9.04983,-1.86939 34.31933,-11.16582 -8.00058,71.49157 z"
           style="font-style:normal;font-variant:normal;font-weight:normal;font-stretch:normal;font-size:15.43614483px;line-height:1.15000629em;font-family:'Snap ITC';-inkscape-font-specification:'Snap ITC, Normal';font-variant-ligatures:normal;font-variant-caps:normal;font-variant-numeric:normal;font-feature-settings:normal;text-align:center;letter-spacing:0px;word-spacing:-0.16933332px;writing-mode:lr-tb;text-anchor:middle;fill:#ff00ff;fill-opacity:1;stroke:#800080;stroke-width:4.27217674;stroke-miterlimit:4;stroke-dasharray:none;stroke-opacity:1;paint-order:fill markers stroke"
           id="path1229" />
      </g>
    </g>
  </g>
</svg>
