<?xml version="1.0" encoding="UTF-8" standalone="no"?>
<!-- Created with Inkscape (http://www.inkscape.org/) -->

<svg
   xmlns:dc="http://purl.org/dc/elements/1.1/"
   xmlns:cc="http://creativecommons.org/ns#"
   xmlns:rdf="http://www.w3.org/1999/02/22-rdf-syntax-ns#"
   xmlns:svg="http://www.w3.org/2000/svg"
   xmlns="http://www.w3.org/2000/svg"
   xmlns:xlink="http://www.w3.org/1999/xlink"
   xmlns:sodipodi="http://sodipodi.sourceforge.net/DTD/sodipodi-0.dtd"
   xmlns:inkscape="http://www.inkscape.org/namespaces/inkscape"
   width="4000"
   height="2402"
   viewBox="0 0 4000 2402"
   version="1.1"
   id="svg8"
   inkscape:version="0.92.4 (5da689c313, 2019-01-14)"
   sodipodi:docname="logo.svg"
   inkscape:export-filename="C:\Users\Matt\Workspace\affableally.com\source\images\logo.png"
   inkscape:export-xdpi="19.200001"
   inkscape:export-ydpi="19.200001">
  <defs
     id="defs2">
    <linearGradient
       id="linearGradient838"
       inkscape:collect="always">
      <stop
         id="stop834"
         offset="0"
         style="stop-color:#ff00ff;stop-opacity:1;" />
      <stop
         id="stop836"
         offset="1"
         style="stop-color:#ffaaff;stop-opacity:1" />
    </linearGradient>
    <radialGradient
       inkscape:collect="always"
       xlink:href="#linearGradient838"
       id="radialGradient827"
       cx="57.282288"
       cy="139.57292"
       fx="57.282288"
       fy="139.57292"
       r="22.357292"
       gradientTransform="matrix(1,0,0,0.88165678,0,16.517509)"
       gradientUnits="userSpaceOnUse"
       spreadMethod="reflect" />
    <inkscape:perspective
       id="perspective2572"
       inkscape:persp3d-origin="700 : 466.66667 : 1"
       inkscape:vp_z="1400 : 700 : 1"
       inkscape:vp_y="0 : 1000 : 0"
       inkscape:vp_x="0 : 700 : 1"
       sodipodi:type="inkscape:persp3d" />
    <radialGradient
       spreadMethod="reflect"
       gradientUnits="userSpaceOnUse"
       gradientTransform="matrix(1,0,0,0.88165678,0,16.517509)"
       r="22.357292"
       fy="139.57292"
       fx="57.282288"
       cy="139.57292"
       cx="57.282288"
       id="radialGradient827-2"
       xlink:href="#linearGradient838"
       inkscape:collect="always" />
    <linearGradient
       id="linearGradient965"
       inkscape:collect="always">
      <stop
         id="stop961"
         offset="0"
         style="stop-color:#000000;stop-opacity:1;" />
      <stop
         id="stop963"
         offset="1"
         style="stop-color:#000000;stop-opacity:0;" />
    </linearGradient>
    <inkscape:perspective
       id="perspective2572-9"
       inkscape:persp3d-origin="700 : 466.66667 : 1"
       inkscape:vp_z="1400 : 700 : 1"
       inkscape:vp_y="0 : 1000 : 0"
       inkscape:vp_x="0 : 700 : 1"
       sodipodi:type="inkscape:persp3d" />
    <linearGradient
       inkscape:collect="always"
       id="linearGradient1339">
      <stop
         style="stop-color:#ffffff;stop-opacity:0.2311828"
         offset="0"
         id="stop1335" />
      <stop
         style="stop-color:#000000;stop-opacity:0.14117648"
         offset="1"
         id="stop1337" />
    </linearGradient>
    <linearGradient
       id="linearGradient1071"
       inkscape:collect="always">
      <stop
         id="stop1067"
         offset="0"
         style="stop-color:#000000;stop-opacity:1;" />
      <stop
         id="stop1069"
         offset="1"
         style="stop-color:#000000;stop-opacity:0.14117648" />
    </linearGradient>
    <radialGradient
       spreadMethod="reflect"
       gradientUnits="userSpaceOnUse"
       gradientTransform="matrix(1,0,0,0.88165678,0,16.517509)"
       r="22.357292"
       fy="139.57292"
       fx="57.282288"
       cy="139.57292"
       cx="57.282288"
       id="radialGradient827-8"
       xlink:href="#linearGradient838"
       inkscape:collect="always" />
    <linearGradient
       y2="136.29828"
       x2="590.97107"
       y1="290.31403"
       x1="502.89371"
       gradientTransform="matrix(0.54906705,0,0,0.64405338,474.41316,-198.27131)"
       gradientUnits="userSpaceOnUse"
       id="linearGradient1049"
       xlink:href="#linearGradient1071"
       inkscape:collect="always" />
    <linearGradient
       y2="136.29828"
       x2="590.97107"
       y1="280.29828"
       x1="430.56122"
       gradientTransform="matrix(1.1788483,0,0,1.3195357,-65.995486,-75.186574)"
       gradientUnits="userSpaceOnUse"
       id="linearGradient1226"
       xlink:href="#linearGradient1071"
       inkscape:collect="always" />
    <linearGradient
       gradientTransform="matrix(1.1050247,0.57595962,0,1.2816598,2671.3553,2172.6935)"
       gradientUnits="userSpaceOnUse"
       y2="391.78055"
       x2="943.90717"
       y1="271.5961"
       x1="518.8009"
       id="linearGradient2511"
       xlink:href="#linearGradient1339"
       inkscape:collect="always" />
    <radialGradient
       gradientUnits="userSpaceOnUse"
       gradientTransform="matrix(1,0,0,0.60674305,0,405.58891)"
       r="582.5528"
       fy="1373.6064"
       fx="538.1922"
       cy="1373.6064"
       cx="538.1922"
       id="radialGradient967"
       xlink:href="#linearGradient965"
       inkscape:collect="always" />
    <filter
       id="filter973"
       style="color-interpolation-filters:sRGB"
       inkscape:collect="always">
      <feBlend
         id="feBlend975"
         in2="BackgroundImage"
         mode="darken"
         inkscape:collect="always" />
    </filter>
    <radialGradient
       r="582.5528"
       fy="1373.6064"
       fx="538.1922"
       cy="1373.6064"
       cx="538.1922"
       gradientTransform="matrix(1,0,0,0.60674305,0,405.58891)"
       gradientUnits="userSpaceOnUse"
       id="radialGradient1023"
       xlink:href="#linearGradient965"
       inkscape:collect="always" />
  </defs>
  <sodipodi:namedview
     id="base"
     pagecolor="#ffffff"
     bordercolor="#666666"
     borderopacity="1.0"
     inkscape:pageopacity="0.0"
     inkscape:pageshadow="2"
     inkscape:zoom="0.16819317"
     inkscape:cx="485.73116"
     inkscape:cy="2256.9774"
     inkscape:document-units="px"
     inkscape:current-layer="layer3"
     showgrid="false"
     inkscape:window-width="1920"
     inkscape:window-height="1001"
     inkscape:window-x="-9"
     inkscape:window-y="-9"
     inkscape:window-maximized="1"
     showguides="true"
     inkscape:guide-bbox="true"
     fit-margin-top="200"
     fit-margin-left="200"
     fit-margin-right="200"
     fit-margin-bottom="200"
     units="px"
     inkscape:pagecheckerboard="true" />
  <metadata
     id="metadata5">
    <rdf:RDF>
      <cc:Work
         rdf:about="">
        <dc:format>image/svg+xml</dc:format>
        <dc:type
           rdf:resource="http://purl.org/dc/dcmitype/StillImage" />
        <dc:title />
      </cc:Work>
    </rdf:RDF>
  </metadata>
  <g
     style="enable-background:new"
     id="g1053"
     transform="translate(-2602.016,-1724.2579)"
     sodipodi:insensitive="true">
    <g
       transform="translate(2766.7352,2637.3793)"
       style="display:inline"
       inkscape:label="Body"
       id="layer7">
      <g
         style="display:inline;opacity:1"
         transform="translate(71.234948,903.3248)"
         id="layer1-5"
         inkscape:groupmode="layer"
         inkscape:label="Color">
        <path
           sodipodi:nodetypes="csscccssscccc"
           inkscape:connector-curvature="0"
           id="path910"
           transform="translate(-73.291846,-1061.412)"
           d="m 799.69922,646.01367 c -26.10475,0.008 -52.31846,1.04007 -78.47266,3.12305 -152.16989,12.11913 -290.00855,58.81584 -383.57812,129.94726 -93.56957,71.13141 -135.31347,160.95228 -116.16406,249.95512 38.31176,231.0309 619.93318,349.6586 619.93318,349.6586 l 8.11511,-54.611 c 0,0 329.18943,-63.4734 420.18023,-135.7371 90.9908,-72.2637 129.4944,-162.578 107.1484,-251.32616 C 1354.5153,848.27523 1273.1236,768.26002 1150.3652,714.35742 1048.7059,669.71933 925.47665,645.97467 799.69922,646.01367 Z M 398.97461,957.25195 617.45117,1123.5039 c -89.35754,-36.1737 -165.01219,-93.442 -218.47656,-166.25195 z"
           style="display:inline;fill:#ff00ff;fill-opacity:1;fill-rule:nonzero;stroke:#ff00ff;stroke-width:30;stroke-linecap:square;stroke-linejoin:miter;stroke-miterlimit:4;stroke-dasharray:none;stroke-opacity:1;paint-order:fill markers stroke" />
        <path
           d="m 429.50428,-446.93075 a 667.42694,357.65659 0 0 1 598.41682,0.59288 l -300.31142,319.40583 z"
           sodipodi:end="5.1791028"
           sodipodi:start="4.2493728"
           sodipodi:ry="357.65659"
           sodipodi:rx="667.42694"
           sodipodi:cy="-126.93204"
           sodipodi:cx="727.60968"
           sodipodi:type="arc"
           id="path957"
           style="display:inline;fill:#fff5ff;fill-opacity:1;fill-rule:nonzero;stroke:none;stroke-width:32.72160339;stroke-linecap:butt;stroke-linejoin:miter;stroke-miterlimit:4;stroke-dasharray:none;stroke-opacity:1;paint-order:fill markers stroke" />
      </g>
      <g
         inkscape:label="Shadows"
         inkscape:groupmode="layer"
         id="g1184"
         transform="translate(71.234948,903.3248)"
         style="display:inline;opacity:0.13300003;filter:url(#filter973)">
        <ellipse
           transform="matrix(0.97499712,-0.2222175,0.36837948,0.92967551,0,0)"
           ry="184.57942"
           rx="266.95911"
           cy="-194.21494"
           cx="819.64795"
           style="display:inline;opacity:0.11499999;fill:url(#linearGradient1049);fill-opacity:1;fill-rule:evenodd;stroke:none;stroke-width:14.86666679;stroke-linecap:butt;stroke-linejoin:miter;stroke-miterlimit:4;stroke-dasharray:none;stroke-opacity:1;paint-order:fill markers stroke"
           id="ellipse1047" />
        <path
           transform="translate(-73.291846,-1061.412)"
           sodipodi:nodetypes="ccccccccc"
           inkscape:connector-curvature="0"
           d="M 801.80382,936.06703 560.2433,677.89868 c -160.83827,54.83676 -372.17106,174.50383 -338.75892,351.14042 38.31176,231.0309 359.22481,300.3296 619.93318,349.6586 3.27878,-24.4185 6.54136,-34.7849 8.11511,-54.611 137.58593,-23.2841 320.27483,-59.3521 420.18023,-135.7371 90.9908,-72.2637 129.4944,-162.578 107.1484,-251.32616 -74.3002,-157.31365 -182.9539,-215.5099 -335.7131,-258.68451 z"
           style="display:inline;fill:url(#radialGradient1023);fill-opacity:1;fill-rule:nonzero;stroke:none;stroke-width:30;stroke-linecap:square;stroke-linejoin:miter;stroke-miterlimit:4;stroke-dasharray:none;stroke-opacity:0.34615389;paint-order:fill markers stroke"
           id="path923" />
      </g>
      <g
         style="display:inline"
         inkscape:label="Lines"
         inkscape:groupmode="layer"
         id="g1055"
         transform="translate(71.234948,903.3248)">
        <ellipse
           ry="349.75104"
           rx="583.8725"
           cy="-70.341042"
           cx="727.60968"
           style="opacity:0.11499999;fill:none;fill-opacity:1;fill-rule:evenodd;stroke:none;stroke-width:30.2648201;stroke-linecap:butt;stroke-linejoin:miter;stroke-miterlimit:4;stroke-dasharray:none;stroke-opacity:1;paint-order:fill markers stroke"
           id="ellipse849" />
        <ellipse
           style="display:inline;opacity:1;fill:#800080;fill-opacity:1;fill-rule:nonzero;stroke:#800080;stroke-width:1.62963188;stroke-linecap:square;stroke-linejoin:round;stroke-miterlimit:4;stroke-dasharray:none;stroke-opacity:1;paint-order:stroke markers fill"
           id="ellipse2524"
           cx="726.70813"
           cy="-17.076614"
           rx="18.157455"
           ry="16.662048"
           inkscape:transform-center-x="158.74801"
           inkscape:transform-center-y="-82.330124" />
        <ellipse
           inkscape:transform-center-y="-82.330119"
           inkscape:transform-center-x="158.74801"
           ry="16.662048"
           rx="18.157455"
           cy="-89.320671"
           cx="726.70813"
           id="ellipse2526"
           style="display:inline;opacity:1;fill:#800080;fill-opacity:1;fill-rule:nonzero;stroke:#800080;stroke-width:1.62963188;stroke-linecap:square;stroke-linejoin:round;stroke-miterlimit:4;stroke-dasharray:none;stroke-opacity:1;paint-order:stroke markers fill" />
        <ellipse
           inkscape:transform-center-y="-82.330124"
           inkscape:transform-center-x="158.74801"
           ry="16.662048"
           rx="18.157455"
           cy="55.167503"
           cx="726.70813"
           id="ellipse898"
           style="display:inline;opacity:1;fill:#800080;fill-opacity:1;fill-rule:nonzero;stroke:#800080;stroke-width:1.62963188;stroke-linecap:square;stroke-linejoin:round;stroke-miterlimit:4;stroke-dasharray:none;stroke-opacity:1;paint-order:stroke markers fill" />
        <path
           sodipodi:nodetypes="ccccsssssc"
           inkscape:connector-curvature="0"
           d="m 325.6828,-104.16013 c 116.0523,135.312774 243.0567,210.32115 454.63083,214.79135 5.58822,65.38188 8.84689,114.13272 -4.39828,212.77487 C 515.20698,274.07711 186.50389,198.65888 148.19213,-32.372011 c -19.1494,-89.002799 22.59398,-178.824459 116.16355,-249.955869 93.56957,-71.13142 231.4085,-117.82789 383.57839,-129.94702 152.16988,-12.11913 306.38124,11.31784 429.13963,65.22044 122.7584,53.9026 204.1496,133.91756 226.4956,222.66577 22.346,88.748208 -16.1578,179.062213 -107.1486,251.32595 C 1105.4299,199.201 940.18214,256.48084 788.48168,270.4643"
           style="display:inline;fill:none;fill-opacity:1;fill-rule:nonzero;stroke:#800080;stroke-width:30;stroke-linecap:square;stroke-linejoin:miter;stroke-miterlimit:4;stroke-dasharray:none;stroke-opacity:1;paint-order:fill markers stroke"
           id="path1261" />
        <ellipse
           inkscape:transform-center-y="-82.330121"
           inkscape:transform-center-x="158.74801"
           ry="16.662048"
           rx="18.157455"
           cy="256.4234"
           cx="727.60834"
           id="path2513"
           style="display:inline;opacity:1;fill:#800080;fill-opacity:1;fill-rule:nonzero;stroke:#800080;stroke-width:1.62963188;stroke-linecap:square;stroke-linejoin:round;stroke-miterlimit:4;stroke-dasharray:none;stroke-opacity:1;paint-order:stroke markers fill" />
        <path
           inkscape:connector-curvature="0"
           id="path977"
           d="M 677.18719,-128.93204 V 97.5134"
           style="fill:none;stroke:#800080;stroke-width:30;stroke-linecap:butt;stroke-linejoin:miter;stroke-miterlimit:4;stroke-dasharray:none;stroke-opacity:1" />
        <g
           id="g987">
          <path
             sodipodi:nodetypes="cccc"
             style="fill:#800080;fill-opacity:1;stroke:none;stroke-width:1px;stroke-linecap:butt;stroke-linejoin:miter;stroke-opacity:1"
             d="m 486.95145,-383.51332 240.24669,256.58128 -134.80691,24.2193 z"
             id="path867"
             inkscape:connector-curvature="0" />
          <path
             sodipodi:nodetypes="cccc"
             inkscape:connector-curvature="0"
             id="path873"
             d="m 967.85634,-383.07307 -240.24669,256.58128 134.80691,23.77905 z"
             style="fill:#800080;fill-opacity:1;stroke:none;stroke-width:1px;stroke-linecap:butt;stroke-linejoin:miter;stroke-opacity:1" />
          <path
             inkscape:connector-curvature="0"
             id="path982"
             d="M 846.32222,-141.67137 H 619.87678"
             style="fill:none;stroke:#800080;stroke-width:30;stroke-linecap:butt;stroke-linejoin:miter;stroke-miterlimit:4;stroke-dasharray:none;stroke-opacity:1" />
        </g>
      </g>
    </g>
    <g
       transform="translate(2.0568981,158.0872)"
       style="display:inline"
       inkscape:label="Face"
       id="layer6">
      <g
         style="display:inline"
         inkscape:label="Colors"
         id="layer2"
         inkscape:groupmode="layer">
        <ellipse
           transform="scale(-1,1)"
           ry="291.20898"
           rx="290.60321"
           cy="2866.7654"
           cx="-3563.5229"
           id="ellipse1103"
           style="fill:#fff5ff;fill-opacity:1;fill-rule:nonzero;stroke:none;stroke-width:30.26459312;stroke-linecap:butt;stroke-linejoin:miter;stroke-miterlimit:4;stroke-dasharray:none;stroke-opacity:1;paint-order:markers fill stroke" />
      </g>
      <g
         style="display:inline"
         inkscape:label="Shadows"
         id="layer4"
         inkscape:groupmode="layer">
        <path
           sodipodi:nodetypes="ccc"
           inkscape:connector-curvature="0"
           id="ellipse1079"
           d="m 3678.0149,3088.4893 c -178.9332,95.6827 -334.8882,81.9992 -412.5974,-152.8031 125.0121,116.2261 192.0584,161.438 412.5974,152.8031 z"
           style="display:inline;opacity:0.16799999;fill:url(#linearGradient2511);fill-opacity:1;fill-rule:nonzero;stroke:none;stroke-width:1.76275754;stroke-linecap:butt;stroke-linejoin:miter;stroke-miterlimit:4;stroke-dasharray:none;stroke-opacity:1;paint-order:stroke fill markers" />
      </g>
      <g
         style="display:inline"
         inkscape:label="Lines"
         id="layer3"
         inkscape:groupmode="layer">
        <g
           transform="matrix(1.1976508,0,0,1.1313391,2725.1659,2315.7555)"
           id="g887">
          <path
             sodipodi:nodetypes="cc"
             inkscape:connector-curvature="0"
             id="path1041"
             d="M 870.46509,436.59805 C 853.15859,386.71256 827.44831,336.89506 734.03683,370.33883"
             style="display:inline;fill:none;stroke:#800080;stroke-width:26.00019455;stroke-linecap:butt;stroke-linejoin:miter;stroke-miterlimit:4;stroke-dasharray:none;stroke-opacity:1" />
          <path
             style="display:inline;fill:none;stroke:#800080;stroke-width:26.00019455;stroke-linecap:butt;stroke-linejoin:miter;stroke-miterlimit:4;stroke-dasharray:none;stroke-opacity:1"
             d="m 529.53716,438.47442 c 17.3065,-49.88548 43.01668,-99.70291 136.42817,-66.25921"
             id="path1043"
             inkscape:connector-curvature="0"
             sodipodi:nodetypes="cc" />
          <path
             sodipodi:nodetypes="cc"
             inkscape:connector-curvature="0"
             id="path1047"
             d="M 755.30116,596.46033 C 705.04342,622.65882 643.60043,607.02632 603.20329,569.33622"
             style="display:inline;fill:none;stroke:#800080;stroke-width:26.00019455;stroke-linecap:butt;stroke-linejoin:miter;stroke-miterlimit:4;stroke-dasharray:none;stroke-opacity:1" />
          <path
             style="display:inline;fill:none;stroke:#800080;stroke-width:26.00019455;stroke-linecap:butt;stroke-linejoin:miter;stroke-miterlimit:4;stroke-dasharray:none;stroke-opacity:1"
             d="m 614.38083,532.79175 c -9.3405,17.94455 -24.23833,41.07671 -38.34433,58.31735"
             id="path1049"
             inkscape:connector-curvature="0"
             sodipodi:nodetypes="cc" />
          <path
             style="display:inline;fill:#800080;stroke:none;stroke-width:28.34482384;stroke-linecap:butt;stroke-linejoin:miter;stroke-miterlimit:4;stroke-dasharray:none;stroke-opacity:1;paint-order:stroke markers fill"
             d="m 655.82812,181.61133 c -5.38336,-0.0698 -10.82806,0.17497 -16.23632,0.55664 -24.5175,1.7302 -56.89832,21.45994 -81.08203,31.45117 -38.45274,15.88632 -51.62645,58.51253 -108.99415,81.12305 -18.97816,7.47993 -35.22293,79.18554 -32.92968,79.18554 36.72642,-12.66341 -9.95238,100.30195 -16.80664,99.08789 31.64209,62.24926 85.02815,-11.71906 84.63867,-25.6875 -2.32008,-83.20869 51.71362,-129.86775 34.95312,-86.71093 -3.46613,8.92498 51.10846,-34.06103 51.10547,-53.57422 10.84931,8.60494 29.84121,16.8389 49.56641,1.72265 -21.30191,13.66675 -5.25064,-59.88859 79.95898,-35.9375 85.20962,-23.95109 101.25894,49.60425 79.95703,35.9375 19.7252,15.11625 38.7171,6.88229 49.56641,-1.72265 -0.003,19.51319 54.5716,62.4992 51.10547,53.57422 -16.7605,-43.15682 37.2732,3.50224 34.95312,86.71093 -0.38948,13.96844 52.99659,87.93676 84.63872,25.6875 -6.8543,1.21406 -53.5331,-111.7513 -16.80668,-99.08789 2.29325,0 -13.95152,-71.70561 -32.92969,-79.18554 -57.36769,-22.61052 -70.5414,-65.23673 -108.99414,-81.12305 -24.18371,-9.99123 -56.56453,-29.72097 -81.08203,-31.45117 -21.63305,-1.52666 -43.84349,-0.88219 -60.40821,13.45703 -12.42354,-10.75441 -28.02374,-13.80423 -44.17383,-14.01367 z"
             id="path843"
             inkscape:connector-curvature="0" />
          <ellipse
             transform="scale(-1,1)"
             ry="257.40204"
             rx="242.64435"
             cy="487.04227"
             cx="-700.0011"
             id="ellipse1039"
             style="display:inline;fill:none;fill-opacity:1;fill-rule:nonzero;stroke:#800080;stroke-width:26.00019455;stroke-linecap:butt;stroke-linejoin:miter;stroke-miterlimit:4;stroke-dasharray:none;stroke-opacity:1;paint-order:markers fill stroke" />
        </g>
      </g>
    </g>
  </g>
  <g
     inkscape:label="Text"
     inkscape:groupmode="layer"
     id="layer1"
     transform="translate(-2121.9335,1737.8014)"
     style="display:inline"
     sodipodi:insensitive="true">
    <g
       id="g2091"
       transform="matrix(6.6734471,0,0,7.5051013,-384.37876,-1801.3846)">
      <g
         id="g965">
        <path
           inkscape:connector-curvature="0"
           d="m 479.09396,76.586732 -8.07314,-20.335012 -7.84081,25.074753 z m 46.87053,29.253878 -50.64576,13.76053 12.95183,-15.23852 -3.65902,-11.263244 -18.81795,1.27412 -5.45948,13.148954 8.18926,5.60614 -55.05987,3.46562 13.41649,-8.76597 17.83061,-60.852133 -10.10593,-5.759043 68.30206,1.987633 -15.91394,4.994566 27.93653,54.736337 z"
           style="font-style:normal;font-variant:normal;font-weight:normal;font-stretch:normal;font-size:15.43614483px;line-height:1.15000629em;font-family:'Snap ITC';-inkscape-font-specification:'Snap ITC, Normal';font-variant-ligatures:normal;font-variant-caps:normal;font-variant-numeric:normal;font-feature-settings:normal;text-align:center;letter-spacing:0px;word-spacing:-0.16933332px;writing-mode:lr-tb;text-anchor:middle;fill:#ff00ff;fill-opacity:1;stroke:#800080;stroke-width:3.53253627;stroke-miterlimit:4;stroke-dasharray:none;stroke-opacity:1;paint-order:fill markers stroke"
           id="path1219" />
        <path
           inkscape:connector-curvature="0"
           d="M 594.32465,40.503559 580.67591,60.83857 q -1.45201,-2.191494 -3.601,-3.261759 -2.09089,-1.121229 -4.8787,-1.121229 -4.18178,0 -6.04034,2.905 -1.80046,2.905006 -1.80046,9.530445 0,1.172193 0,1.936669 0.0616,0.764476 0.17415,1.477982 l 15.73971,-0.509637 11.90639,-8.867897 -4.8787,28.795191 -10.10592,-8.765969 -11.26758,1.27412 q 1.21967,7.491849 2.90401,14.372114 1.68433,6.8293 3.83333,13.09799 l 11.67405,4.58685 -51.7493,1.98763 13.35839,-8.56212 q -2.61358,-9.47947 -3.89136,-14.372103 -1.27777,-4.943602 -2.09089,-8.307289 l -6.67915,0.866404 -8.18927,9.887198 -4.29798,-32.362733 8.47969,7.746668 7.60848,-0.203869 q -0.58102,-3.567548 -0.92925,-6.931235 -0.2905,-3.363686 -0.2905,-6.421584 0,-9.428511 6.15647,-14.27018 6.15647,-4.841668 18.00483,-4.841668 5.69182,0 11.15138,1.427018 5.51758,1.376054 10.62861,4.077192 z"
           style="font-style:normal;font-variant:normal;font-weight:normal;font-stretch:normal;font-size:15.43614483px;line-height:1.15000629em;font-family:'Snap ITC';-inkscape-font-specification:'Snap ITC, Normal';font-variant-ligatures:normal;font-variant-caps:normal;font-variant-numeric:normal;font-feature-settings:normal;text-align:center;letter-spacing:0px;word-spacing:-0.16933332px;writing-mode:lr-tb;text-anchor:middle;fill:#ff00ff;fill-opacity:1;stroke:#800080;stroke-width:3.53253627;stroke-miterlimit:4;stroke-dasharray:none;stroke-opacity:1;paint-order:fill markers stroke"
           id="path1221" />
        <path
           inkscape:connector-curvature="0"
           d="M 668.02817,40.503559 654.37943,60.83857 q -1.45201,-2.191494 -3.601,-3.261759 -2.09089,-1.121229 -4.8787,-1.121229 -4.18178,0 -6.04034,2.905 -1.80046,2.905006 -1.80046,9.530445 0,1.172193 0,1.936669 0.0616,0.764476 0.17415,1.477982 l 15.73971,-0.509637 11.90639,-8.867897 -4.8787,28.795191 -10.10592,-8.765969 -11.26758,1.27412 q 1.21967,7.491849 2.90401,14.372114 1.68433,6.8293 3.83333,13.09799 l 11.67405,4.58685 -51.7493,1.98763 13.35839,-8.56212 q -2.61358,-9.47947 -3.89136,-14.372103 -1.27777,-4.943602 -2.09089,-8.307289 l -6.67915,0.866404 -8.18927,9.887198 -4.29799,-32.362733 8.4797,7.746668 7.60848,-0.203869 q -0.58102,-3.567548 -0.92925,-6.931235 -0.29051,-3.363686 -0.29051,-6.421584 0,-9.428511 6.15648,-14.27018 6.15655,-4.841668 18.00483,-4.841668 5.69182,0 11.15138,1.427018 5.51758,1.376054 10.62861,4.077192 z"
           style="font-style:normal;font-variant:normal;font-weight:normal;font-stretch:normal;font-size:15.43614483px;line-height:1.15000629em;font-family:'Snap ITC';-inkscape-font-specification:'Snap ITC, Normal';font-variant-ligatures:normal;font-variant-caps:normal;font-variant-numeric:normal;font-feature-settings:normal;text-align:center;letter-spacing:0px;word-spacing:-0.16933332px;writing-mode:lr-tb;text-anchor:middle;fill:#ff00ff;fill-opacity:1;stroke:#800080;stroke-width:3.53253627;stroke-miterlimit:4;stroke-dasharray:none;stroke-opacity:1;paint-order:fill markers stroke"
           id="path1223" />
        <path
           inkscape:connector-curvature="0"
           d="m 698.86872,75.057786 q -1.51011,1.528946 -2.20702,3.261753 -0.69738,1.732814 -0.69738,4.026235 0,4.484909 3.31057,7.542807 3.36867,3.006933 8.24736,3.006933 1.74236,0 3.60092,-0.611605 1.85857,-0.662521 3.77523,-1.885705 -3.71712,-6.013861 -7.78271,-9.836234 -4.00755,-3.873331 -8.24736,-5.504211 z m 40.65603,-10.651674 -8.53779,3.41465 1.74235,42.708618 6.67924,4.48492 -25.55521,2.80307 4.35601,-15.54431 q -5.34336,7.69571 -12.37105,11.62001 -6.96958,3.9243 -15.21695,3.9243 -9.8736,0 -16.66896,-7.08413 -6.73726,-7.13509 -6.73726,-17.633864 0,-13.403783 7.25995,-22.016855 7.26002,-8.664042 18.29526,-8.664042 8.3635,0 14.6942,3.873338 6.3888,3.822367 10.74481,11.467107 l -3.65902,-15.748161 z"
           style="font-style:normal;font-variant:normal;font-weight:normal;font-stretch:normal;font-size:15.43614483px;line-height:1.15000629em;font-family:'Snap ITC';-inkscape-font-specification:'Snap ITC, Normal';font-variant-ligatures:normal;font-variant-caps:normal;font-variant-numeric:normal;font-feature-settings:normal;text-align:center;letter-spacing:0px;word-spacing:-0.16933332px;writing-mode:lr-tb;text-anchor:middle;fill:#ff00ff;fill-opacity:1;stroke:#800080;stroke-width:3.53253627;stroke-miterlimit:4;stroke-dasharray:none;stroke-opacity:1;paint-order:fill markers stroke"
           id="path1225" />
        <path
           inkscape:connector-curvature="0"
           d="m 763.1633,89.990515 q 1.04544,1.579909 2.7878,2.344385 1.80046,0.764476 4.35601,0.764476 4.53025,0 7.95694,-3.41465 3.48479,-3.414651 3.48479,-7.848603 0,-1.732807 -0.75517,-3.312723 -0.6966,-1.579909 -2.38124,-3.363686 -5.40146,2.497283 -9.29281,6.217722 -3.89136,3.72044 -6.15648,8.613079 z m 7.25994,-45.511691 -9.29273,31.700191 q 6.3888,-6.676409 12.7195,-9.887198 6.3888,-3.26176 13.24227,-3.26176 10.57051,0 18.06286,6.982199 7.49227,6.931235 7.49227,16.818427 0,12.282554 -10.62861,20.233087 -10.62861,7.89956 -28.98191,9.22465 l -32.69902,2.29342 9.29273,-7.44088 -1.91659,-64.572576 -6.91156,-3.465615 37.81013,-2.395349 z"
           style="font-style:normal;font-variant:normal;font-weight:normal;font-stretch:normal;font-size:15.43614483px;line-height:1.15000629em;font-family:'Snap ITC';-inkscape-font-specification:'Snap ITC, Normal';font-variant-ligatures:normal;font-variant-caps:normal;font-variant-numeric:normal;font-feature-settings:normal;text-align:center;letter-spacing:0px;word-spacing:-0.16933332px;writing-mode:lr-tb;text-anchor:middle;fill:#ff00ff;fill-opacity:1;stroke:#800080;stroke-width:3.53253627;stroke-miterlimit:4;stroke-dasharray:none;stroke-opacity:1;paint-order:fill markers stroke"
           id="path1227" />
        <path
           inkscape:connector-curvature="0"
           d="m 860.97002,116.49228 -48.32261,2.08956 13.30036,-6.6764 -1.04544,-58.558719 -12.02259,-1.885699 45.59283,-11.263252 -10.62868,72.11539 z"
           style="font-style:normal;font-variant:normal;font-weight:normal;font-stretch:normal;font-size:15.43614483px;line-height:1.15000629em;font-family:'Snap ITC';-inkscape-font-specification:'Snap ITC, Normal';font-variant-ligatures:normal;font-variant-caps:normal;font-variant-numeric:normal;font-feature-settings:normal;text-align:center;letter-spacing:0px;word-spacing:-0.16933332px;writing-mode:lr-tb;text-anchor:middle;fill:#ff00ff;fill-opacity:1;stroke:#800080;stroke-width:3.53253627;stroke-miterlimit:4;stroke-dasharray:none;stroke-opacity:1;paint-order:fill markers stroke"
           id="path1229" />
        <path
           inkscape:connector-curvature="0"
           d="m 877.34855,81.734189 q 1.85856,1.325091 4.35601,2.089567 2.49745,0.713505 5.11103,0.713505 4.58834,0 7.49235,-2.344385 2.90401,-2.344385 2.90401,-6.013861 0,-1.783771 -0.58102,-3.210789 -0.58102,-1.427024 -1.80054,-2.701144 -6.2145,0.815439 -10.62861,3.720439 -4.35601,2.854036 -6.85346,7.746668 z m 57.78965,36.338001 -5.22723,-8.46018 q -7.7246,4.28106 -15.44928,6.37062 -7.7246,2.08956 -15.97197,2.08956 -16.08817,0 -25.78754,-6.98219 -9.64126,-7.03317 -9.64126,-18.602209 0,-6.115788 2.61357,-11.772897 2.67168,-5.708071 7.49235,-9.938162 4.64637,-4.077199 10.74482,-6.166759 6.15647,-2.089559 13.53262,-2.089559 14.1134,0 23.29009,5.351312 9.1766,5.351319 9.1766,13.454747 0,8.154391 -8.47969,13.658601 -8.42159,5.504216 -21.1411,5.504216 -3.13634,0 -5.86612,-0.40774 -2.7297,-0.458649 -5.22715,-1.325079 5.45948,3.261749 10.68671,4.841669 5.28526,1.52894 10.86095,1.52894 6.79536,0 12.48725,-2.65017 5.69181,-2.650181 9.75739,-7.695704 z"
           style="font-style:normal;font-variant:normal;font-weight:normal;font-stretch:normal;font-size:15.43614483px;line-height:1.15000629em;font-family:'Snap ITC';-inkscape-font-specification:'Snap ITC, Normal';font-variant-ligatures:normal;font-variant-caps:normal;font-variant-numeric:normal;font-feature-settings:normal;text-align:center;letter-spacing:0px;word-spacing:-0.16933332px;writing-mode:lr-tb;text-anchor:middle;fill:#ff00ff;fill-opacity:1;stroke:#800080;stroke-width:3.53253627;stroke-miterlimit:4;stroke-dasharray:none;stroke-opacity:1;paint-order:fill markers stroke"
           id="path1231" />
      </g>
      <g
         id="g971">
        <path
           sodipodi:nodetypes="cscccccscsccscccccccccccsscc"
           inkscape:connector-curvature="0"
           d="m 774.196,207.26674 c -1.97476,6.89664 -6.69857,10.3449 -14.17158,10.34491 l -13.35839,1e-5 -10.91905,33.62091 h -20.79263 l 10.91904,-33.62091 h -17.83061 c -19.51486,26.20709 -38.5844,39.31068 -57.20879,39.31068 -5.4208,0 -9.98972,-1.12075 -13.70685,-3.36216 -4.68512,-2.84479 -7.02768,-7.02591 -7.02768,-12.54316 0,-4.6983 1.74243,-9.28885 5.22723,-13.77166 5.61436,-7.19834 14.1134,-12.52164 25.49711,-15.96992 8.90559,-2.67246 18.74042,-4.00869 29.50458,-4.00869 h 11.26757 l 42.33236,-67.60481 h 27.99456 l -22.1205,67.60481 z m -25.85366,-56.87201 -32.57488,56.87202 h 12.95184 z m -54.5872,67.21693 c -14.51995,0 -24.70333,2.32762 -30.5501,6.98286 -4.84001,3.87932 -7.26002,7.99568 -7.26002,12.34921 0,3.70691 1.74243,5.56032 5.22723,5.56032 4.80125,0 10.80292,-3.01722 18.00483,-9.05175 6.31136,-5.21556 11.17072,-10.4958 14.57806,-15.84064 z"
           style="font-style:normal;font-variant:normal;font-weight:bold;font-stretch:semi-expanded;font-size:15.43614483px;line-height:1.15000629em;font-family:Magneto;-inkscape-font-specification:'Magneto, Bold Semi-Expanded';font-variant-ligatures:normal;font-variant-caps:normal;font-variant-numeric:normal;font-feature-settings:normal;text-align:center;letter-spacing:0px;word-spacing:-0.16933332px;writing-mode:lr-tb;text-anchor:middle;fill:#ff00ff;fill-opacity:1;stroke:#800080;stroke-width:3.53253627;stroke-miterlimit:4;stroke-dasharray:none;stroke-opacity:1;paint-order:fill markers stroke"
           id="path1210" />
        <path
           inkscape:connector-curvature="0"
           d="m 819.29404,207.26674 q -1.45201,5.68977 -6.67915,8.4053 -3.65911,1.93962 -7.84081,1.93962 h -22.36085 q -8.59582,0 -8.59582,-6.53018 0,-1.68107 0.63881,-3.81474 l 21.54765,-67.62977 h 20.56031 l -21.66378,67.62977 z"
           style="font-style:normal;font-variant:normal;font-weight:bold;font-stretch:semi-expanded;font-size:15.43614483px;line-height:1.15000629em;font-family:Magneto;-inkscape-font-specification:'Magneto, Bold Semi-Expanded';font-variant-ligatures:normal;font-variant-caps:normal;font-variant-numeric:normal;font-feature-settings:normal;text-align:center;letter-spacing:0px;word-spacing:-0.16933332px;writing-mode:lr-tb;text-anchor:middle;fill:#ff00ff;fill-opacity:1;stroke:#800080;stroke-width:3.53253627;stroke-miterlimit:4;stroke-dasharray:none;stroke-opacity:1;paint-order:fill markers stroke"
           id="path1212" />
        <path
           inkscape:connector-curvature="0"
           d="m 863.89945,207.26674 q -1.452,5.68977 -6.67915,8.4053 -3.65902,1.93962 -7.84081,1.93962 h -22.36077 q -8.5959,0 -8.5959,-6.53018 0,-1.68107 0.63881,-3.81474 l 21.54774,-67.62977 h 20.56031 l -21.66387,67.62977 z"
           style="font-style:normal;font-variant:normal;font-weight:bold;font-stretch:semi-expanded;font-size:15.43614483px;line-height:1.15000629em;font-family:Magneto;-inkscape-font-specification:'Magneto, Bold Semi-Expanded';font-variant-ligatures:normal;font-variant-caps:normal;font-variant-numeric:normal;font-feature-settings:normal;text-align:center;letter-spacing:0px;word-spacing:-0.16933332px;writing-mode:lr-tb;text-anchor:middle;fill:#ff00ff;fill-opacity:1;stroke:#800080;stroke-width:3.53253627;stroke-miterlimit:4;stroke-dasharray:none;stroke-opacity:1;paint-order:fill markers stroke"
           id="path1214" />
        <path
           inkscape:connector-curvature="0"
           d="m 940.85551,207.26674 c -2.28445,6.89665 -6.56302,10.34492 -12.8357,10.34492 H 913.8483 c -3.36859,10.17249 -6.91148,19.61326 -10.62861,24.52712 -5.18855,6.81035 -11.63537,10.21556 -19.34063,10.21556 -4.84002,0 -8.57648,-1.57324 -11.20948,-4.71982 -2.28446,-2.75867 -3.42669,-6.3147 -3.42669,-10.66824 0,-3.44827 0.65808,-8.6864 1.97469,-11.91919 1.35521,-3.23278 3.11692,-5.7113 5.28525,-7.43543 h -4.41404 c -2.55555,0 -4.68512,-0.86202 -6.3888,-2.58617 -1.66499,-1.76729 -2.49745,-3.96562 -2.49745,-6.59494 0,-1.20686 0.19341,-2.43536 0.58102,-3.68538 l 10.10593,-31.09933 h 21.08307 l -10.86102,33.6209 h 11.79026 l 10.68671,-33.6209 h 20.96687 l -10.68672,33.6209 z m -48.61296,12.09067 c -2.55548,0 -4.9368,1.59487 -7.14382,4.78451 -2.16833,3.23279 -3.25255,8.34164 -3.25255,11.53129 0,2.8448 1.12289,5.12934 3.36867,6.85349 z"
           style="font-style:normal;font-variant:normal;font-weight:bold;font-stretch:semi-expanded;font-size:15.43614483px;line-height:1.15000629em;font-family:Magneto;-inkscape-font-specification:'Magneto, Bold Semi-Expanded';font-variant-ligatures:normal;font-variant-caps:normal;font-variant-numeric:normal;font-feature-settings:normal;text-align:center;letter-spacing:0px;word-spacing:-0.16933332px;writing-mode:lr-tb;text-anchor:middle;fill:#ff00ff;fill-opacity:1;stroke:#800080;stroke-width:3.53253627;stroke-miterlimit:4;stroke-dasharray:none;stroke-opacity:1;paint-order:fill markers stroke"
           id="path1216"
           sodipodi:nodetypes="csccscsccscscccccccccccscc" />
      </g>
    </g>
  </g>
</svg>
