<?xml version="1.0" encoding="UTF-8" standalone="no"?>
<!-- Created with Inkscape (http://www.inkscape.org/) -->

<svg
   xmlns:dc="http://purl.org/dc/elements/1.1/"
   xmlns:cc="http://creativecommons.org/ns#"
   xmlns:rdf="http://www.w3.org/1999/02/22-rdf-syntax-ns#"
   xmlns:svg="http://www.w3.org/2000/svg"
   xmlns="http://www.w3.org/2000/svg"
   xmlns:xlink="http://www.w3.org/1999/xlink"
   xmlns:sodipodi="http://sodipodi.sourceforge.net/DTD/sodipodi-0.dtd"
   xmlns:inkscape="http://www.inkscape.org/namespaces/inkscape"
   width="8000"
   height="2400"
   viewBox="0 0 8000 2400"
   version="1.1"
   id="svg8"
   inkscape:version="0.92.4 (5da689c313, 2019-01-14)"
   sodipodi:docname="logo-wide-url.svg"
   inkscape:export-filename="C:\Users\Matt\Workspace\affableally.com\source\images\logo-wide-url.png"
   inkscape:export-xdpi="24"
   inkscape:export-ydpi="24">
  <defs
     id="defs2">
    <linearGradient
       inkscape:collect="always"
       id="linearGradient1238">
      <stop
         style="stop-color:#ff00ff;stop-opacity:1;"
         offset="0"
         id="stop1234" />
      <stop
         style="stop-color:#ff69ff;stop-opacity:1"
         offset="1"
         id="stop1236" />
    </linearGradient>
    <linearGradient
       id="linearGradient838"
       inkscape:collect="always">
      <stop
         id="stop834"
         offset="0"
         style="stop-color:#ff00ff;stop-opacity:1;" />
      <stop
         id="stop836"
         offset="1"
         style="stop-color:#ffaaff;stop-opacity:1" />
    </linearGradient>
    <radialGradient
       inkscape:collect="always"
       xlink:href="#linearGradient838"
       id="radialGradient827"
       cx="57.282288"
       cy="139.57292"
       fx="57.282288"
       fy="139.57292"
       r="22.357292"
       gradientTransform="matrix(1,0,0,0.88165678,0,16.517509)"
       gradientUnits="userSpaceOnUse"
       spreadMethod="reflect" />
    <inkscape:perspective
       id="perspective2572"
       inkscape:persp3d-origin="700 : 466.66667 : 1"
       inkscape:vp_z="1400 : 700 : 1"
       inkscape:vp_y="0 : 1000 : 0"
       inkscape:vp_x="0 : 700 : 1"
       sodipodi:type="inkscape:persp3d" />
    <radialGradient
       spreadMethod="reflect"
       gradientUnits="userSpaceOnUse"
       gradientTransform="matrix(1,0,0,0.88165678,0,16.517509)"
       r="22.357292"
       fy="139.57292"
       fx="57.282288"
       cy="139.57292"
       cx="57.282288"
       id="radialGradient827-5"
       xlink:href="#linearGradient838"
       inkscape:collect="always" />
    <linearGradient
       id="linearGradient965"
       inkscape:collect="always">
      <stop
         id="stop961"
         offset="0"
         style="stop-color:#000000;stop-opacity:1;" />
      <stop
         id="stop963"
         offset="1"
         style="stop-color:#000000;stop-opacity:0;" />
    </linearGradient>
    <inkscape:perspective
       id="perspective2572-8"
       inkscape:persp3d-origin="700 : 466.66667 : 1"
       inkscape:vp_z="1400 : 700 : 1"
       inkscape:vp_y="0 : 1000 : 0"
       inkscape:vp_x="0 : 700 : 1"
       sodipodi:type="inkscape:persp3d" />
    <linearGradient
       id="linearGradient1071"
       inkscape:collect="always">
      <stop
         id="stop1067"
         offset="0"
         style="stop-color:#000000;stop-opacity:1;" />
      <stop
         id="stop1069"
         offset="1"
         style="stop-color:#000000;stop-opacity:0.14117648" />
    </linearGradient>
    <radialGradient
       spreadMethod="reflect"
       gradientUnits="userSpaceOnUse"
       gradientTransform="matrix(1,0,0,0.88165678,0,16.517509)"
       r="22.357292"
       fy="139.57292"
       fx="57.282288"
       cy="139.57292"
       cx="57.282288"
       id="radialGradient827-55"
       xlink:href="#linearGradient838"
       inkscape:collect="always" />
    <linearGradient
       y2="136.29828"
       x2="590.97107"
       y1="280.29828"
       x1="430.56122"
       gradientTransform="matrix(1.1788483,0,0,1.3195357,-65.995486,-75.186574)"
       gradientUnits="userSpaceOnUse"
       id="linearGradient1226"
       xlink:href="#linearGradient1071"
       inkscape:collect="always" />
    <radialGradient
       gradientUnits="userSpaceOnUse"
       gradientTransform="matrix(1,0,0,0.60674305,0,405.58891)"
       r="582.5528"
       fy="1373.6064"
       fx="538.1922"
       cy="1373.6064"
       cx="538.1922"
       id="radialGradient967"
       xlink:href="#linearGradient965"
       inkscape:collect="always" />
    <linearGradient
       inkscape:collect="always"
       id="linearGradient1339">
      <stop
         style="stop-color:#ffffff;stop-opacity:0"
         offset="0"
         id="stop1335" />
      <stop
         style="stop-color:#000000;stop-opacity:0.99574471"
         offset="1"
         id="stop1337" />
    </linearGradient>
    <linearGradient
       gradientTransform="matrix(1.1050247,0.57595962,0,1.2816598,-1139.675,1149.492)"
       gradientUnits="userSpaceOnUse"
       y2="434.51581"
       x2="696.17511"
       y1="343.43909"
       x1="697.04724"
       id="linearGradient2511"
       xlink:href="#linearGradient1339"
       inkscape:collect="always" />
    <filter
       height="3.3460785"
       y="-1.1730392"
       width="2.3184897"
       x="-0.65924483"
       id="filter1130"
       style="color-interpolation-filters:sRGB"
       inkscape:collect="always">
      <feGaussianBlur
         id="feGaussianBlur1132"
         stdDeviation="53.488548"
         inkscape:collect="always" />
    </filter>
    <filter
       height="1.0747988"
       y="-0.037399396"
       width="1.0353389"
       x="-0.017669426"
       id="filter1148"
       style="color-interpolation-filters:sRGB"
       inkscape:collect="always">
      <feGaussianBlur
         id="feGaussianBlur1150"
         stdDeviation="3.3471108"
         inkscape:collect="always" />
    </filter>
    <filter
       height="1.0652163"
       y="-0.03260813"
       width="1.0379751"
       x="-0.018987533"
       id="filter1160"
       style="color-interpolation-filters:sRGB"
       inkscape:collect="always">
      <feGaussianBlur
         id="feGaussianBlur1162"
         stdDeviation="5.1587883"
         inkscape:collect="always" />
    </filter>
    <filter
       height="1.0959647"
       y="-0.047982335"
       width="1.0320039"
       x="-0.016001964"
       id="filter1184"
       style="color-interpolation-filters:sRGB"
       inkscape:collect="always">
      <feGaussianBlur
         id="feGaussianBlur1186"
         stdDeviation="2.5375078"
         inkscape:collect="always" />
    </filter>
    <filter
       height="1.0671209"
       y="-0.033560472"
       width="1.0373578"
       x="-0.018678889"
       id="filter1208"
       style="color-interpolation-filters:sRGB"
       inkscape:collect="always">
      <feGaussianBlur
         id="feGaussianBlur1210"
         stdDeviation="3.4103913"
         inkscape:collect="always" />
    </filter>
    <filter
       height="1.111719"
       y="-0.055859503"
       width="1.0531159"
       x="-0.026557957"
       id="filter1226"
       style="color-interpolation-filters:sRGB"
       inkscape:collect="always">
      <feGaussianBlur
         id="feGaussianBlur1228"
         stdDeviation="6.267875"
         inkscape:collect="always" />
    </filter>
    <filter
       height="1.0808478"
       y="-0.040423922"
       width="1.0341323"
       x="-0.017066155"
       id="filter1240"
       style="color-interpolation-filters:sRGB"
       inkscape:collect="always">
      <feGaussianBlur
         id="feGaussianBlur1242"
         stdDeviation="3.2397175"
         inkscape:collect="always" />
    </filter>
    <linearGradient
       inkscape:collect="always"
       xlink:href="#linearGradient1238"
       id="linearGradient1240"
       x1="2908.8132"
       y1="104.01186"
       x2="3423.1404"
       y2="-1624.7512"
       gradientUnits="userSpaceOnUse" />
  </defs>
  <sodipodi:namedview
     id="base"
     pagecolor="#ffffff"
     bordercolor="#666666"
     borderopacity="1.0"
     inkscape:pageopacity="0.0"
     inkscape:pageshadow="2"
     inkscape:zoom="0.125"
     inkscape:cx="2878.4676"
     inkscape:cy="1266.3203"
     inkscape:document-units="px"
     inkscape:current-layer="layer1"
     showgrid="false"
     inkscape:window-width="1920"
     inkscape:window-height="1001"
     inkscape:window-x="-9"
     inkscape:window-y="-9"
     inkscape:window-maximized="1"
     showguides="true"
     inkscape:guide-bbox="true"
     fit-margin-top="200"
     fit-margin-left="200"
     fit-margin-right="200"
     fit-margin-bottom="200"
     units="px"
     inkscape:pagecheckerboard="true"
     inkscape:snap-others="false"
     inkscape:object-nodes="false"
     inkscape:snap-nodes="false">
    <inkscape:grid
       type="xygrid"
       id="grid1014" />
  </sodipodi:namedview>
  <metadata
     id="metadata5">
    <rdf:RDF>
      <cc:Work
         rdf:about="">
        <dc:format>image/svg+xml</dc:format>
        <dc:type
           rdf:resource="http://purl.org/dc/dcmitype/StillImage" />
        <dc:title />
      </cc:Work>
    </rdf:RDF>
  </metadata>
  <g
     inkscape:label="Icon"
     id="layer5"
     transform="translate(1427.4617,-1057.3399)"
     sodipodi:insensitive="true">
    <g
       transform="translate(2.0568981,158.0872)"
       style="display:inline"
       inkscape:label="Body"
       id="layer7"
       inkscape:groupmode="layer">
      <g
         style="display:inline;opacity:1"
         transform="translate(71.234948,903.3248)"
         id="layer1-3"
         inkscape:groupmode="layer"
         inkscape:label="Color">
        <path
           inkscape:connector-curvature="0"
           id="path891"
           d="m -319.94866,1025.6923 c -26.49703,0.01 -53.10614,1.0551 -79.66015,3.1699 -154.49504,12.3043 -294.7632,59.4465 -391.46485,132.959 -96.6178,73.4486 -142.18949,169.4701 -121.79299,264.8027 10.6945,63.3945 57.45948,116.597 118.90627,161.3223 61.59455,44.8328 138.86296,81.6615 214.6875,111.2129 151.64909,59.1027 298.04883,88.914 298.04883,88.914 l 15.50781,3.1641 8.9043,-59.9297 c 14.05769,-2.7697 81.54724,-16.2246 166.523471,-38.8144 94.2503497,-25.0553 198.966359,-57.4383 249.685559,-97.7188 94.14329,-74.7674 136.29769,-171.6932 112.36719,-266.7344 -23.9305,-95.0413 -109.48469,-177.62 -235.011694,-232.7383 -103.952155,-45.6448 -229.032946,-69.6489 -356.701246,-69.6093 z"
           style="color:#000000;font-style:normal;font-variant:normal;font-weight:normal;font-stretch:normal;font-size:medium;line-height:normal;font-family:sans-serif;font-variant-ligatures:normal;font-variant-position:normal;font-variant-caps:normal;font-variant-numeric:normal;font-variant-alternates:normal;font-feature-settings:normal;text-indent:0;text-align:start;text-decoration:none;text-decoration-line:none;text-decoration-style:solid;text-decoration-color:#000000;letter-spacing:normal;word-spacing:normal;text-transform:none;writing-mode:lr-tb;direction:ltr;text-orientation:mixed;dominant-baseline:auto;baseline-shift:baseline;text-anchor:start;white-space:normal;shape-padding:0;clip-rule:nonzero;display:inline;overflow:visible;visibility:visible;opacity:1;isolation:auto;mix-blend-mode:normal;color-interpolation:sRGB;color-interpolation-filters:linearRGB;solid-color:#000000;solid-opacity:1;vector-effect:none;fill:#ff00ff;fill-opacity:1;fill-rule:nonzero;stroke:none;stroke-width:30;stroke-linecap:square;stroke-linejoin:miter;stroke-miterlimit:4;stroke-dasharray:none;stroke-dashoffset:0;stroke-opacity:1;paint-order:fill markers stroke;color-rendering:auto;image-rendering:auto;shape-rendering:auto;text-rendering:auto;enable-background:accumulate" />
        <path
           d="m -616.84783,1009.1599 a 667.42694,357.65659 0 0 1 598.416814,0.5928 l -300.311414,319.4059 z"
           sodipodi:end="5.1791028"
           sodipodi:start="4.2493728"
           sodipodi:ry="357.65659"
           sodipodi:rx="667.42694"
           sodipodi:cy="1329.1586"
           sodipodi:cx="-318.74243"
           sodipodi:type="arc"
           id="path957"
           style="display:inline;fill:#fff5ff;fill-opacity:1;fill-rule:nonzero;stroke:none;stroke-width:32.72160339;stroke-linecap:butt;stroke-linejoin:miter;stroke-miterlimit:4;stroke-dasharray:none;stroke-opacity:1;paint-order:fill markers stroke" />
      </g>
      <g
         inkscape:label="Shadows"
         inkscape:groupmode="layer"
         id="g1184"
         transform="translate(71.234948,903.3248)"
         style="display:inline;opacity:1">
        <ellipse
           transform="matrix(1.7408905,0.44571439,0.02725236,1.2299456,-1523.8141,1522.9252)"
           ry="39.343605"
           rx="96.785263"
           cy="-573.1601"
           cx="885.22675"
           id="path945"
           style="display:inline;opacity:1;fill:#ffffff;fill-opacity:1;fill-rule:nonzero;stroke:none;stroke-width:30;stroke-linecap:square;stroke-linejoin:round;stroke-miterlimit:4;stroke-dasharray:none;stroke-opacity:1;paint-order:stroke fill markers;filter:url(#filter1130)" />
        <path
           sodipodi:nodetypes="ccccc"
           inkscape:connector-curvature="0"
           id="path915"
           d="m -720.66932,1351.9305 c 140.23773,88.7659 228.8641,167.04 451.70518,185.6775 l 2.92565,29.1138 -259.36752,-52.775 z"
           style="display:inline;opacity:0.1;fill:#000000;fill-opacity:1;stroke:#000000;stroke-width:1px;stroke-linecap:butt;stroke-linejoin:miter;stroke-opacity:1;filter:url(#filter1148)" />
        <path
           sodipodi:nodetypes="cccc"
           inkscape:connector-curvature="0"
           id="path1138"
           d="m -908.76225,1399.8033 c 66.82479,170.3274 321.92662,300.3202 651.95031,331.5042 l -13.62483,48.1892 c -494.54827,-99.0796 -643.16998,-230.9953 -638.32548,-379.6934 z"
           style="opacity:0.1;fill:#000000;fill-opacity:1;stroke:none;stroke-width:1px;stroke-linecap:butt;stroke-linejoin:miter;stroke-opacity:1;filter:url(#filter1160)" />
        <path
           sodipodi:nodetypes="cccc"
           inkscape:connector-curvature="0"
           id="path1166"
           d="m -257.87044,1726.5549 -2.68794,-43.4617 c 106.17124,14.8507 248.011461,-37.5106 380.57946,-83.4604 -111.3619993,60.803 -223.05166,121.191 -377.89152,126.9221 z"
           style="opacity:0.1;fill:#000000;fill-opacity:1;stroke:none;stroke-width:1px;stroke-linecap:butt;stroke-linejoin:miter;stroke-opacity:1;filter:url(#filter1184)" />
      </g>
      <g
         style="display:inline"
         inkscape:label="Lines"
         inkscape:groupmode="layer"
         id="g1055"
         transform="translate(71.234948,903.3248)">
        <ellipse
           ry="349.75104"
           rx="583.8725"
           cy="1385.7496"
           cx="-318.74243"
           style="opacity:0.11499999;fill:none;fill-opacity:1;fill-rule:evenodd;stroke:none;stroke-width:30.2648201;stroke-linecap:butt;stroke-linejoin:miter;stroke-miterlimit:4;stroke-dasharray:none;stroke-opacity:1;paint-order:fill markers stroke"
           id="ellipse849" />
        <ellipse
           style="display:inline;opacity:1;fill:#800080;fill-opacity:1;fill-rule:nonzero;stroke:#800080;stroke-width:1.62963188;stroke-linecap:square;stroke-linejoin:round;stroke-miterlimit:4;stroke-dasharray:none;stroke-opacity:1;paint-order:stroke markers fill"
           id="ellipse2524"
           cx="-319.64398"
           cy="1439.014"
           rx="18.157455"
           ry="16.662048"
           inkscape:transform-center-x="158.74801"
           inkscape:transform-center-y="-82.330124" />
        <ellipse
           inkscape:transform-center-y="-82.330119"
           inkscape:transform-center-x="158.74801"
           ry="16.662048"
           rx="18.157455"
           cy="1366.77"
           cx="-319.64398"
           id="ellipse2526"
           style="display:inline;opacity:1;fill:#800080;fill-opacity:1;fill-rule:nonzero;stroke:#800080;stroke-width:1.62963188;stroke-linecap:square;stroke-linejoin:round;stroke-miterlimit:4;stroke-dasharray:none;stroke-opacity:1;paint-order:stroke markers fill" />
        <ellipse
           inkscape:transform-center-y="-82.330124"
           inkscape:transform-center-x="158.74801"
           ry="16.662048"
           rx="18.157455"
           cy="1511.2582"
           cx="-319.64398"
           id="ellipse898"
           style="display:inline;opacity:1;fill:#800080;fill-opacity:1;fill-rule:nonzero;stroke:#800080;stroke-width:1.62963188;stroke-linecap:square;stroke-linejoin:round;stroke-miterlimit:4;stroke-dasharray:none;stroke-opacity:1;paint-order:stroke markers fill" />
        <path
           sodipodi:nodetypes="ccccsssssc"
           inkscape:connector-curvature="0"
           d="m -720.66932,1351.9305 c 116.0523,135.3127 243.0567,210.3211 454.63083,214.7913 5.58822,65.3819 8.84689,114.1327 -4.39828,212.7749 -260.70837,-49.329 -589.41146,-124.7472 -627.72318,-355.7781 -19.1494,-89.0028 22.59394,-178.8245 116.16351,-249.9559 93.56957,-71.1314 231.4085,-117.8279 383.57839,-129.947 152.16988,-12.1191 306.381241,11.3178 429.139636,65.2204 122.758404,53.9026 204.149594,133.9176 226.495594,222.6658 22.346,88.7482 -16.1578,179.0622 -107.14859,251.3259 -90.990804,72.2638 -256.23857,129.5436 -407.93903,143.5271"
           style="display:inline;fill:none;fill-opacity:1;fill-rule:nonzero;stroke:#800080;stroke-width:30;stroke-linecap:square;stroke-linejoin:miter;stroke-miterlimit:4;stroke-dasharray:none;stroke-opacity:1;paint-order:fill markers stroke"
           id="path1261" />
        <ellipse
           inkscape:transform-center-y="-82.330121"
           inkscape:transform-center-x="158.74801"
           ry="16.662048"
           rx="18.157455"
           cy="1712.514"
           cx="-318.74377"
           id="path2513"
           style="display:inline;opacity:1;fill:#800080;fill-opacity:1;fill-rule:nonzero;stroke:#800080;stroke-width:1.62963188;stroke-linecap:square;stroke-linejoin:round;stroke-miterlimit:4;stroke-dasharray:none;stroke-opacity:1;paint-order:stroke markers fill" />
        <path
           inkscape:connector-curvature="0"
           id="path977-9"
           d="M -369.16493,1327.1585 V 1553.604"
           style="fill:none;stroke:#800080;stroke-width:30;stroke-linecap:butt;stroke-linejoin:miter;stroke-miterlimit:4;stroke-dasharray:none;stroke-opacity:1" />
        <g
           id="g987"
           transform="translate(-1046.3521,1456.0906)">
          <path
             sodipodi:nodetypes="cccc"
             style="fill:#800080;fill-opacity:1;stroke:none;stroke-width:1px;stroke-linecap:butt;stroke-linejoin:miter;stroke-opacity:1"
             d="m 486.95145,-383.51332 240.24669,256.58128 -134.80691,24.2193 z"
             id="path867"
             inkscape:connector-curvature="0" />
          <path
             sodipodi:nodetypes="cccc"
             inkscape:connector-curvature="0"
             id="path873"
             d="m 967.85634,-383.07307 -240.24669,256.58128 134.80691,23.77905 z"
             style="fill:#800080;fill-opacity:1;stroke:none;stroke-width:1px;stroke-linecap:butt;stroke-linejoin:miter;stroke-opacity:1" />
          <path
             inkscape:connector-curvature="0"
             id="path982"
             d="M 846.32222,-141.67137 H 619.87678"
             style="fill:none;stroke:#800080;stroke-width:30;stroke-linecap:butt;stroke-linejoin:miter;stroke-miterlimit:4;stroke-dasharray:none;stroke-opacity:1" />
        </g>
      </g>
    </g>
    <g
       transform="translate(2.0568981,158.0872)"
       style="display:inline"
       inkscape:label="Face"
       id="layer6"
       inkscape:groupmode="layer">
      <g
         style="display:inline"
         inkscape:label="Colors"
         id="layer2"
         inkscape:groupmode="layer">
        <ellipse
           transform="scale(-1,1)"
           ry="291.20898"
           rx="290.60321"
           cy="1843.5641"
           cx="247.50752"
           id="ellipse1103"
           style="fill:#fff5ff;fill-opacity:1;fill-rule:nonzero;stroke:none;stroke-width:30.26459312;stroke-linecap:butt;stroke-linejoin:miter;stroke-miterlimit:4;stroke-dasharray:none;stroke-opacity:1;paint-order:markers fill stroke" />
      </g>
      <g
         style="display:inline"
         inkscape:label="Shadows"
         id="layer4"
         inkscape:groupmode="layer">
        <path
           sodipodi:nodetypes="ccc"
           inkscape:connector-curvature="0"
           id="ellipse1079"
           d="m -100.7441,2086.4311 c -178.93321,95.6826 -360.48276,34.1486 -438.19196,-200.6538 110.54565,130.6927 229.89379,218.1912 438.19196,200.6538 z"
           style="display:inline;opacity:0.1;fill:url(#linearGradient2511);fill-opacity:1;fill-rule:nonzero;stroke:none;stroke-width:1.76275754;stroke-linecap:butt;stroke-linejoin:miter;stroke-miterlimit:4;stroke-dasharray:none;stroke-opacity:1;paint-order:stroke fill markers;filter:url(#filter1208)" />
        <path
           sodipodi:nodetypes="ccccccc"
           inkscape:connector-curvature="0"
           id="path1212"
           d="m -534.29303,1814.1312 c 74.96474,-139.3502 161.76806,-192.5266 282.6525,-202.5306 141.95215,4.2563 205.070591,102.8059 283.765316,199.1921 l -16.6921,-161.3567 -259.283576,-104.6037 -280.4269,111.2805 z"
           style="opacity:0.1;fill:#000000;fill-opacity:0.99607843;stroke:none;stroke-width:1px;stroke-linecap:butt;stroke-linejoin:miter;stroke-opacity:1;filter:url(#filter1226)" />
        <path
           sodipodi:nodetypes="cccc"
           inkscape:connector-curvature="0"
           id="path1230"
           d="m -536.15529,1923.8558 c 98.23587,218.8575 276.9585,257.6308 475.270731,152.6531 -63.073701,47.8012 -145.290251,113.421 -315.535701,80.261 -103.31644,-61.0551 -154.76866,-161.3963 -159.73503,-232.9141 z"
           style="opacity:0.1;fill:#000000;fill-opacity:0.99607843;stroke:#000000;stroke-width:1px;stroke-linecap:butt;stroke-linejoin:miter;stroke-opacity:1;filter:url(#filter1240)" />
      </g>
      <g
         style="display:inline"
         inkscape:label="Lines"
         id="layer3"
         inkscape:groupmode="layer">
        <g
           transform="matrix(1.1976508,0,0,1.1313391,-1085.8644,1292.554)"
           id="g887">
          <path
             sodipodi:nodetypes="cc"
             inkscape:connector-curvature="0"
             id="path1041"
             d="M 870.46509,436.59805 C 853.15859,386.71256 827.44831,336.89506 734.03683,370.33883"
             style="display:inline;fill:none;stroke:#800080;stroke-width:26.00019455;stroke-linecap:butt;stroke-linejoin:miter;stroke-miterlimit:4;stroke-dasharray:none;stroke-opacity:1" />
          <path
             style="display:inline;fill:none;stroke:#800080;stroke-width:26.00019455;stroke-linecap:butt;stroke-linejoin:miter;stroke-miterlimit:4;stroke-dasharray:none;stroke-opacity:1"
             d="m 529.53716,438.47442 c 17.3065,-49.88548 43.01668,-99.70291 136.42817,-66.25921"
             id="path1043"
             inkscape:connector-curvature="0"
             sodipodi:nodetypes="cc" />
          <path
             sodipodi:nodetypes="cc"
             inkscape:connector-curvature="0"
             id="path1047"
             d="M 755.30116,596.46033 C 705.04342,622.65882 643.60043,607.02632 603.20329,569.33622"
             style="display:inline;fill:none;stroke:#800080;stroke-width:26.00019455;stroke-linecap:butt;stroke-linejoin:miter;stroke-miterlimit:4;stroke-dasharray:none;stroke-opacity:1" />
          <path
             style="display:inline;fill:none;stroke:#800080;stroke-width:26.00019455;stroke-linecap:butt;stroke-linejoin:miter;stroke-miterlimit:4;stroke-dasharray:none;stroke-opacity:1"
             d="m 614.38083,532.79175 c -9.3405,17.94455 -24.23833,41.07671 -38.34433,58.31735"
             id="path1049"
             inkscape:connector-curvature="0"
             sodipodi:nodetypes="cc" />
          <path
             style="display:inline;fill:#800080;stroke:none;stroke-width:28.34482384;stroke-linecap:butt;stroke-linejoin:miter;stroke-miterlimit:4;stroke-dasharray:none;stroke-opacity:1;paint-order:stroke markers fill"
             d="m 655.82812,181.61133 c -5.38336,-0.0698 -10.82806,0.17497 -16.23632,0.55664 -24.5175,1.7302 -56.89832,21.45994 -81.08203,31.45117 -38.45274,15.88632 -51.62645,58.51253 -108.99415,81.12305 -18.97816,7.47993 -35.22293,79.18554 -32.92968,79.18554 36.72642,-12.66341 -9.95238,100.30195 -16.80664,99.08789 31.64209,62.24926 85.02815,-11.71906 84.63867,-25.6875 -2.32008,-83.20869 51.71362,-129.86775 34.95312,-86.71093 -3.46613,8.92498 51.10846,-34.06103 51.10547,-53.57422 10.84931,8.60494 29.84121,16.8389 49.56641,1.72265 -21.30191,13.66675 -5.25064,-59.88859 79.95898,-35.9375 85.20962,-23.95109 101.25894,49.60425 79.95703,35.9375 19.7252,15.11625 38.7171,6.88229 49.56641,-1.72265 -0.003,19.51319 54.5716,62.4992 51.10547,53.57422 -16.7605,-43.15682 37.2732,3.50224 34.95312,86.71093 -0.38948,13.96844 52.99659,87.93676 84.63872,25.6875 -6.8543,1.21406 -53.5331,-111.7513 -16.80668,-99.08789 2.29325,0 -13.95152,-71.70561 -32.92969,-79.18554 -57.36769,-22.61052 -70.5414,-65.23673 -108.99414,-81.12305 -24.18371,-9.99123 -56.56453,-29.72097 -81.08203,-31.45117 -21.63305,-1.52666 -43.84349,-0.88219 -60.40821,13.45703 -12.42354,-10.75441 -28.02374,-13.80423 -44.17383,-14.01367 z"
             id="path843"
             inkscape:connector-curvature="0" />
          <ellipse
             transform="scale(-1,1)"
             ry="257.40204"
             rx="242.64435"
             cy="487.04227"
             cx="-700.0011"
             id="ellipse1039"
             style="display:inline;fill:none;fill-opacity:1;fill-rule:nonzero;stroke:#800080;stroke-width:26.00019455;stroke-linecap:butt;stroke-linejoin:miter;stroke-miterlimit:4;stroke-dasharray:none;stroke-opacity:1;paint-order:markers fill stroke" />
        </g>
      </g>
    </g>
  </g>
  <g
     inkscape:label="Text"
     inkscape:groupmode="layer"
     id="layer1"
     transform="translate(-106.01294,1740.1318)"
     style="display:inline"
     sodipodi:insensitive="true">
    <path
       d="m 6134.2,-369.20376 q 0,32.03373 -15.5037,54.84578 -15.5038,22.81198 -37.3913,22.81198 -22.1919,0 -37.6951,-22.81198 -15.1995,-22.81205 -15.1995,-54.84578 0,-32.03394 15.1995,-54.84585 15.5032,-22.81198 37.6951,-22.81198 21.8875,0 37.3913,22.81198 15.5037,22.81191 15.5037,54.84585 z"
       style="font-style:normal;font-variant:normal;font-weight:bold;font-stretch:semi-expanded;font-size:128.67851257px;line-height:0px;font-family:Magneto;-inkscape-font-specification:'Magneto, Bold Semi-Expanded';font-variant-ligatures:normal;font-variant-caps:normal;font-variant-numeric:normal;font-feature-settings:normal;text-align:start;letter-spacing:0px;word-spacing:0px;writing-mode:lr-tb;text-anchor:start;fill:none;fill-opacity:1;stroke:#800080;stroke-width:27.54906273;stroke-miterlimit:4;stroke-dasharray:none"
       id="path977"
       inkscape:connector-curvature="0" />
    <path
       d="m 6558.1391,-384.24998 q -6.6881,37.8582 -27.9678,58.72869 -19.4551,18.92907 -45.2946,18.92907 h -183.003 q -52.2871,0 -87.8539,-28.15096 -44.9911,-35.43136 -44.9911,-106.77951 0,-7.76575 0.6073,-16.01693 6.0802,-86.87973 56.5428,-135.90118 44.3831,-43.19718 104.8769,-43.19718 h 76.6065 q 25.8396,0 44.0788,26.20954 18.2399,26.20954 18.2399,64.06767 0,38.34356 -18.5442,65.03838 -18.2392,26.69505 -43.7745,26.69505 -25.8396,0 -44.0788,-26.69505 -17.9362,-27.18017 -17.6319,-66.00909 0,0 0,-11.64867 h -36.7834 l -23.7111,107.26486 q -3.0397,13.59016 -3.0397,24.75348 0,42.71183 42.2546,42.71183 z"
       style="font-style:normal;font-variant:normal;font-weight:bold;font-stretch:semi-expanded;font-size:128.67851257px;line-height:0px;font-family:Magneto;-inkscape-font-specification:'Magneto, Bold Semi-Expanded';font-variant-ligatures:normal;font-variant-caps:normal;font-variant-numeric:normal;font-feature-settings:normal;text-align:start;letter-spacing:0px;word-spacing:0px;writing-mode:lr-tb;text-anchor:start;fill:none;fill-opacity:1;stroke:#800080;stroke-width:27.54906273;stroke-miterlimit:4;stroke-dasharray:none"
       id="path979"
       inkscape:connector-curvature="0" />
    <path
       style="font-style:normal;font-variant:normal;font-weight:bold;font-stretch:semi-expanded;font-size:128.67851257px;line-height:0px;font-family:Magneto;-inkscape-font-specification:'Magneto, Bold Semi-Expanded';font-variant-ligatures:normal;font-variant-caps:normal;font-variant-numeric:normal;font-feature-settings:normal;text-align:start;letter-spacing:0px;word-spacing:0px;writing-mode:lr-tb;text-anchor:start;fill:none;fill-opacity:1;stroke:#800080;stroke-width:27.54906273;stroke-miterlimit:4;stroke-dasharray:none"
       d="m 7217.8027,-649.74272 c -28.9801,0 -55.124,15.36978 -78.4297,46.10932 l -93.3262,122.31161 34.3509,-155.31649 h -9.4235 -100.318 -276.9367 c -44.5846,0 -80.2542,14.72208 -107.006,44.16729 -25.1302,27.82742 -40.329,66.17173 -45.5977,115.03144 -1.013,8.73646 -1.5202,17.47233 -1.5202,26.20886 0,44.32956 11.4503,80.08491 34.3509,107.26509 25.7381,30.73969 62.5215,45.78645 110.3494,45.13928 41.1405,-0.32347 74.5798,-15.20804 100.318,-44.65325 26.954,-30.73954 41.8492,-73.12888 44.686,-127.16576 0.8109,-13.91363 -0.9116,-30.25404 -5.1672,-49.02137 -4.2563,-19.09095 -9.7286,-32.19471 -16.416,-39.3133 h 145.8442 l -55.5592,252.38755 h 62.0144 c 15.4023,0 28.2727,-6.957 38.6085,-20.87063 l 120.989,-161.13881 -24.3201,104.35108 c -3.0397,12.61938 -4.5599,24.26917 -4.5599,34.94706 0,33.00458 13.7806,49.5074 41.3433,49.5074 18.4414,0 40.6333,-17.15051 66.5743,-51.44942 l 102.7497,-137.35612 c -8.9177,45.62396 -15.6051,80.40666 -20.0637,104.35108 -0.8108,4.85355 -1.2159,9.86921 -1.2159,15.04653 0,16.17867 4.0528,30.74029 12.1597,43.68322 8.3091,12.61937 17.3269,18.92861 27.0548,18.92861 h 123.4221 c 40.1268,0 63.1288,-25.88652 69.0061,-77.65836 H 7387.1254 L 7426.3412,-558.98 c 3.2433,-14.23725 4.8636,-27.18047 4.8636,-38.82914 0,-34.62246 -12.7669,-51.93358 -38.3029,-51.93358 -26.9534,0 -51.4763,15.04683 -73.5661,45.13936 l -90.893,123.28157 21.8869,-96.58675 c 2.2289,-10.03087 3.3441,-19.25389 3.3441,-27.66673 0,-29.44536 -11.9568,-44.16745 -35.8711,-44.16745 z M 6670.0088,-558.98 h 69.6147 l -40.4318,183.95153 c -2.8375,0.32347 -6.1816,0.48559 -10.0328,0.48559 -32.4256,0 -48.6381,-13.91394 -48.6381,-41.74128 0,-5.82433 0.7094,-11.97304 2.1275,-18.44461 z"
       id="path981"
       inkscape:connector-curvature="0" />
    <g
       id="g427"
       style="fill:url(#linearGradient1240);fill-opacity:1">
      <path
         inkscape:connector-curvature="0"
         style="font-style:normal;font-variant:normal;font-weight:normal;font-stretch:normal;font-size:128.67851257px;line-height:0px;font-family:'Fira Code';-inkscape-font-specification:'Fira Code';letter-spacing:0px;word-spacing:0px;fill:url(#linearGradient1240);fill-opacity:1;stroke:#800080;stroke-width:27.54906464;stroke-miterlimit:4;stroke-dasharray:none"
         d="m 4952.7562,-891.93789 -219.1797,507.68753 h -58.9747 c -26.8854,0 -52.6812,2.17701 -77.3301,6.85936 -20.3644,3.86851 -22.0486,3.99017 -41.6698,10.20702 -12.076,3.82617 -23.9157,8.07263 -35.4278,13.02743 -9.7383,4.23085 -19.0665,8.84326 -27.9981,13.82619 -26.0322,7.77491 -52.0072,-5.87544 -63.6679,-11.00578 -17.5054,-7.8366 -35.3985,-19.84476 -53.6817,-36.02336 8.3637,4.2975 17.1164,7.58428 26.2579,9.8593 9.1416,2.02248 18.9634,3.03319 29.4668,3.03319 42.5962,0 77.9961,-13.6496 106.1991,-40.95113 28.3976,-27.30161 42.5957,-61.17626 42.5957,-101.62305 0,-40.19395 -15.3661,-73.56223 -46.0976,-100.10545 -30.7318,-26.54321 -69.7299,-39.81448 -116.9942,-39.81448 -24.7019,0 -47.3611,5.18242 -67.9785,15.54689 -20.4231,10.36447 -38.4145,25.65746 -53.9746,45.88079 -16.1438,20.98178 -28.6896,45.62868 -37.6367,73.94138 -8.7525,28.06 -13.1288,57.25874 -13.1288,87.59384 0,57.38378 16.144,103.51703 48.4316,138.40232 26.5597,28.3181 60.2761,45.0517 101.1405,50.21491 -2.1995,3.63637 -4.3344,7.33361 -6.3867,11.1074 -18.2394,33.65175 -27.3594,68.11314 -27.3594,103.38277 0,41.4175 12.2612,72.804284 36.7832,94.1602 19.4556,16.825836 43.3697,25.238304 71.7422,25.238304 97.4803,0 197.2922,-98.366514 299.4337,-295.099684 h 93.3241 l -57.1504,252.388678 h 108.8301 L 4969.4748,-306.592 h 67.7324 c 39.1139,0 63.8382,-25.88622 74.1739,-77.65821 h -125.4903 l 113.3888,-507.68753 z m 23.1034,80.57034 -100.3183,427.11719 h -67.7911 z m -572.7343,212.04298 c 4.0839,6.31982 7.0971,13.01752 9.043,20.09566 1.9457,7.07821 2.9199,15.04105 2.9199,23.88874 0,18.20099 -4.8628,33.11565 -14.5879,44.74406 -9.7252,11.62855 -22.2709,17.44343 -37.6367,17.44343 -8.7527,0 -17.3102,-1.76948 -25.6739,-5.30858 -8.3637,-3.79196 -15.6587,-8.9743 -21.8829,-15.5469 8.3637,-24.26804 19.8381,-43.48035 34.4258,-57.6367 14.7824,-14.40912 32.5809,-23.63499 53.3927,-27.67971 z m 289.412,292.73242 c -17.8342,40.12317 -43.2669,79.76159 -76.3008,118.91405 -37.6949,45.30042 -69.1082,67.94924 -94.2383,67.94924 -18.2394,0 -27.3593,-13.91281 -27.3593,-41.74022 0,-32.68096 12.6653,-63.58149 37.998,-92.70309 23.4311,-23.04456 41.3285,-31.86155 69.7325,-41.40039 25.2941,-7.33924 55.3401,-11.01959 90.1679,-11.01959 z"
         id="path969"
         sodipodi:nodetypes="ccssscccccscscscccscccscscccccsccccccccccscsccccccssccc" />
      <path
         inkscape:connector-curvature="0"
         id="path971"
         style="font-style:normal;font-variant:normal;font-weight:bold;font-stretch:semi-expanded;font-size:128.67851257px;line-height:0px;font-family:Magneto;-inkscape-font-specification:'Magneto, Bold Semi-Expanded';font-variant-ligatures:normal;font-variant-caps:normal;font-variant-numeric:normal;font-feature-settings:normal;text-align:start;letter-spacing:0px;word-spacing:0px;writing-mode:lr-tb;text-anchor:start;fill:url(#linearGradient1240);fill-opacity:1;stroke:#800080;stroke-width:27.54906273;stroke-miterlimit:4;stroke-dasharray:none"
         d="m 5586.2755,-384.24998 q -7.5998,42.71175 -34.9592,63.09696 -19.1515,14.5608 -41.039,14.5608 h -117.0371 q -44.9908,0 -44.9908,-49.02145 0,-12.61938 3.3439,-28.63631 l 112.7812,-507.68813 h 107.6133 l -113.3892,507.68813 z" />
      <path
         inkscape:connector-curvature="0"
         id="path973"
         style="font-style:normal;font-variant:normal;font-weight:bold;font-stretch:semi-expanded;font-size:128.67851257px;line-height:0px;font-family:Magneto;-inkscape-font-specification:'Magneto, Bold Semi-Expanded';font-variant-ligatures:normal;font-variant-caps:normal;font-variant-numeric:normal;font-feature-settings:normal;text-align:start;letter-spacing:0px;word-spacing:0px;writing-mode:lr-tb;text-anchor:start;fill:url(#linearGradient1240);fill-opacity:1;stroke:#800080;stroke-width:27.54906273;stroke-miterlimit:4;stroke-dasharray:none"
         d="m 5347.0334,-384.24998 q -7.5998,42.71175 -34.9591,63.09696 -19.1516,14.5608 -41.0391,14.5608 h -117.037 q -44.9909,0 -44.9909,-49.02145 0,-12.61938 3.3439,-28.63631 l 112.7812,-507.68813 h 107.6133 l -113.3892,507.68813 z" />
      <path
         inkscape:connector-curvature="0"
         id="path975"
         style="font-style:normal;font-variant:normal;font-weight:bold;font-stretch:semi-expanded;font-size:128.67851257px;line-height:0px;font-family:Magneto;-inkscape-font-specification:'Magneto, Bold Semi-Expanded';font-variant-ligatures:normal;font-variant-caps:normal;font-variant-numeric:normal;font-feature-settings:normal;text-align:start;letter-spacing:0px;word-spacing:0px;writing-mode:lr-tb;text-anchor:start;fill:url(#linearGradient1240);fill-opacity:1;stroke:#800080;stroke-width:27.54906273;stroke-miterlimit:4;stroke-dasharray:none"
         d="m 5989.0654,-384.24998 q -17.9356,77.65776 -67.1824,77.65776 h -74.1741 q -26.4473,114.5454 -55.6306,169.87661 -40.735,76.687054 -101.2295,76.687054 -37.999,0 -58.6705,-35.431358 -17.9356,-31.063166 -17.9356,-80.084606 0,-38.829 10.3357,-75.23106 10.6398,-36.40215 27.6634,-55.81664 h -23.1035 q -20.0634,0 -33.4391,-19.41442 -13.0717,-19.89978 -13.0717,-49.50688 0,-13.59009 3.04,-27.6656 l 52.8945,-233.45886 h 110.3494 l -56.8467,252.388 h 61.7106 l 55.9346,-252.388 h 109.7412 l -55.9346,252.388 z m -254.4417,90.76256 q -20.0635,0 -37.391,35.91679 -17.0236,36.402 -17.0236,72.31886 0,32.03387 17.6316,51.44829 z" />
      <path
         id="path1219"
         style="font-style:normal;font-variant:normal;font-weight:normal;font-stretch:normal;font-size:15.43614483px;line-height:1.15000629em;font-family:'Snap ITC';-inkscape-font-specification:'Snap ITC, Normal';font-variant-ligatures:normal;font-variant-caps:normal;font-variant-numeric:normal;font-feature-settings:normal;text-align:center;letter-spacing:0px;word-spacing:-0.16933332px;writing-mode:lr-tb;text-anchor:middle;fill:url(#linearGradient1240);fill-opacity:1;stroke:#800080;stroke-width:30.23448753;stroke-miterlimit:4;stroke-dasharray:none;stroke-opacity:1;paint-order:fill markers stroke"
         d="m 2314.7391,-552.30609 -40.5541,-151.29616 -39.3871,186.56068 z m 235.4466,217.65409 -254.4108,102.38077 65.0614,-113.37732 -18.3805,-83.80053 -94.5289,9.47969 -27.4249,97.83057 41.1374,41.71066 -276.5844,25.78482 67.3956,-65.22038 89.5692,-452.75079 -50.7655,-42.84827 343.1044,14.78835 -79.9411,37.16046 140.3347,407.24818 z"
         inkscape:connector-curvature="0" />
      <path
         id="path1221"
         style="font-style:normal;font-variant:normal;font-weight:normal;font-stretch:normal;font-size:15.43614483px;line-height:1.15000629em;font-family:'Snap ITC';-inkscape-font-specification:'Snap ITC, Normal';font-variant-ligatures:normal;font-variant-caps:normal;font-variant-numeric:normal;font-feature-settings:normal;text-align:center;letter-spacing:0px;word-spacing:-0.16933332px;writing-mode:lr-tb;text-anchor:middle;fill:url(#linearGradient1240);fill-opacity:1;stroke:#800080;stroke-width:30.23448753;stroke-miterlimit:4;stroke-dasharray:none;stroke-opacity:1;paint-order:fill markers stroke"
         d="m 2893.582,-820.77137 -68.5623,151.29609 q -7.2939,-16.30513 -18.089,-24.26804 -10.5033,-8.34215 -24.5074,-8.34215 -21.0065,0 -30.3427,21.61372 -9.0443,21.61379 -9.0443,70.90819 0,8.72131 0,14.4092 0.3096,5.68781 0.8748,10.9964 l 79.0659,-3.79173 59.8098,-65.97877 -24.5073,214.24137 -50.7655,-65.22038 -56.6008,9.47969 q 6.1268,55.74069 14.5878,106.93111 8.4609,50.81119 19.2561,97.45141 l 58.6427,34.12698 -259.9543,14.78835 67.1038,-63.70375 q -13.129,-70.52897 -19.5477,-106.93103 -6.4187,-36.78131 -10.5032,-61.80774 l -33.5517,6.44621 -41.1375,73.56252 -21.5902,-240.78451 42.5964,57.63662 38.22,-1.51685 q -2.9187,-26.54322 -4.668,-51.56965 -1.4593,-25.02637 -1.4593,-47.7777 0,-70.14981 30.9261,-106.17272 30.926,-36.02284 90.4444,-36.02284 28.5919,0 56.0172,10.61725 27.7166,10.23808 53.3911,30.33501 z"
         inkscape:connector-curvature="0" />
      <path
         id="path1223"
         style="font-style:normal;font-variant:normal;font-weight:normal;font-stretch:normal;font-size:15.43614483px;line-height:1.15000629em;font-family:'Snap ITC';-inkscape-font-specification:'Snap ITC, Normal';font-variant-ligatures:normal;font-variant-caps:normal;font-variant-numeric:normal;font-feature-settings:normal;text-align:center;letter-spacing:0px;word-spacing:-0.16933332px;writing-mode:lr-tb;text-anchor:middle;fill:url(#linearGradient1240);fill-opacity:1;stroke:#800080;stroke-width:30.23448753;stroke-miterlimit:4;stroke-dasharray:none;stroke-opacity:1;paint-order:fill markers stroke"
         d="m 3263.8198,-820.77137 -68.5623,151.29609 q -7.2939,-16.30513 -18.089,-24.26804 -10.5033,-8.34215 -24.5074,-8.34215 -21.0065,0 -30.3427,21.61372 -9.0443,21.61379 -9.0443,70.90819 0,8.72131 0,14.4092 0.3096,5.68781 0.8748,10.9964 l 79.0659,-3.79173 59.8099,-65.97877 -24.5074,214.24137 -50.7655,-65.22038 -56.6009,9.47969 q 6.1269,55.74069 14.5879,106.93111 8.4609,50.81119 19.2561,97.45141 l 58.6427,34.12698 -259.9543,14.78835 67.1037,-63.70375 q -13.1289,-70.52897 -19.5476,-106.93103 -6.4187,-36.78131 -10.5032,-61.80774 l -33.5517,6.44621 -41.1375,73.56252 -21.5903,-240.78451 42.5965,57.63662 38.22,-1.51685 q -2.9187,-26.54322 -4.668,-51.56965 -1.4593,-25.02637 -1.4593,-47.7777 0,-70.14981 30.9261,-106.17272 30.9264,-36.02284 90.4443,-36.02284 28.592,0 56.0172,10.61725 27.7167,10.23808 53.3911,30.33501 z"
         inkscape:connector-curvature="0" />
      <path
         id="path1225"
         style="font-style:normal;font-variant:normal;font-weight:normal;font-stretch:normal;font-size:15.43614483px;line-height:1.15000629em;font-family:'Snap ITC';-inkscape-font-specification:'Snap ITC, Normal';font-variant-ligatures:normal;font-variant-caps:normal;font-variant-numeric:normal;font-feature-settings:normal;text-align:center;letter-spacing:0px;word-spacing:-0.16933332px;writing-mode:lr-tb;text-anchor:middle;fill:url(#linearGradient1240);fill-opacity:1;stroke:#800080;stroke-width:30.23448753;stroke-miterlimit:4;stroke-dasharray:none;stroke-opacity:1;paint-order:fill markers stroke"
         d="m 3418.7423,-563.68172 q -7.5858,11.37563 -11.0866,24.26797 -3.5032,12.89249 -3.5032,29.95594 0,33.3685 16.6301,56.11984 16.922,22.37211 41.4293,22.37211 8.7525,0 18.0887,-4.55042 9.3362,-4.92927 18.9642,-14.03004 -18.6723,-44.74421 -39.0952,-73.18329 -20.1313,-28.81831 -41.4293,-40.95233 z m 204.229,-79.25042 -42.8882,25.40567 8.7524,317.75976 33.5521,33.36858 -128.3725,20.85533 21.8817,-115.65241 q -26.8415,57.25747 -62.1439,86.45494 -35.0106,29.19747 -76.44,29.19747 -49.5984,0 -83.7338,-52.7072 -33.8436,-53.08629 -33.8436,-131.19908 0,-99.72659 36.4692,-163.80934 36.4696,-64.46207 91.9033,-64.46207 42.0127,0 73.814,28.81839 32.0931,28.43908 53.9748,85.31732 l -18.3805,-117.1692 z"
         inkscape:connector-curvature="0" />
      <path
         id="path1227"
         style="font-style:normal;font-variant:normal;font-weight:normal;font-stretch:normal;font-size:15.43614483px;line-height:1.15000629em;font-family:'Snap ITC';-inkscape-font-specification:'Snap ITC, Normal';font-variant-ligatures:normal;font-variant-caps:normal;font-variant-numeric:normal;font-feature-settings:normal;text-align:center;letter-spacing:0px;word-spacing:-0.16933332px;writing-mode:lr-tb;text-anchor:middle;fill:url(#linearGradient1240);fill-opacity:1;stroke:#800080;stroke-width:30.23448753;stroke-miterlimit:4;stroke-dasharray:none;stroke-opacity:1;paint-order:fill markers stroke"
         d="m 3741.7158,-452.57958 q 5.2516,11.75479 14.004,17.44268 9.0443,5.68782 21.8818,5.68782 22.757,0 39.9704,-25.40559 17.5052,-25.40567 17.5052,-58.39502 0,-12.89241 -3.7934,-24.64728 -3.4993,-11.75479 -11.9618,-25.02643 -27.1334,18.58022 -46.6809,46.26099 -19.5477,27.68076 -30.9261,64.08283 z m 36.4691,-338.61516 -46.6805,235.85517 q 32.0931,-49.67372 63.8943,-73.56253 32.0932,-24.26812 66.5205,-24.26812 53.0992,0 90.7358,51.94881 37.6363,51.56965 37.6363,125.1321 0,91.38444 -53.3911,150.53785 -53.3911,58.7741 -145.586,68.63303 l -164.2583,17.06344 46.6806,-55.36145 -9.6278,-480.43156 -34.719,-25.78482 189.9331,-17.82184 z"
         inkscape:connector-curvature="0" />
      <path
         id="path1229"
         style="font-style:normal;font-variant:normal;font-weight:normal;font-stretch:normal;font-size:15.43614483px;line-height:1.15000629em;font-family:'Snap ITC';-inkscape-font-specification:'Snap ITC, Normal';font-variant-ligatures:normal;font-variant-caps:normal;font-variant-numeric:normal;font-feature-settings:normal;text-align:center;letter-spacing:0px;word-spacing:-0.16933332px;writing-mode:lr-tb;text-anchor:middle;fill:url(#linearGradient1240);fill-opacity:1;stroke:#800080;stroke-width:30.23448753;stroke-miterlimit:4;stroke-dasharray:none;stroke-opacity:1;paint-order:fill markers stroke"
         d="m 4233.0321,-255.40165 -242.7408,15.54666 66.8122,-49.67363 -5.2516,-435.68735 -60.3936,-14.02996 229.0283,-83.80061 -53.3915,536.55148 z"
         inkscape:connector-curvature="0" />
    </g>
    <g
       style="enable-background:new"
       id="g365"
       transform="translate(1533.4746,-2797.4717)" />
  </g>
</svg>
